<?xml version="1.0" encoding="utf-8"?>
<!-- Generator: Adobe Illustrator 27.6.1, SVG Export Plug-In . SVG Version: 6.00 Build 0)  -->
<svg version="1.1" id="Layer_1" xmlns="http://www.w3.org/2000/svg" xmlns:xlink="http://www.w3.org/1999/xlink" x="0px" y="0px"
	 width="239.4px" height="225.4px" viewBox="0 0 239.4 225.4" style="enable-background:new 0 0 239.4 225.4;" xml:space="preserve"
	>
<style type="text/css">
	.st0{fill:#00B200;}
</style>
<path class="st0" d="M225,143.3c-4.1,3.5-8.8,5.7-14,7.1c-0.8,0-1.7,0.1-2.5,0.1c-3.1,0.4-6.3,0.7-9.4,1.3c-6.7,1.4-7.5,6-6.2,11
	c0.7,2.8,2.3,5.5,3.5,8.2c2.9,6.3,3.9,13,1.9,19.5c-2.4,7.6-7,13.8-14.4,17.6c-6.7,3.5-13,7.6-19.8,11c-8.7,4.4-20.8,2.5-28.2-4.6
	c-3.4-3.2-5.1-7.4-7.9-10.9c-3.6-4.5-8.3-7.2-14-3.3c-0.2,0.1-0.4,0.3-0.6,0.4c-2,2.7-4,5.5-6,8.2c-3.6,4.8-7.3,9.3-13.5,10.8
	c-0.7,0.2-1.3,0.7-1.9,1c-0.5,0-1,0-1.5,0c-2.6,0.2-5.2,0.3-7.8,0.5c-0.9,0-1.8,0-2.7,0c-0.7-0.2-1.3-0.3-2-0.5
	c-8.8-5-17.7-9.8-26.2-15.1c-3.1-1.9-5.2-5.2-7.8-7.9c-0.1-0.2-0.3-0.3-0.4-0.5c-4.8-8.9-5-17.9-0.8-27.1c1.2-2.7,2.4-5.4,3.3-8.3
	c1.6-4.8-0.4-8.7-5.3-10c-3.4-0.9-6.9-1.3-10.4-1.5c-6.1-0.4-11.2-2.9-15.7-6.7c-4.8-4.1-8.1-9.3-9.3-15.7c-0.4-2-0.5-4.1-0.5-6.1
	c-0.1-5.7,0.3-11.3-0.1-17c-0.7-9.6,3.2-17,10-23.1c5.9-5.2,13.1-6.9,20.8-6.7c5.2,0.1,9.1-2.3,10.7-6.8c1.1-3.1-0.5-5.9-1.5-8.7
	c-0.9-2.4-2.6-4.5-3.3-7c-0.9-3.2-1.2-6.5-1.6-9.8c-0.2-1.6-0.1-3.3-0.1-5c0.2-0.7,0.3-1.3,0.5-2c0.4-1.2,0.8-2.3,1.2-3.5
	c0.1-0.2,0.2-0.4,0.4-0.5c1.7-4,4-7.7,7.5-10.5c0.2-0.1,0.4-0.3,0.5-0.4c3.8-2.3,7.5-4.8,11.3-7c3.9-2.3,8-4.4,12-6.6
	c9.5-5.3,21.8-3.2,29.1,3.5c2.5,2.3,4.2,5.6,6.3,8.3c1.4,1.8,2.9,3.5,4.3,5.2c0.2,0.1,0.4,0.3,0.5,0.4c5,4,9.5,3.3,14-2.2
	c1.9-2.3,3.4-5.1,5-7.6c0.4-0.6,0.9-1.1,1.4-1.6c0.2-0.1,0.4-0.3,0.5-0.4c2.6-3.7,6.5-5.6,10.6-7.1c9.8-3.6,18.2-0.3,26.4,4.7
	c4.6,2.8,9.5,5.2,14,8.1c7.1,4.6,11.6,11,13.1,19.6c1.2,6.8-0.1,12.8-3.4,18.6c-2,3.5-3.2,7.3-2.7,11.4c0.4,3.2,3,4.8,5.5,6
	c1.6,0.8,3.6,0.9,5.4,1c8.4,0.2,16,2.3,22.3,8.2c1.5,1.4,2.6,3.3,3.9,5c0.1,0.2,0.3,0.3,0.4,0.5c3.6,5.5,4.3,11.6,4.4,17.9
	c0.1,4.2,0,8.5,0,12.7c0.1,7.9-2,15-6.9,21.3C226.6,141.6,225.8,142.4,225,143.3z M184,141.4c3.5-2.7,7.3-5.1,11.8-5.7
	c3.8-0.5,7.6-0.9,11.4-1.4c0.6-0.1,1.3-0.1,1.9-0.3c5.7-2,8.7-5.7,8.9-12.6c0.2-5.7,0.1-11.3,0-17c-0.1-8.2-5.6-13.4-13.7-13.4
	c-2.5,0-5-0.1-7.4-0.7c-7.6-1.8-14.2-5.2-18-12.6c-4.9-9.5-3.4-18.8,1.6-27.5c4.3-7.5,1.7-15.4-5-18.9c-6.1-3.2-12-6.9-18-10.1
	c-4.9-2.6-9.8-0.8-12.6,3.8c-3.8,6.1-7.7,11.9-14.2,15.4c-6.6,3.6-13.6,4.4-20.7,1.3c-6.7-3-11.3-8.2-15-14.3
	c-0.1-0.2-0.3-0.3-0.4-0.5c-2.3-6.4-9.3-8.3-15-4.9c-5.5,3.3-11,6.6-16.7,9.6c-7.7,4.1-8.6,12.3-4.8,18.8c0.1,0.2,0.3,0.4,0.4,0.5
	c2.2,4.4,3.9,9.1,4.1,14c0.3,6.8-1.9,12.9-6.6,18c-0.1,0.1-0.3,0.3-0.4,0.4c-6.4,5.6-14,7.9-22.4,8c-2.1,0-4.4,0.5-6.2,1.6
	c-4.1,2.4-6.4,6-6.1,11.1c0.3,6.6,0,13.3,0.2,20c0.2,5.3,5.9,11,11.1,10.8c7.2-0.3,13.8,1.1,20,4.9c7.9,4.9,11.3,14.1,10.4,22.3
	c-0.6,5.3-2.4,10.3-5,15.1c-3.2,5.8-1.3,13.1,4.4,16.5c5.8,3.4,11.9,6.3,17.4,10.1c6,4.1,12.7,1,15.3-4.1c2.6-5.2,6.3-9.6,11.1-12.8
	c5.5-3.7,11.6-5.7,18.4-3.7c0.3,0.4,0.6,0.8,0.9,1.2c0.2-0.3,0.4-0.6,0.6-0.9c2.1,0.9,4.3,1.7,6.4,2.6c0.2,0.1,0.4,0.2,0.6,0.4
	c5.7,3.8,9.5,9.2,12.9,14.9c3,5.1,9.2,5.2,13.3,3c5.4-2.9,10.6-6.3,16-9.3c7.8-4.3,9.9-11.6,6.2-18.5c-2.8-5.2-4.8-10.5-4.8-16.6
	c-0.1-7,2-13.1,7.3-17.9C183.6,141.7,183.8,141.5,184,141.4z"/>
<path class="st0" d="M225,143.3c0.8-0.8,1.7-1.7,2.5-2.5C227.4,143.8,227.2,144.1,225,143.3z"/>
<path class="st0" d="M208.5,150.5c0.8,0,1.7-0.1,2.5-0.1c-0.4,0.5-0.9,0.9-1.3,1.4C209.3,151.3,208.9,150.9,208.5,150.5z"/>
<path class="st0" d="M40.4,35.8c-0.2,0.7-0.3,1.3-0.5,2c-0.3-0.4-0.6-0.8-0.9-1.2C39.5,36.3,40,36.1,40.4,35.8z"/>
<path class="st0" d="M78,220.9c0.7,0.2,1.3,0.3,2,0.5C79.1,222.6,78.8,222.6,78,220.9z"/>
<path class="st0" d="M90.5,220.9c0.5,0,1,0,1.5,0c-0.3,0.3-0.6,0.6-0.9,0.8C90.9,221.4,90.7,221.1,90.5,220.9z"/>
<path class="st0" d="M42,31.8c-0.1,0.2-0.2,0.4-0.4,0.5C41.8,32.2,41.9,32,42,31.8z"/>
<path class="st0" d="M113.5,24.8c-0.2-0.1-0.4-0.3-0.5-0.4C113.1,24.5,113.3,24.6,113.5,24.8z"/>
<path class="st0" d="M50,21c-0.2,0.1-0.4,0.3-0.5,0.4C49.7,21.2,49.8,21.1,50,21z"/>
<path class="st0" d="M134.5,12.9c-0.2,0.1-0.4,0.3-0.5,0.4C134.1,13.2,134.3,13.1,134.5,12.9z"/>
<path class="st0" d="M43.6,197.3c0.1,0.2,0.3,0.3,0.4,0.5C43.9,197.6,43.8,197.5,43.6,197.3z"/>
<path class="st0" d="M113.4,200.8c0.2-0.1,0.4-0.3,0.6-0.4C113.8,200.5,113.6,200.7,113.4,200.8z"/>
<path class="st0" d="M230,88.8c-0.1-0.2-0.3-0.3-0.4-0.5C229.7,88.5,229.8,88.7,230,88.8z"/>
<path class="st0" d="M124,182.9c0.5,0.1,1,0.2,1.5,0.4c-0.2,0.3-0.4,0.6-0.6,0.9C124.6,183.7,124.3,183.3,124,182.9z"/>
<path class="st0" d="M58.1,50.3c0.1,0.2,0.3,0.4,0.4,0.5C58.4,50.7,58.2,50.5,58.1,50.3z"/>
<path class="st0" d="M95,27.4c-0.1-0.2-0.3-0.3-0.4-0.5C94.7,27,94.9,27.2,95,27.4z"/>
<path class="st0" d="M183.4,141.8c0.2-0.1,0.4-0.3,0.5-0.4C183.8,141.5,183.6,141.7,183.4,141.8z"/>
<path class="st0" d="M56,82.9c-0.1,0.1-0.3,0.3-0.4,0.4C55.7,83.2,55.9,83,56,82.9z"/>
<path class="st0" d="M131.9,185.8c0.2,0.1,0.4,0.2,0.6,0.4C132.3,186,132.1,185.9,131.9,185.8z"/>
<path class="st0" d="M79.5,112.9c-0.9-21.9,18.3-40.4,39.8-40c22.6,0.4,39.9,17.3,40.1,39.9c0.2,21.9-17.8,39.1-38.6,40.2
	C98.6,154.2,78.2,133.6,79.5,112.9z M103.5,95.2c-0.6,0.5-1.2,1.1-1.9,1.6c-0.7,1-1.4,2-2.2,3c-0.2,0.3-0.3,0.6-0.5,0.9
	c-0.8,1.7-1.5,3.3-2.3,5c-0.4,1-0.7,2.1-1.1,3.1c0,2.7,0,5.3,0,8c0.6,1.8,1.3,3.7,1.9,5.5c0.3,0.7,0.7,1.3,1,2
	c0.8,1.2,1.7,2.3,2.5,3.5c0.1,0.2,0.3,0.3,0.4,0.5c0.8,0.8,1.7,1.7,2.5,2.5c0.3,0.3,0.7,0.7,1,1c1,0.7,2,1.3,3,2
	c1.3,0.6,2.7,1.3,4,1.9c1.3,0.3,2.7,0.7,4,1c1.3,0,2.7,0.1,4,0.1c7.9-0.1,14-3.8,18.7-9.9c4.1-5.4,5.1-11.5,4.3-18.1
	c-0.4-1.3-0.8-2.5-1.1-3.8c-0.6-1.4-1.2-2.8-1.8-4.3c-0.5-0.6-1-1.3-1.5-1.9c-0.7-0.8-1.4-1.7-2-2.5c-0.2-0.2-0.3-0.3-0.5-0.5
	c-0.8-0.7-1.7-1.4-2.5-2c-0.2-0.2-0.3-0.3-0.5-0.5c-1.9-0.9-3.8-1.9-5.7-2.8c-0.6-0.2-1.2-0.4-1.8-0.6c-3.3-0.8-6.6-1.5-10-0.5
	c-1,0.2-2,0.4-3,0.5c-1.7,0.8-3.4,1.6-5.1,2.3c-0.3,0.2-0.6,0.3-0.9,0.5c-0.2,0.1-0.3,0.1-0.5,0.2c-0.2,0.1-0.4,0.3-0.6,0.4
	C104.8,94,104.1,94.6,103.5,95.2z"/>
</svg>
