<?xml version="1.0" encoding="utf-8"?>
<!-- Generator: Adobe Illustrator 27.6.1, SVG Export Plug-In . SVG Version: 6.00 Build 0)  -->
<svg version="1.1" id="Layer_1" xmlns="http://www.w3.org/2000/svg" xmlns:xlink="http://www.w3.org/1999/xlink" x="0px" y="0px"
	 width="425.7px" height="415px" viewBox="0 0 425.7 415" style="enable-background:new 0 0 425.7 415;" xml:space="preserve">
<style type="text/css">
	.st0{fill:#00B200;}
	.st1{fill:#62A6EF;}
	.st2{fill:#97C4F3;}
	.st3{fill:#5EA3EE;}
	.st4{fill:#E5F2FC;}
</style>
<path class="st0" d="M170.8,241.8c0.7,0,0.4,0.6,0.5,1c-0.6,0-0.5,0.4-0.4,1c0.3,0,0.6,0,0.9,0c0,0.5,0.6,0.7,0.5,1.3
	c-0.1,1.8-0.1,3.6,0,5.4c0,0.6-0.6,0.8-0.5,1.3c-0.3,0.1-0.7-0.1-1,0.3c0.2,0.2-0.2,0.7,0.5,0.7c0,0.3,0,0.7,0,1
	c-0.3,0-0.5,0.2-0.5,0.5c-0.3,0-0.6,0-1,0c0,0.6,0,1,0,1.5c-0.5,0-0.9,0-1.5,0c0,0.6,0,1,0,1.5c-1.4,1.8-3.1,3.1-5.5,3
	c-0.3,0-0.7,0-1,0c-0.4-0.9-1-0.4-1.5-0.3c0,0.5,0,0.9,0,1.3c-23.1,0-46.1,0-69.2,0c-0.7,0-1.5-0.1-2.2,0c-0.8,0.1-1.3-0.8-2-0.5
	c0-0.5-0.3-0.5-0.6-0.5c-1.3,0-2.6,0-3.9,0c-1.6-1-1.8-1-3.5-0.7c0,0.2,0,0.5,0,0.7c-0.9-0.3-1.6,0.6-2.5,0.5c0-0.6,0-1.3,0-1.7
	c-0.7-0.8-1.3-1.3-2-0.3c-0.5,0-1,0-1.5,0c0-0.2,0-0.5,0-0.7c-1-0.9-2.5-0.6-3.6-1.2c-0.2-0.1-0.4,0.2-0.4,0.5c-0.5,0-0.9,0-1.4,0
	c-0.3,0-0.6-0.1-0.6-0.5c0-0.3,0-0.6,0-1c-0.4,0-0.7,0-1,0c-0.5,0-1,0-1.5,0c0-0.2,0-0.5,0-0.9c-1.7-0.3-3.2-1-4.8-1.7
	c-0.1,0.3-0.2,0.4-0.2,0.6c-0.4-0.1-1,0.2-1-0.5c0-0.3,0-0.6,0-1c-0.6,0-1,0-1.5,0c-0.5-0.2-1.3,0.5-1.5-0.5c0-0.3,0-0.6,0-1
	c-0.6,0-1,0-1.5,0c0-0.2,0-0.5,0-0.9c-0.8-0.3-1.7-0.6-2.5-0.9c-0.1-0.2,0.1-0.5-0.3-0.8c-0.2,0.1-0.7-0.2-0.7,0.5
	c-0.8,0.1-1.3-0.2-1.5-1c0-0.2,0-0.5,0-0.9c-0.5,0-1-0.2-1.3-0.7c-0.4-0.7-1.1-0.4-1.7-0.5c-0.2-1.4-0.3-1.5-2-1.5
	c-0.5,0-0.5-0.3-0.5-0.6c0-0.2-0.2-0.4-0.5-0.4c-0.2-1.4-0.3-1.5-2-1.5c-0.3,0-0.5-0.2-0.5-0.5c0.2-1.4-1.2-1.6-1.7-2.5
	c-0.5,0-0.9,0-1.3,0c-0.9-0.5-1.5-1.1-2-2c0-0.5,0-0.9,0-1.5c-0.4,0-0.7,0-1,0c-0.3-1.3-0.7-1.7-2-2c-0.5-0.1-0.9-0.5-1-1
	c0-0.5,0-0.9,0-1.5c-0.6,0-1,0-1.5,0c0-0.2,0-0.3,0-0.5c0-1.7-0.1-1.8-1.5-2c-0.8-0.2-1.1-0.7-1-1.5c0-1.7-0.1-1.8-1.5-2
	c0-0.5,0-0.9,0-1.5c-0.4,0-0.7,0-1,0c0.1-1.5-0.8-2.6-1.6-3.8c-0.2-0.4-0.6-0.1-0.9-0.2c0-0.2,0-0.3,0-0.5c0-0.6,0-1.2,0-1.9
	c-1.1-0.3-0.9-1.3-1.1-2.1c-0.6,0-1,0-1.4,0c-0.1-0.3,0.2-0.7-0.2-0.9c-0.4-0.3-0.3-0.7-0.3-1.1c0.9-0.4,0.7-1.1,0.2-1.5
	c-0.7-0.6-0.6-1.4-0.9-2c-0.3,0-0.6,0-0.8,0c-0.1-0.1-0.4-0.1-0.4-0.2c0.1-1-0.6-1.8-0.6-2.8c0.9-0.4,0.4-1,0.3-1.5
	c-0.3,0-0.5,0-0.8,0c-1-0.2-0.3-1-0.5-1.5c1.1-0.4,0.3-1.2,0.4-1.8c-0.6-1.1-1.6-0.7-2.4-0.7c0-0.3,0-0.7,0-1c0.5-0.1,1,0.1,1.6-0.3
	c-0.4-1.9-0.8-4-0.5-5.9c-0.7-1.2-1.7-0.8-2.5-0.8c0.1-0.5-0.2-1,0.2-1.5c0.2,0.1,0.3,0.3,0.5,0.4c0.1-0.1,0.2-0.2,0.3-0.3
	c0.2-1.1-0.3-2-0.5-3c-0.2-0.9,0.3-1.9-0.4-2.8c-0.2-0.3-0.1-1-0.1-1.4c0-2.1-0.1-4.2,0-6.2c0.1-1.6,0.6-3.1,0.5-4.8
	c0-1.4-1-2.6-0.4-4.2c0.3-0.3,0.8-0.8,1.2-1.2c0.4-0.7-0.2-1.6,0.6-2.1c-0.1-1.3,0.8-2.4,0.6-3.8c-0.1-0.3,0-0.7,0.1-0.9
	c0.6-0.9,1-1.8,0.9-2.9c1-0.5,0.1-1.7,0.8-2.4c0.5-0.6,0.9-1.5,0.7-2.4c1-0.9,1.1-2.2,1.7-3.3c0.4-0.7,1-1.4,0.8-2.4
	c-0.1-0.8,0.8-1,1-1.6c0.6-1.4,1.3-2.8,2-4.2c0.6-1.3,1.7-2.4,2.2-3.8c0.2-0.4,0.6-0.7,1.1-0.6c1-2.2,2-4.2,3.8-5.8
	c1-0.9,1.5-2.1,2.4-3c0.9-0.9,2.1-1.6,2.5-2.9c2.8-1.4,4.5-4.2,6.9-6.1c2.7-2.1,5.3-4.3,8.3-6c2.2-1.3,4.2-2.9,6.7-3.6
	c0.9-0.3,1.7-0.8,2.5-1.3c1.7-1,3.6-1.4,5.4-2.2c0.6-0.2,0.9-0.6,1.5-1.1c1.2,0.3,2.4-0.1,3.5-0.7c1.5-0.7,2.9-1.6,4.7-1.3
	c2.3-1.4,4.8-0.9,7.2-1c0.4-0.4,0.7-0.7,1-1c6.5,0,12.9,0,19.6,0c0.2-0.3,0.4-0.6,0.5-0.7c1.3-0.8,2.1-0.1,3.2,0.3
	c0-1.1,0-2.1,0-3.1c0-1.1-0.3-2.5,0.2-3.4c0.5-1-0.3-2.2,0.8-2.9c0-1.1,0-2.2,0-3.2c0.3-0.1,0.7,0.1,0.9-0.2c0-0.5,0.5-1.1-0.4-1.3
	c0-0.2,0-0.3,0-0.5c0.3-0.1,0.7,0.2,1-0.3c0.1-1.3-0.2-2.8,0.5-4.1c0.1-0.3,0-0.7-0.5-0.6c0-0.5,0-1,0-1.5c0.7,0.2,1.1-0.2,1.5-0.8
	c0-0.8,0-1.7,0-2.4c1.1-1.3,1-2.8,1.5-4.2c0.1-0.3,0-0.7-0.5-0.6c0-0.2,0-0.3,0-0.5c0.9,0.1,1.4-0.3,1.5-1.2
	c0.1-0.5,0.1-0.9,0.3-1.4c0.8-2.4,1.9-4.7,3.1-7c0.5-1,0.8-1.9,0.7-3c0.3-0.1,0.7,0.1,1-0.3c-0.2-0.2,0.2-0.7-0.5-0.7
	c0.1-0.4-0.2-1,0.5-1c0.7,0.2,1.4-0.3,1.4-0.7c-0.2-1.2,1-1.6,1.2-2.3c-0.1-0.4-0.2-0.6-0.5-0.5c0.1-0.4-0.2-1,0.5-1
	c1.5,0.2,1.4-1.1,1.6-2c0.4-0.1,0.7,0,0.9-0.4c0-0.4,0-0.8,0-1.2c0.3,0,0.6,0,1,0c0-0.6,0-1,0-1.5c1.4-0.2,1.5-0.3,1.5-2
	c0.5,0.1,1.1,0,1.2-0.5c0.4-1.2,1.5-1.8,2.3-2.8c0-0.4,0-0.8,0-1.2c0.5-0.5,1-1,1.5-1.5c1.1-0.1,1.4-0.4,1.5-1.5
	c1.4-0.3,2.2-1.1,2.5-2.5c1.4-0.3,2.2-1.1,2.5-2.5c0.3,0,0.6,0,1,0c0-0.4,0-0.7,0-1c0.3-1.1,1.4-1.2,2-2c0.5,0,0.9,0,1.5,0
	c0-0.4,0-0.7,0-1c0.7-1.2,1.7-2,3-2.5c0.5,0,0.9,0,1.5,0c0-0.4,0-0.7,0-1c0.3,0,0.5-0.2,0.5-0.5c0.2-0.8,1.1-0.5,1.5-1
	c0.5,0,0.9,0,1.5,0c0-0.4,0-0.7,0-1c0-0.7,0.6-0.4,1-0.5c0.5,0,0.9,0,1.5,0c0-0.4,0-0.7,0-1c1.7-1.2,3.4-2.5,5.5-3
	c0.3,0,0.5-0.2,0.5-0.5c0.6-0.1,0.8-0.7,1.3-1c0.4,0,0.8,0,1.2,0c0,0.6,0.4,0.5,0.8,0.4c0.3-0.3,0.1-0.6,0.2-0.9c0.2,0,0.3,0,0.5,0
	c0.5,0,0.9,0,1.5,0c0-0.4,0-0.7,0-1c0.3,0,0.5-0.2,0.5-0.5c0.9,0.3,1.6-0.6,2.5-0.5c0,0.6,0.4,0.5,0.8,0.4c0.3-0.3,0.1-0.6,0.2-0.9
	c0.3,0,0.7,0,1,0c0.5,0,0.9,0,1.5,0c0-0.4,0-0.7,0-1c1.2-0.3,2.3-0.7,3.5-1c0.4,0.9,1,0.4,1.5,0.3c0-0.3,0-0.5,0-0.8
	c0-0.4,0.2-0.5,0.6-0.5c0.5,0,0.9,0,1.4,0c0.1,0.8,0.8,0.6,1.1,0.5c0.7-0.2,1-0.7,0.9-1.5c1.4,0.4,2.6-0.6,4-0.5
	c-0.1,0.3,0.1,0.5,0.4,0.5c1.1,0,2.3,0,3.4,0c0.5-0.4,0.9-0.8,0.8-1.5c1.7,0,3.3,0,5,0c0.1,0.1,0.1,0.4,0.2,0.4
	c1.9,0,3.8,0.1,5.7,0.1c0.3,0,0.5,0,0.6-0.3c0-0.2,0-0.5,0-0.7c0.8,0,1.7,0,2.5,0c0.1,0.3-0.2,0.7,0.2,0.9c2.9,0,5.8,0,8.7,0
	c0.1,0,0.1-0.1,0.2-0.2c0-0.3,0-0.5,0-0.8c0.4,0,0.7,0,1.1-0.3c0.5-0.3,1.1-0.6,1.4,0.3c0,0.7-0.1,1.5,1,2.1c1.8-0.6,3.9,0.4,6,0.4
	c0-0.6,0-1.1,0-1.5c0.5,0,1,0,1.5,0c0.1,0.8-0.3,1.8,0.8,2.5c0.7,0,1.6,0,2.7,0c0.2,0.3,0.5,0.7,0.7,1.1c0.5-0.2,1.2,0.3,1.3-0.6
	c2.7,0.7,5.3,1.6,7.9,2.6c1.6,0.6,3,1.6,4.6,1.9c0,0.3,0.2,0.5,0.5,0.5c1.8,0.5,3.2,1.8,5,2.2c0.9,0.2,0.8,1.4,1.7,1.3
	c0.9-0.1,1.1,1,1.8,1c0,0.3,0,0.6,0,1c0.6,0,1,0,1.5,0c0.2,0,0.3,0,0.5,0c0,0.3,0.2,0.5,0.5,0.5c0.5,0.3,1,0.7,1.5,1
	c0,0.3,0.2,0.5,0.5,0.5c1.7,0.6,3.1,1.9,4.5,3c0,0.3,0.2,0.5,0.5,0.5c2.3,1,3.5,3.2,5.5,4.5c0,0.3,0.2,0.5,0.5,0.5
	c0.1,0.5,0.5,0.9,0.9,1c0.7,0.1,1.1,0.6,1.3,1c0.7,1.4,2,2.3,3,3.5c2.1,2.3,4.1,4.6,5.8,7.2c0.9,1.4,2.2,2.7,2.9,4.3
	c0,0.5,0,0.9,0,1.5c0.4,0,0.7,0,1,0c0.8,1.2,1.5,2.4,2.4,3.6c0.2,0.3,0.1,0.6,0.1,0.9c0,0.5,0,0.9,0,1.5c0.4,0,0.7,0,1,0
	c0.1,0.5,0.7,0.9,0.5,1.5c0,0.5,0,0.9,0,1.5c0.4,0,0.7,0,1,0c0,0.2,0,0.3,0,0.5c0,0.5,0,0.9,0,1.5c0.4,0,0.7,0,1,0
	c1.2,3.2,2.7,6.2,3.5,9.5c-0.6,0-0.5,0.4-0.4,1c0.3,0,0.6,0,0.9,0c0.1,0.5-0.2,1,0.2,1.4c0.9,1.2,0.9,2.7,1.3,4.1
	c-0.5,0.6-0.5,0.6,0.2,1.5c0.6-0.1,1.2,0.2,1.8-0.3c0-0.3,0-0.5,0-0.7c0.3,0,0.7,0,1,0c1.4,0.2,2.6-0.7,4-0.6c0-0.4,0-0.7,0-0.9
	c0.7,0,1.3,0,2,0c1,0,1.9,0,2.5,0c1.4-0.7,0.9-1.7,1-2.5c0.6,0.5,1.3,0.6,2,0.5c0.1,0.3-0.2,0.7,0.3,1c2.1-0.2,4.3-0.7,6.5-0.6
	c0.1,0,0.1-0.1,0.2-0.1c0-0.3,0-0.5,0-0.8c5.5,0,11,0,16.5,0c0.1,0.3-0.2,0.7,0.2,0.9c0.1,0,0.2,0.1,0.2,0.1
	c0.5-0.2,1.3,0.5,1.6-0.5c0.8,0,1.7,0,2.5,0c0.1,0.3-0.2,0.7,0.1,0.9c1,0,2,0,2.9,0c0-0.4,0-0.6,0-0.9c0.2-1,1-0.3,1.5-0.5
	c0.1,0.9-0.3,1.8,0.7,2.4c0.6-0.2,1.4,0.6,1.8-0.4c1.1-0.3,1.9,0.8,3,0.5c0.1,0.3-0.1,0.7,0.3,1c0.2-0.2,0.7,0.2,0.7-0.5
	c0.5,0.1,1,0.1,1.6,0.3c1.8,0.6,3.6,1.2,5.4,1.7c0.1,0.3-0.1,0.7,0.3,1c0.2-0.2,0.7,0.2,0.7-0.5c1.1,0.1,2,0.6,3,1c0,0.3,0,0.6,0,1
	c0.6,0,1,0,1.5,0c0.3,0,0.7,0,1,0c0,0.3,0.2,0.5,0.5,0.5c1.6,0.4,3.1,1.1,4.5,2c0,0.3,0,0.6,0,1c0.6,0,1,0,1.5,0
	c1,0,1.8,0.5,2.4,1.2c0.3,0.4,0.7,0.3,1.1,0.3c0,0.3,0.2,0.5,0.5,0.5c0.3,0.2,0.7,0.3,1,0.5c0,0.3,0.2,0.5,0.5,0.5
	c0.1,0.3-0.1,0.7,0.3,1c0.2-0.2,0.7,0.2,0.7-0.5c0.3,0.2,0.7,0.3,1,0.5c0,0.3,0.2,0.5,0.5,0.5c1,0.7,2,1.3,3,2
	c0,0.3,0.2,0.5,0.5,0.5c2.2,1.5,4.2,3.2,6.2,4.9c2.4,2,4.6,4.2,6.7,6.4c2,2.2,4,4.3,5.6,6.9c0.8,1.3,2.1,2.1,2.6,3.6
	c0.5,1.3,1.6,2.3,2.4,3.5c1.2,1.8,2.2,3.8,3.3,5.6c1.1,1.7,2.3,3.5,2.6,5.6c1,0.9,1,2.4,1.8,3.5c0.2,0.3,0.1,0.6,0.2,0.9
	c-0.6,0-0.5,0.4-0.4,1c0.3,0,0.6,0,0.9,0c0,0.3,0,0.7,0,1c0,0.5,0,0.9,0,1.5c0.4,0,0.7,0,1,0c0.3,1.5,0.7,3,1,4.5
	c-0.6,0-0.5,0.4-0.4,1c0.3,0,0.6,0,0.9,0c-0.3,0.9,0.3,1.7,0.6,2.5c0.5,1.7,1,3.3,1,5c0,1,0.8,1.9,0.5,3c-0.6,0.9-0.6,0.9,0.3,2
	c0.6,0,1.1,0,1.7,0c0,0.3,0.1,0.7,0,1c-0.2,0.8-1,1.4-1,2.3c0,0.8,0.7,1.4,0.5,2.2c-0.3,0.1-0.7-0.2-1,0.3c0,4.1,0,8.4,0,12.6
	c0,0.3,0,0.7,0.5,0.6c0,1.4,0,2.9,0,4.4c0.3,0.1,0.5,0.1,0.8,0.2c0.1,0.5,0.6,1.1-0.3,1.5c-0.4,0-0.8,0-1.4,0c0.4,0.8-0.6,1-0.6,1.9
	c0.1,1.6,0.2,3.2-0.4,4.7c0,0.1,0.2,0.2,0.3,0.4c0.4,0,0.8,0,1.2,0c1.1,0.3,1,1.1,1,2c-1.1,0-2.3,0-3.5,0c0,1,0,1.9,0,2.7
	c-0.4,0.4-0.7,0.7-1.1,1.1c0.4,1.2-0.5,2.3-0.5,3.7c0.7,0,1.4,0,2,0c-0.1,0.4,0.2,1-0.5,1c-0.6,0-1.3,0-1.7,0
	c-0.8,0.7-1.1,1.3-0.5,2c0.4,0,0.8,0,1.2,0c0,0.2,0,0.3,0,0.5c-0.6,0-1.3,0-1.9,0c-0.5,1.2-1.4,2.2-0.9,3.5c0.5,0,0.9,0,1.4,0
	c0,0.2,0,0.3,0,0.5c-0.8,0-1.6,0-2.5,0c0,0.9,0,1.7,0,2.5c-0.8,1.5-1.6,3-2.4,4.5c-0.8,1.4-1.8,2.8-2.4,4.2
	c-0.5,1.4-1.5,2.3-2.2,3.5c-0.7,1.2-1.4,2.4-2.4,3.5c-0.6,0.7-1.1,1.5-1.6,2.3c-0.3,0-0.5,0.2-0.5,0.5c-0.9,1.7-2.4,2.8-3.4,4.3
	c-1.6,2.1-3.5,3.8-5.3,5.7c-0.2,0.2-0.3,0.6-0.8,0.5c-0.5,0-0.9,0-1.5,0c0,0.4,0,0.7,0,1c-0.3,0-0.6,0-1,0c0,0.4,0,0.7,0,1
	c-0.3-0.1-0.5,0.1-0.5,0.4c-0.1,0.6-0.4,1-1,1.1c-0.5,0-0.9,0-1.5,0c0,0.4,0,0.7,0,1c-0.6,1.5-2,2.1-3.2,2.8
	c-1.1,0.7-2.1,1.6-3.2,2.3c-1.2,0.8-2.6,1.2-3.5,2.4c-0.1,0.1-0.5,0-0.7,0c0-0.6-0.4-0.5-1-0.4c0,0.3,0,0.6,0,0.9
	c-1.1,0.8-2.1,1.7-3.5,2c0-0.6-0.4-0.5-1-0.4c0,0.3,0,0.6,0,0.9c0,0.8-1.1,0.3-1.2,0.9c-0.9-0.1-1.4,0.7-2.1,0.9
	c-0.7,0.3-1.3,0.4-1.8,0.9c-0.4,0.4-0.9,0.1-1.4,0.2c0-0.6-0.5-0.6-0.8-0.4c-0.5,0.3-0.8,0.7-0.7,1.4c-0.2,0-0.3,0-0.5,0
	c-0.1-0.8-1-0.6-1.1-0.5c-0.5,0.7-1.4,0.2-1.9,0.7c0,0.3,0,0.5,0,0.8c-0.4,0-0.8-0.1-1.1,0.3c-0.2,0.3-0.6,0.1-0.9,0.2
	c0-0.6-0.5-0.6-0.8-0.4c-0.5,0.3-0.8,0.7-0.7,1.4c-0.5,0-1,0-1.5,0c0.1-0.3-0.3-0.6-0.4-0.5c-0.9,0.8-2.2,0.2-3.1,0.6
	c0,0.4,0,0.6,0,0.9c-0.9-0.1-1.6,0.8-2.5,0.5c-0.4-0.9-1-0.4-1.5-0.3c0,0.3,0,0.5,0,0.8c-1.5-0.2-2.9,0.9-4.5,0.5
	c0.1-0.3-0.2-0.6-0.4-0.5c-1.3,0.7-2.7,0.4-4,0.5c-1.2,0.1-2.4-0.1-3.6,0.1c0,0.4,0,0.7,0,0.9c-0.9,0.7-2,0.5-3,0.5
	c-0.1-0.5,0.1-1-0.2-1.5c-0.2,0-0.4,0-0.8,0c0,0.5,0,1,0,1.5c-19.2,0-38.3,0-57.5,0c0-0.3,0-0.6,0-1c-0.4,0-0.7,0-1,0
	c-1.1,0.4-2-0.5-3-0.5c0-0.5,0-0.9,0-1.5c-0.6,0-1,0-1.5,0c-0.3-1.4-1.1-2.2-2.5-2.5c-1.1-0.5-1.3-1.5-1.5-2.5
	c0.6,0,0.6-0.5,0.4-0.8c-0.3-0.5-0.7-0.8-1.4-0.7c-0.2-0.3-0.3-0.7-0.5-1c0.3-0.1,0.7,0.2,1-0.3c-0.2-0.3,0.3-0.8-0.3-1.2
	c-0.2,0-0.5,0-0.7,0c0-0.5,0-1,0-1.5s0-1,0-1.5c0.3-0.1,0.7,0.2,0.9-0.2c0-0.1,0.1-0.2,0.1-0.2c-0.2-0.5,0.5-1.3-0.5-1.6
	c0-0.2,0-0.3,0-0.5c0.2,0,0.5,0,0.7,0c0.2-0.3,1.4-2.1,0.3-2c0.2-0.3,0.3-0.7,0.5-1c0.3-0.1,0.6,0.1,0.9-0.2
	c0.8-0.8,1.6-1.6,2.4-2.4c0.3-0.3,0.1-0.6,0.2-0.9c0.5,0,0.9,0,1.5,0c0-0.6,0-1,0-1.5c0.6,0.2,1-0.4,1.5-0.5c0.8,0,1.7,0,2.5,0
	c0,0.6,0.4,0.5,0.8,0.4c0.3-0.5,0.1-1,0.2-1.4c19.5,0,39,0,58.5,0c0,0.5,0.3,0.5,0.6,0.5c0.8,0,1.6,0,2.4,0c0.9,0,1.9,0,2.4,0
	c1-0.4,1.1-0.9,1.1-1.5c1.7,0,3.3,0,5,0c0.6,0,1.2,0,2,0c0-0.4,0-0.7,0-1c0.7,0,1.3,0,2,0c0.5,0,0.9,0,1.5,0c0-0.4,0-0.7,0-1
	c0.7,0,1.5,0.1,1.9-0.7c0.3-0.4,0.7-0.3,1.1-0.3c0,0.6,0.4,0.5,1,0.4c0-0.3,0-0.6,0-0.9c0.3,0,0.7,0,1,0c0.5,0,0.9,0,1.5,0
	c0-0.4,0-0.7,0-1c0.5,0,0.7-0.4,0.9-0.7c0.3-0.4,0.7-0.3,1.1-0.3c0,0.6,0.4,0.5,1,0.4c0-0.3,0-0.6,0-0.9c0.2,0,0.3,0,0.5,0
	c0.5,0,0.9,0,1.5,0c0-0.4,0-0.7,0-1c1.7-1,3.3-2,5-3c0.5,0,0.9,0,1.5,0c0-0.4,0-0.7,0-1c0.7-1.2,2-1.6,3-2.5c0.5,0,0.9,0,1.5,0
	c0-0.4,0-0.7,0-1c1.1-1.5,2.5-2.9,4-4c0.5,0,0.9,0,1.5,0c0-0.6,0-1,0-1.5c0.1-0.5,0.5-0.9,1-1c0.3,0,0.6,0,1,0c0-0.4,0-0.7,0-1
	c0.8-0.9,1-2.3,2.4-2.7c0.3-0.4-0.4-1.2,0.6-1.3c0.3,0,0.6,0,1,0c0-0.6,0-1,0-1.5c0-0.3,0.2-0.5,0.5-0.5c0.3,0,0.6,0,1,0
	c0-0.6,0-1,0-1.5c0.3,0,0.6,0,1,0c0-0.6,0-1,0-1.5c0.2-1.1,0.2-1.1,1.5-1.8c0-0.2,0-0.5,0-0.7c0.3-0.1,0.7,0.1,1-0.3
	c-0.2-0.2,0.2-0.7-0.5-0.7c-0.1-1,0.7-1.6,1-2.5c0.2,0,0.5,0,0.9,0c-0.1-0.9,0.7-1.2,1.1-1.8c0-0.8,0-1.5,0-2.2c0-0.3,0-0.7,0-1
	c1.4-0.2,1.5-0.3,1.5-2c0-0.5,0-1,0-1.5c0.3-0.1,0.7,0.1,1-0.3c0-0.9-0.2-1.9,0.5-2.9c0.1-0.1-0.2-0.4-0.5-0.4c0-0.7,0-1.3,0-2
	c0.7,0.2,1.1-0.2,1.5-0.8c-0.3-0.6,0.5-1.6-0.5-2.2c0-0.5,0-1,0-1.5c0.2,0,0.5,0,0.8,0c0.5-0.5,0.3-1.3,0.7-2
	c0.4-0.6,0.1-1.6,0.1-2.4c0-2.9,0-5.8,0-8.7c0-0.7,0.2-1.4,0.5-2c-1.2-1.5,0.3-3.6-1.4-5c-0.1,0-0.4,0-0.6,0c0-0.5,0-1,0-1.5
	c1-0.6,0.2-1.6,0.5-2.1c-0.4-0.8-0.8-1-1.5-0.9c0-0.7,0-1.3,0-2c0.5,0,0.6-0.3,0.5-0.6c-0.4-1.1-0.3-2.3-1-3.3
	c-0.4-0.7-0.7-1.5-0.5-2.3c-0.4-0.5-0.8-1-1.5-0.8c0-0.3,0-0.7,0-1c0-0.7,0-1.5,0-2.2c-0.5-0.5-1-0.9-1.1-1.8c0-0.7-0.7-1-1.4-0.9
	c0-0.2,0-0.3,0-0.5c0-0.6,0-1.2,0-2c-0.4,0-0.7,0-1,0c0-0.5,0-0.9,0-1.5c-0.4,0-0.7,0-1,0c0-0.6,0-1.2,0-1.7
	c-0.5-0.6-0.9-0.9-1.5-0.8c-0.8-0.9-1.6-1.9-2-3c0-0.5,0-0.9,0-1.5c-0.4,0-0.7,0-1,0c0.1-0.3-0.1-0.5-0.4-0.5c-0.3,0-0.7,0-0.6-0.5
	c0-0.5,0-0.9,0-1.5c-0.4,0-0.7,0-1,0c-1-0.6-1.9-1.5-2.5-2.5c0-0.5,0-0.9,0-1.5c-0.4,0-0.7,0-1,0c0-0.3,0-0.6,0-1c-0.6,0-1,0-1.5,0
	c0-0.5,0-0.9,0-1.5c-0.6,0-1,0-1.5,0c-0.9-0.3-1.4-1.1-2-1.8c-0.7-0.7-1.5-1.4-2.5-1.7c0-0.5,0-0.9,0-1.5c-0.6,0-1,0-1.5,0
	c0-0.3,0-0.6,0-1c-0.6,0-1,0-1.5,0c-0.8-0.5-1.7-1-2.5-1.5c0-0.2,0-0.5,0-0.7c-0.2-0.5-0.9-0.1-1.2-0.7c-0.1-0.2-0.3,0.2-0.3,0.4
	c-0.2,0-0.3,0-0.5,0c0.2-0.7-0.2-1.1-0.7-1.4c-0.3-0.2-0.8-0.2-0.8,0.4c-0.4-0.1-1,0.2-1-0.5c0-0.2,0-0.5,0-0.9
	c-1.2-0.4-2.5-0.8-3.5-1.6c-0.1-0.1-0.3,0-0.5,0c-0.5,0-1,0-1.5,0c0-0.2,0-0.5,0-0.8c-0.7-0.2-1.5-0.3-2.1-0.8
	c-0.7-0.6-1.7-0.3-2.3-0.9c-0.2-0.2-0.6,0-0.6,0.5c-0.5,0-1,0-1.5,0c0.2-0.7-0.2-1.1-0.8-1.5c-0.6,0.4-1.6-0.5-2.2,0.5
	c-0.9,0.3-1.6-0.6-2.5-0.5c-0.1-0.3,0.2-0.7-0.2-1c-1.1-0.2-2.3,0.2-3.4-0.5c-0.3-0.1-1.2-0.5-1.3,0.5c-5.5,0-11,0-16.5,0
	c-0.1-0.1-0.1-0.3-0.2-0.4c-0.7-0.4-1,0.6-1.7,0.5c-0.7-0.1-1.4-0.3-2.1,0.2c0,0.3,0,0.5,0,0.8c-1.2-0.4-2.3,0.7-3.5,0.5
	c0-0.6-0.4-0.5-1-0.4c0,0.3,0,0.6,0,0.9c-0.9-0.2-1.7,0.3-2.4,0.7c-0.4,0.2-0.7,0.3-1.1,0.3c0-0.6-0.4-0.5-1-0.4c0,0.3,0,0.6,0,0.9
	c-0.1,0.1-0.3,0.1-0.4,0.2c-0.7,0.8-1.9-0.1-2.6,1c-0.5,0.6-1.9,0.6-2.8,1c-0.8,0.4-1.6,1-2.4,1.4c-0.3,0.2-0.8,0-1.2,0
	c-0.3,0-0.6,0-1,0c0,0.4,0,0.7,0,1c-0.5,0.7-1.1,1-2,1c0-0.6-0.4-0.5-1-0.4c0,0.3,0,0.6,0,0.9c-0.6,0.5-1.3,0.6-2,0.5
	c0-0.5-0.4-0.6-0.6-0.5c-0.8,0.7-1.8,0.4-2.7,0.5c-1.1,0.1-2-0.9-3.2-0.5c-0.5,0-1,0-1.5,0c-0.1-0.3,0.1-0.7-0.3-1
	c-0.2,0.2-0.7-0.2-0.7,0.5c-0.4-0.1-1,0.2-1-0.5c0-0.3,0-0.6,0-1c-0.4,0-0.7,0-1,0c-0.4-0.5-1.3-0.2-1.5-1c0-1.7-0.1-1.8-1.5-2
	c-0.7,0-0.4-0.6-0.5-1c0.6,0,0.6-0.5,0.4-0.8c-0.3-0.5-0.7-0.8-1.4-0.7c0-0.2,0-0.3,0-0.5c0.8-0.1,0.6-0.8,0.5-1.1
	c-0.4-1.1-0.5-2.3-0.6-3.4c-0.4,0-0.7,0-0.9,0c0-1.5,0-3,0-4.5c0.9-0.6,0.4-1.3,0.4-2c-0.4,0-0.7,0-0.9,0c0-0.2,0-0.3,0-0.5
	c0.3,0.1,0.5-0.1,0.5-0.4c0-1.1,0-2.3,0-3.4c-0.4-0.5-0.8-0.9-1.5-0.8c0-0.7,0-1.3,0-2c1.2,0,0-2-0.2-2.5c-0.3,0-0.6,0-0.8,0
	c0-0.4,0.1-0.8-0.3-1.1c-0.3-0.2-0.1-0.6-0.2-0.9c1.1-0.4,0.3-1.2,0.4-1.7c-0.3-0.7-0.8-0.9-1.4-0.8c0-0.2,0-0.3,0-0.5
	c0.8-0.1,0.6-0.8,0.5-1.1c-0.2-0.7-0.7-1-1.5-0.9c0-0.3,0-0.7,0-1c0-0.6,0-1.2,0-2c-0.4,0-0.7,0-1,0c0-0.6,0-1.2,0-1.4
	c-0.4-1-0.9-1.2-1.5-1.1c-0.1-0.5-0.7-0.9-0.5-1.5c0.3,0.1,0.4-0.1,0.5-0.5c-0.2-0.7-1.3-1-1.1-2c-0.6,0-1,0-1.4,0
	c0-0.4,0.1-0.8-0.3-1.1c-1-0.7-1.3-1.9-2.2-2.7c-0.1-0.1,0-0.5,0-0.7c0-1.7-0.1-1.8-1.5-2c-0.3,0-0.5-0.2-0.5-0.5
	c0-1.7-0.1-1.8-1.5-2c-2.3-2-4.5-4.2-6.5-6.5c0-0.3,0-0.6,0-1c-0.6,0-1,0-1.5,0c-0.3,0-0.5-0.2-0.5-0.5c-0.2-1.4-0.3-1.5-2-1.5
	c0.2-0.7-0.2-1.1-0.7-1.4c-0.3-0.2-0.8-0.2-0.8,0.4c-0.2,0-0.3,0-0.5,0c0-0.5,0-0.9,0-1.5c-0.6,0-1,0-1.5,0c0-0.3,0-0.6,0-1
	c-0.6,0-1,0-1.5,0c-0.2,0-0.3,0-0.5,0c-0.1-0.3,0.2-0.7-0.2-0.9c-1.2-0.8-2.3-1.7-3.8-1.6c-0.5-0.2-1.3,0.5-1.5-0.5
	c-0.1-0.3,0.1-0.7-0.3-1c-0.2,0.2-0.7-0.2-0.7,0.5c-0.4-0.1-1,0.2-1-0.5c0-0.3,0-0.6,0-1c-0.6,0-1,0-1.5,0c-1.9-0.6-3.9-0.7-5.6-1.8
	c-0.6-0.4-1.3-0.1-1.9-0.2c-0.1-0.3,0.1-0.7-0.3-1c-0.2,0.2-0.7-0.2-0.7,0.5c-0.7,0-1.3,0-2,0c0.2-0.7-0.2-1.1-0.7-1.5
	c-0.6,0.2-1.4-0.6-1.8,0.5c-0.7,0-1.3,0-2,0c0-0.2,0-0.5,0-0.8c-0.8-0.4-1.6-0.8-2.7-0.8c-5.3,0.1-10.6,0-15.9,0
	c-0.1,0-0.3,0.2-0.4,0.2c0,0.2,0,0.5,0,0.7c-1.5-0.2-2.9,0.9-4.5,0.5c0-0.6-0.5-0.6-0.8-0.4c-0.5,0.3-0.8,0.7-0.7,1.4
	c-1.4-0.4-2.6,0.6-4,0.5c-0.1-0.8-0.8-0.6-1.1-0.5c-0.7,0.2-1,0.7-0.9,1.5c-0.5,0-1,0-1.5,0c0-0.6-0.5-0.6-0.8-0.4
	c-0.5,0.3-0.8,0.7-0.7,1.4c-0.3,0.1-0.7-0.2-0.9,0.2c-0.3,0.4-0.7,0.3-1.1,0.3c0-0.6-0.4-0.5-1-0.4c0,0.3,0,0.6,0,0.9
	c-1.5,0.6-2.7,1.9-4.5,2c0-0.6-0.4-0.5-1-0.4c0,0.3,0,0.6,0,0.9c-0.5,0-0.9,0-1.5,0c0,0.4,0,0.7,0,1c-2.7,1.8-5.3,3.7-8,5.5
	c-1.7,0-1.8,0.1-2,1.5c-2,2.6-4.5,4.6-6.7,7c-2.8,3-5.2,6.4-7.2,10c-0.3,0.6-1,0.8-1.1,1.6c-0.3,0-0.6,0-1,0c0,0.6,0,1,0,1.5
	c-0.1,0.3,0,0.6-0.1,0.9c-1.5,3.1-3,6.2-3.9,9.6c-0.3,0.1-0.7-0.1-1,0.3c0.2,0.2-0.2,0.7,0.5,0.7c-0.8,2.6-1,5.4-2,8
	c-0.2,0.4,0,1,0,1.5c-0.3,0.1-0.6-0.1-1,0.3c0,0.9-0.2,1.9,0.5,2.7c0,2.7,0.1,5.3,0,8c-0.2,3,0.7,5.8,0.5,8.8c0,0.4,0.3,0.6,0.3,0.9
	c0.3,1.1,0.6,2.2,0.7,3.5c0.1,1.5,0.3,3.1,0.8,4.6c0.3,0.7,0.2,1.7,0.1,2.5c-0.2,1.5-0.3,3.3-1.1,4.5c-1.2,1.9-2.4,4.1-4.3,5.4
	c-0.5,0.4-1.1,0.8-1.9,0.9c-1,0.1-1.8,0.7-2.4,1.5c-1.3,0-2.6-0.1-3.9,0c-2.2,0.2-4.2-0.6-6.1-1.5c-2.7-1.2-5.3-2.5-8.1-3.3
	c-1.1-0.3-2.4-0.2-3.3-1.3c-2.2,0.4-4.4-0.8-6.7-0.5c-2.7-1.1-5.5-0.3-8.3-0.4c-0.9,0-1.8,0.5-2.8,0.4c-0.1-0.3,0.2-0.7-0.2-1
	c-0.7,0-1.5-0.2-2.3,0.1c0,0.4,0,0.6,0,0.9c-0.4,0-0.8-0.1-1.1,0.3c-0.2,0.3-0.6,0.1-0.9,0.2c-0.6-0.9-1.3-0.4-2-0.4
	c0,0.4,0,0.7,0,0.9c-1.6-0.1-3,0.9-4.5,1c-0.5,0-0.9,0-1.5,0c0,0.4,0,0.7,0,1c-0.3,0-0.7,0-1,0c-0.5,0-0.9,0-1.5,0c0,0.4,0,0.7,0,1
	c-1.9,0.5-3.6,1.4-5.2,2.5c-2.8,1.8-5.6,3.5-8.1,5.7c-2.3,2-4.7,3.9-6.3,6.6c-0.5,0.8-1.5,1.2-1.9,2.2c-0.3,0-0.5,0.2-0.5,0.5
	c-0.2,0.3-0.3,0.7-0.5,1c-0.3,0-0.5,0.2-0.5,0.5c-0.3,0.5-0.7,1-1,1.5c-0.3,0-0.6,0-1,0c0,0.6,0,1,0,1.5c-0.2,0.3-0.3,0.7-0.5,1
	c-0.3,0-0.6,0-1,0c0,0.6,0,1,0,1.5c0,0.2,0,0.3,0,0.5c-0.3,0-0.5,0.2-0.5,0.5c0.2,0.8-0.4,1.3-0.7,1.9c-0.2,0.4-0.3,0.7-0.3,1.1
	c-0.3,0-0.6,0-1,0c0,0.6,0,1,0,1.5c0,0.2,0,0.3,0,0.5c-0.3,0.1-0.7-0.1-0.9,0.2c0,0.5-0.5,1.1,0.4,1.3c-0.3,1.3-0.7,2.7-1,4
	c-0.3,0.1-0.7-0.1-0.9,0.2c0,0.5-0.5,1.1,0.4,1.3c0,1-0.9,1.9-0.5,3c-0.3,0.1-0.7-0.2-0.9,0.2c0,0.1-0.1,0.2-0.1,0.2
	c0.2,0.7-0.6,1.6,0.5,2.1c0,3.8,0,7.7,0,11.5c-0.3-0.1-0.5,0.1-0.5,0.4c0,0.7-0.2,1.5,0.2,2.1c0.3,0,0.5,0,0.8,0
	c-0.4,1.1,0.5,2,0.5,3c-0.9,0.4-0.4,1-0.3,1.5c0.3,0,0.5,0,0.8,0c-0.2,1.1,0.4,2,0.7,2.9c0.2,0.6,0.2,1.1,0.3,1.6
	c-0.6,0-0.5,0.4-0.4,1c0.3,0,0.6,0,0.9,0c0,0.2-0.1,0.4,0,0.5c1,1.8,1.7,3.8,2.6,5.6c1.1,2.2,2.6,4.2,4.1,6.3
	c1.6,2.3,3.3,4.6,5.4,6.5c0.3,1.2,1.6,1.4,2.2,2.3c0.7,0.9,1.5,1.5,2.4,1.9c0.5,0.2,0.8,0.8,0.9,1.4c0.4,0,0.8,0.1,1.2,0.1
	c1,1.6,2.7,2.4,4.2,3.4c1.5,1,3.2,1.9,4.9,2.6c0,0.3,0,0.6,0,1c0.6,0,1,0,1.5,0c1.4-0.1,2.6,0.6,3.7,1.1c0.6,0.3,1.2,0.4,1.8,0.4
	c0.1,0.3-0.1,0.7,0.3,1c0.2-0.2,0.7,0.2,0.7-0.5c0.8,0,1.7,0,2.5,0c0,0.3,0,0.6,0,1c0.4,0,0.7,0,1,0c1.5,0,3,0,4.5,0
	c0.1,0.3-0.1,0.7,0.2,0.9c0.5,0,1.1,0.5,1.3-0.4c24.2,0,48.3,0,72.5,0c0.1,0.5-0.1,1,0.3,1.6c0.3-0.5,1.1,0.5,1.2-0.6
	c0.3,0,0.7,0,1,0c1,0,1.7,0.6,2.6,0.8c0.6,0.2,1.2,0.4,1,1.2c0.5,0,0.8,0,1.2,0c0.6,0.6,1.2,1.3,1.9,1.9c0.4,0.3,0.3,0.7,0.3,1.1
	c0,0.5,0,0.9,0,1.5C170.2,241.8,170.5,241.8,170.8,241.8z"/>
<path class="st0" d="M103.3,328.3c1.8,0,3.7,0,5.5,0c0.1,0.3-0.1,0.7,0.3,1c0.2-0.2,0.7,0.2,0.7-0.5c1.9,0.3,3.6,1.1,4.9,2.6
	c0.8,0.9,1.7,1.8,2.6,2.6c-0.2,1.6,1.7,2.2,1.5,3.8c-0.2,0.6-0.9,1.1-0.3,2c0.2,0,0.5,0,0.8,0c0,10.2,0,20.3,0,30.5
	c0,0.3,0.2,0.5,0.5,0.5c-0.3,0.9,0.6,1.6,0.5,2.5c-0.6,0-0.5,0.4-0.4,1c0.3,0,0.6,0,0.9,0c0,0.5,0,0.9,0,1.5c0.4,0,0.7,0,1,0
	c0.3-0.1,0.5,0.2,0.6,0.4c0.5,1.4,1.6,2.1,2.8,2.7c1.2,0.6,2.2,1.7,3.6,1.9c0.1,0.3-0.1,0.7,0.3,1c0.2-0.2,0.7,0.2,0.7-0.5
	c0.2,0,0.3,0,0.5,0c53.7,0,107.3,0,161,0c0.1,0.1,0.1,0.4,0.2,0.4c1.6,0,3.1,0.1,4.7,0.1c0.3,0,0.5,0,0.6-0.3c0-0.2,0-0.5,0-0.7
	c0.9-0.3,1.5-1.1,2.5-1c0.5,0,0.9,0,1.5,0c0-0.4,0-0.7,0-1c0.6-1,1.5-1.9,2.5-2.5c0.7,0.2,1.3-0.2,1.4-0.7c0.2-0.7,0.7-1.1,1-1.4
	c0.3-0.8,0.1-1.4,0.4-2c0.5-1.1,0.8-2.4,0.7-3.7c-0.1-8.9,0-17.7-0.1-26.6c0-1.6,0.9-3.1,0.5-4.8c0-0.1,0.1-0.1,0.2-0.2
	c0.3-0.2,0.6-0.5,0.8-0.8c0-0.6,0-1.2,0-1.8c1.4-0.2,1.5-0.3,1.5-2c0.1-0.5,0.5-0.9,1-1c0.5,0,0.9,0,1.5,0c0-0.4,0-0.7,0-1
	c0-0.7,0.6-0.4,1-0.5c1.3,0.1,2.3-0.7,3.5-0.6c0-0.4,0-0.7,0-0.9c2,0,4,0,6,0c0,0.3,0.2,0.5,0.5,0.5c1.9,0.3,3.6,1.1,4.9,2.6
	c0.6,0.7,1.4,1.2,1.9,1.9c0.9,1.4,1.9,2.8,2.3,4.5c-0.2,0.6-0.9,1.1-0.3,2c0.2,0,0.5,0,0.8,0c0,9.8,0,19.7,0,29.5
	c-0.3,0.1-0.7-0.2-1,0.3c0,0.7,0,1.5,0,2.3c0,0.3,0.2,0.4,0.5,0.4c0.1,2.1-0.2,4.2-1.3,6c-0.5,0.8,0,1.7-0.5,2.6
	c-0.8,1.5-1,3.3-2.2,4.6c-0.9,3.5-3.4,6-5.4,8.7c-1.2,1.7-2.9,3-4.6,4.4c-1.9,1.6-4,2.9-6,4.3c-1.2,0.8-2.6,1.4-3.9,1.9
	c-0.6,0.2-0.9,0.6-1.5,1.1c-1.1,0-2.4-0.1-3.5,1c-0.9,0-1.8-0.1-2.7,0c-0.7,0.1-1.5,0.5-2.1,0.8c-0.3,0.2-0.6,0.1-0.9,0.1
	c-0.5,0-1,0-1.5,0c-54.4,0-108.7,0-163.1,0c-1.1,0-2.2,0.3-3.3-0.5c-0.5-0.3-1,0.3-1.6,0.5c-1-0.4-1.8-1.2-3.1-1
	c-0.9,0.1-1.6-0.8-2.5-0.5c-0.9-0.8-2-0.4-3.2-0.6c-0.7-1.2-2.4-1.1-3.4-2.5c-1.8,0.6-3.2-0.6-4.4-1.5c-3.1-2.3-6.2-4.6-9-7.4
	c-0.2-0.2-0.4-0.3-0.4-0.6c0.1-1.6-0.9-2.6-2-3.5c-0.1-0.1-0.3,0-0.5,0c0-0.6,0-1.2-0.5-1.8c-0.7-1-1.8-1.8-1.7-3.2
	c-0.4,0-0.6,0-0.9,0c0-0.5,0-1,0-1.7c-2.3-1.6-1.2-5.1-3-7c0-0.8,0-1.6,0-2.4c-0.3-0.6-0.9-0.7-1-1.4c0.3-0.1,0.7,0.2,0.8-0.1
	c0.6-1.8-0.3-3.4-0.3-5.1c0-8.7,0-17.5,0-26.2c0-1.5,0.8-2.8,0.5-4.3c0-0.1,0.1-0.1,0.1-0.2c0.3-0.3,0.6-0.6,0.9-0.9
	c0-0.6,0-1.2,0-1.8c1.4-0.2,1.5-0.3,1.5-2c0.1-0.5,0.5-0.9,1-1c0.5,0,0.9,0,1.5,0c0-0.4,0-0.7,0-1c0-0.7,0.6-0.4,1-0.5
	c1.3,0.1,2.3-0.7,3.5-0.6C103.3,328.7,103.3,328.5,103.3,328.3z"/>
<path class="st0" d="M198.8,200.8c-0.3,0.8-1.3,0.7-1.9,1.1c0,0.7-0.8,1-0.6,1.7c-0.7,0.3-1.2,0.5-1.8,0.8c0,0.6-0.8,0.9-0.7,1.7
	c-0.6,0.3-1.3,0.6-1.9,0.9c-0.2,0.6-0.5,1.1-0.7,1.7c-0.6,0.2-1.1,0.5-1.7,0.8c0,0.6-0.8,0.9-0.7,1.7c-0.6,0.3-1.2,0.6-1.9,0.9
	c0.1,0.7-0.9,1-0.6,1.6c-0.7,0.3-1.2,0.5-1.9,0.8c-0.2,0.3-0.2,0.8-0.6,1.1c-1.4,1.1-2.3,2.8-4.2,3.2c-0.6,1.2-1.7,1.3-2.8,1.5
	c0.1-0.3-0.1-0.5-0.4-0.5c-2.6,0-5.1,0-7.7,0c-0.3,0-0.4,0.2-0.4,0.5c-0.4,0-0.8,0.1-1.1-0.3c-0.2-0.3-0.6-0.1-0.9-0.2
	c0-0.5,0-0.9,0-1.5c-0.6,0-1,0-1.5,0c0-0.3,0-0.6,0-1c-0.4,0-0.7,0-1,0c0-0.3-0.2-0.5-0.5-0.5c0-0.3,0-0.6,0-1c-0.4,0-0.7,0-1,0
	c-0.9-0.1-0.3-0.9-0.5-1.3c-1-0.4-1.5-1.1-1.5-2.2c1.2-1,0.4-2.1,0-3.1c0.8-1,0.7-2-0.1-2.9c0.8-1.6,0.8-1.9,0.1-3
	c0-0.9,0.4-1.7,1.2-2.1c0.6-0.3-0.3-1.3,0.8-1.4c0.3,0,0.6,0,1,0c0-0.4,0-0.7,0-1c1.6-2,3.5-3.9,5.5-5.5c0.5,0,0.9,0,1.5,0
	c0-0.6,0-1,0-1.5c0.1-0.5,0.5-0.9,1-1c1.9-0.1,1.9-0.1,2-2c1.6-2,3.5-3.9,5.5-5.5c1.9-0.1,1.9-0.1,2-2c1.5-2.1,3.5-3.7,5.3-5.5
	c1.9-1.9,3.6-3.9,5.7-5.5c0.5,0,0.9,0,1.5,0c0-0.6,0-1,0-1.5c0.9-1.5,2.4-2.5,3.5-3.8c1.7-1.7,3.5-3.4,5.1-5.2
	c1.6-1.8,3.6-3,5.4-4.4c0.5-0.3,1-0.1,1.4-0.2c0.6,0.9,1.3,0.4,2,0.4c0-0.4,0-0.7,0-0.9c0.3,0,0.7,0,1,0c0.1,0.3-0.2,0.7,0.3,1
	c0.5-0.3,1.1,0.3,1.7-0.3c0-0.3,0-0.5,0-0.8c0.3,0,0.7,0,1,0c0.1,0.3-0.1,0.7,0.2,0.9c0.5,0,1.1,0.5,1.3-0.4c1.3,0.5,3,0.2,3.7,1.9
	c0.1,0.2,0.6,0.1,1.3,0.2c0.3,0.4,0.8,1,1.4,1.6c13.1,13.1,26.1,26.2,39.2,39.2c1.7,1.7,2.9,3.7,3.4,6.1c-0.9,0.4-0.4,1-0.3,1.5
	c0.3,0,0.5,0,0.8,0c0,0.3,0,0.7,0,1c-0.3,0.1-0.7-0.2-0.9,0.2c0,0.6-0.2,1.2,0.2,1.8c0.3,0,0.5,0,0.8,0c0,0.3,0,0.7,0,1
	c-0.3,0.1-0.7-0.1-0.9,0.2c0,0.5-0.5,1.1,0.4,1.3c-0.5,1.3-0.4,2.9-1.9,3.8c0,0.2-0.1,0.6-0.1,1c-1.2,1.1-2.2,2.4-3.8,2.8
	c-0.6,1.5-1.9,1.4-3.1,1.4c0-0.5-0.3-0.5-0.6-0.5c-1.3,0-2.6,0-4,0c-1.3,0-2.7,0.3-4-0.5c-0.2-0.1-0.4,0.2-0.4,0.5c-0.3,0-0.7,0-1,0
	c0-0.5,0-0.9,0-1.5c-0.6,0-1,0-1.5,0c-0.3-1.3-0.7-1.7-2-2c-1.1-0.3-1.3-1.5-2.1-2c-0.8-0.5-1.3-1.4-2-2c-1-1-1.9-2.1-2.9-2.9
	c-1-0.8-1.6-1.8-2.6-2.6c0-0.3,0-0.6,0-1c-0.4,0-0.7,0-1,0c-0.2,0-0.5,0-0.7,0c-0.4-0.3-0.2-0.8-0.3-1.3c-0.5-0.3-1.2-0.5-1.8-0.9
	c-0.2-0.5-0.5-1-0.8-1.8c-0.6-0.4-1.8-0.4-2.1-1.6c-0.1,0.1-0.1,0.1-0.2,0.2c0,0.1-0.1,0.1-0.1,0.2c0,15.7,0,31.4,0,47.1
	c0,31.8,0,63.7,0,95.5c-0.3,0-0.6,0-1,0c0,0.4,0,0.7,0,1c0.1,1.3-0.5,2.3-1.4,3.2c-0.6,0.6-1.4,1-1.1,2c-1.5,1.9-3.6,3.1-6,4.3
	c-2.5,0-5.3,0-8,0c-3.8-1.5-6.2-4.6-8.5-8c0-0.3,0-0.9,0-1.5c0-0.3,0-0.6,0-1c-0.4,0-0.7,0-1,0c0-31.8,0-63.7,0-95.5
	c0-15.7,0-31.3,0-47c-0.1-0.1-0.1-0.4-0.2-0.4C198.9,200.3,198.8,200.5,198.8,200.8z"/>
<path class="st1" d="M308.3,334.3c0,0.6,0,1.2,0,1.8c-0.3,0.3-0.6,0.6-0.8,0.8c-0.1,0.1-0.2,0.2-0.2,0.2c0.3,1.6-0.5,3.1-0.5,4.8
	c0.1,8.9,0,17.7,0.1,26.6c0,1.3-0.2,2.6-0.7,3.7c-0.3,0.7-0.1,1.3-0.4,2c-0.3,0.3-0.8,0.6-1,1.4c-0.1,0.5-0.7,0.9-1.4,0.7
	c0.1-0.3-0.1-0.6,0.2-0.9c1.6-2,2.4-4.2,2.4-6.8c-0.1-9.3,0-18.7,0-28c0-2.1,1-3.9,1.7-5.8C307.7,334.6,307.9,334.2,308.3,334.3z"/>
<path class="st1" d="M94.8,334.3c0,0.6,0,1.2,0,1.8c-0.3,0.3-0.6,0.6-0.9,0.9c0,0.1-0.1,0.2-0.1,0.2c0.3,1.5-0.5,2.8-0.5,4.3
	c0,8.7,0,17.5,0,26.2c0,1.7,0.9,3.3,0.3,5.1c-0.2,0.2-0.5,0-0.8,0.1c0.1-3.5-0.7-7-0.5-10.5c0.2-3.6,0-7.3,0-11c0-3.6,0-7.1,0-10.7
	c0-2.1,1-3.9,1.7-5.8C94.2,334.6,94.4,334.2,94.8,334.3z"/>
<path class="st1" d="M409.8,196.8c-0.6,0-1.3,0-2,0c0-1.4,0.9-2.5,0.5-3.7c0.4-0.4,0.7-0.7,1.1-1.1c0-0.8,0-1.7,0-2.7
	c1.2,0,2.3,0,3.5,0c-0.4,0.9-1.1,1.4-2,1.7c0.2,0.3,0.6,0.4,0.5,0.8c0,0.3,0.2,0.5,0.5,0.5c0.1,1.3-1,1.6-1.8,2.3
	C410.2,195.2,410.9,196,409.8,196.8z"/>
<path class="st1" d="M412.3,174.3c-0.5,0-0.5-0.3-0.5-0.6c0-4.2,0-8.5,0-12.6c0.3-0.4,0.7-0.2,1-0.3c0,4.1,0,8.2,0,12.4
	C412.8,173.5,413.2,174.2,412.3,174.3z"/>
<path class="st1" d="M12.3,192.8c0.9,0.1,1.8-0.3,2.5,0.8c-0.3,1.9,0.2,3.9,0.5,5.9c-0.6,0.4-1.1,0.2-1.6,0.3
	c-0.5-0.1-0.8-0.5-1-0.9c-0.1-0.4,0.2-0.6,0.4-0.8c-0.2-0.2-0.3-0.5-0.5-0.7c0.4-0.7,0.7-1.4,1.1-2c-0.3-0.6-0.7-1.1-0.5-1.7
	C13.2,193,12.2,193.6,12.3,192.8z"/>
<path class="st1" d="M116.3,58.8c0.1,1.1-0.2,2-0.7,3c-1.2,2.3-2.2,4.6-3.1,7c-0.2,0.5-0.2,0.9-0.3,1.4c-0.1,0.8-0.6,1.3-1.5,1.2
	c0.3-1.8,1.4-3.4,1.9-5.2c0.6-1.8,1.6-3.5,2.2-5.3C115.1,60,115.8,59.4,116.3,58.8z"/>
<path class="st1" d="M226.3,11.8c-0.1,0.8-0.7,0.4-1.3,0.6c-0.2-0.3-0.5-0.7-0.7-1.1c-1.1,0-2,0-2.7,0c-1.1-0.7-0.7-1.6-0.8-2.5
	c0.5-0.1,0.9,0,1.2,0.5c0.2-0.2,0.3-0.3,0.5-0.5c0.3,0.5,0.7,0.6,1.2,0.5c0,0.3,0.2,0.5,0.5,0.5c0.2,0,0.5,0,0.7,0
	c0.5,0.3,0.2,0.9,0.3,1.3C225.5,11.5,226.4,11,226.3,11.8z"/>
<path class="st1" d="M219.3,8.8c0,0.4,0,0.8,0,1.5c-2.1,0-4.2-1-6-0.4c-1.1-0.6-1-1.3-1-2.1c1.3,0.7,2.5,1.5,4.1,0.5
	c0.3-0.2,1.1-0.2,1.6,0.3C218.3,9,218.9,8.7,219.3,8.8z"/>
<path class="st1" d="M411.8,187.3c-0.4,0-0.8,0-1.2,0c-0.1-0.1-0.3-0.3-0.3-0.4c0.6-1.5,0.6-3.1,0.4-4.7c-0.1-0.9,0.9-1.1,0.6-1.9
	c0.6,0,1,0,1.4,0c0.1,0.5-0.3,0.9-0.5,1.3c-0.3,0.9-1.1,1.8-0.2,2.9c0.3,0.4,0.3,1.1-0.3,1.5C412.5,186.4,411.9,186.8,411.8,187.3z"
	/>
<path class="st1" d="M209.8,7.8c0,0.2,0,0.5,0,0.8c-0.1,0.1-0.1,0.2-0.2,0.2c-2.9,0-5.8,0-8.7,0c-0.3-0.3-0.1-0.6-0.2-0.9
	C203.8,7.8,206.8,7.8,209.8,7.8z"/>
<path class="st1" d="M110.8,71.8c0.5,0,0.6,0.3,0.5,0.6c-0.5,1.4-0.4,2.9-1.5,4.2c0,0.7,0,1.6,0,2.4c-0.4,0.5-0.8,0.9-1.5,0.8
	c0.4-1.5,0.7-3.1,1.3-4.6c0.3-0.7,0.1-1.4,0.2-2.2C110.1,72.6,110.7,72.4,110.8,71.8z"/>
<path class="st1" d="M325.3,260.8c0-0.2,0-0.5,0-0.9c1.2-0.2,2.4,0,3.6-0.1c1.3-0.1,2.7,0.2,4-0.5c0.2-0.1,0.4,0.2,0.4,0.5
	c-0.8,0.8-1.8,1-2.9,1C328.7,260.7,327,260.8,325.3,260.8z"/>
<path class="st1" d="M311.3,74.8c0,0.2,0,0.5,0,0.8c0,0-0.1,0.1-0.2,0.1c-2.2-0.1-4.4,0.4-6.5,0.6c-0.5-0.4-0.3-0.7-0.3-1
	c1.3,0.4,2.3-0.6,3.5-0.5C309,74.8,310.2,74.8,311.3,74.8z"/>
<path class="st1" d="M406.8,203.8c-0.4,0-0.8,0-1.4,0c-0.5-1.3,0.4-2.3,0.9-3.5c0.7,0,1.3,0,1.9,0
	C407.8,201.4,407.3,202.6,406.8,203.8z"/>
<path class="st1" d="M198.3,7.8c0,0.2,0,0.5,0,0.7c-0.2,0.2-0.4,0.3-0.6,0.3c-1.9,0-3.8,0-5.7-0.1c-0.1,0-0.1-0.3-0.2-0.4
	c0-0.5,0.3-0.5,0.6-0.5C194.4,7.8,196.4,7.8,198.3,7.8z"/>
<path class="st1" d="M296.8,380.8c0,0.2,0,0.5,0,0.7c-0.2,0.2-0.4,0.3-0.6,0.3c-1.6,0-3.1,0-4.7-0.1c-0.1,0-0.1-0.3-0.2-0.4
	c0-0.5,0.3-0.5,0.6-0.5C293.6,380.8,295.2,380.8,296.8,380.8z"/>
<path class="st1" d="M108.3,81.3c0.5,0,0.6,0.4,0.5,0.6c-0.7,1.4-0.4,2.8-0.5,4.1c-0.3,0.4-0.7,0.2-1,0.3c0-1,0-1.9,0-2.9
	C107.3,82.5,107.5,81.7,108.3,81.3z"/>
<path class="st1" d="M186.8,8.3c0.2,0.7-0.2,1.1-0.8,1.5c-1.1,0-2.2,0-3.4,0c-0.3,0-0.4-0.2-0.4-0.5c0-0.1,0-0.2,0-0.2
	C183.8,8.8,185.3,8.2,186.8,8.3z"/>
<path class="st1" d="M128.3,40.8c0,0.4,0,0.8,0,1.2c-0.8,0.9-1.8,1.6-2.3,2.8c-0.2,0.5-0.7,0.6-1.2,0.5c-0.2-1.1,0.9-1.6,1.3-2.4
	C126.5,42,127.3,41.2,128.3,40.8z"/>
<path class="st1" d="M302.3,74.8c-0.1,0.8,0.4,1.8-1,2.5c-0.6,0-1.5,0-2.5,0c0.2-0.9,0.9-1.1,1.7-1
	C300.9,75.5,301.2,74.6,302.3,74.8z"/>
<path class="st1" d="M96.8,385.3c0.2,0,0.5,0,0.9,0c-0.1,1.4,1,2.2,1.7,3.2c0.4,0.6,0.4,1.2,0.5,1.8
	C97.9,389.1,97.3,387.2,96.8,385.3z"/>
<path class="st1" d="M59.3,253.8c0.1-0.1,0.1-0.3,0.2-0.6c1.6,0.7,3.1,1.4,4.8,1.7c0,0.4,0,0.6,0,0.9
	C63.1,255.7,60.5,254.6,59.3,253.8z"/>
<path class="st1" d="M404.3,206.8c0-0.8,0-1.6,0-2.5c0.9,0,1.7,0,2.5,0c-0.4,0.9-0.8,1.7-1.6,2.3
	C404.9,206.9,404.6,206.7,404.3,206.8z"/>
<path class="st2" d="M82.3,260.3c1.3,0,2.6,0,3.9,0c0.3,0,0.7,0,0.6,0.5c0,0.1,0,0.2,0,0.2c-1.5,0.4-3,0.6-4.5-0.2
	C82.3,260.6,82.3,260.4,82.3,260.3z"/>
<path class="st1" d="M68.8,257.3c-0.1-0.3,0.2-0.6,0.4-0.5c1.1,0.6,2.6,0.4,3.6,1.2c0,0.2,0,0.5,0,0.7c-1.2-0.3-2.4-0.7-3.6-1
	C68.9,257.7,68.8,257.6,68.8,257.3z"/>
<path class="st1" d="M19.8,214.8c0.4,0,0.8,0,1.4,0c0.2,0.7,0,1.7,1.1,2.1c0,0.7,0,1.3,0,1.9c-1-0.1-0.9-1.2-1.5-1.7
	C21.2,216,20.1,215.6,19.8,214.8z"/>
<path class="st1" d="M22.3,219.3c0.3,0.1,0.7-0.2,0.9,0.2c0.8,1.2,1.7,2.3,1.6,3.8C23.9,222.5,22.6,220.4,22.3,219.3z"/>
<path class="st1" d="M99.8,390.3c0.2,0,0.4-0.1,0.5,0c1.1,0.9,2.1,1.9,2,3.5C100.9,393,100.3,391.7,99.8,390.3z"/>
<path class="st1" d="M119.3,53.3c0.3-0.1,0.4,0.1,0.5,0.5c-0.2,0.7-1.4,1.2-1.2,2.3c0.1,0.4-0.7,0.8-1.4,0.7
	c0.1-0.3-0.1-0.6,0.2-0.9c0.5-0.4,0.9-0.8,0.9-1.6C118.3,53.8,118.8,53.3,119.3,53.3z"/>
<path class="st1" d="M82.3,260.3c0,0.2,0,0.3,0,0.5c-0.8,0.2-1.5-0.3-2.2-0.6c-0.2,0.2-0.4,0.4-0.6,0.6c-0.3-0.1-0.4-0.6-0.8-0.5
	c0-0.2,0-0.5,0-0.7C80.5,259.2,80.7,259.3,82.3,260.3z"/>
<path class="st1" d="M50.3,248.8c0-0.7,0.5-0.4,0.7-0.5c0.4,0.3,0.3,0.5,0.3,0.8c0.8,0.3,1.7,0.6,2.5,0.9c0,0.4,0,0.6,0,0.9
	C52.2,250.8,51.2,249.9,50.3,248.8z"/>
<path class="st1" d="M296.8,77.3c0,0.2,0,0.5,0,0.9c-1.4-0.1-2.6,0.8-4,0.6c0.5-1.4,1.9-1,2.8-1.5C296,77.1,296.4,77.3,296.8,77.3z"
	/>
<path class="st1" d="M13.8,200.8c0.9,0.1,1.8-0.3,2.4,0.7c-0.2,0.6,0.6,1.4-0.4,1.8c-0.5-0.6-0.5-0.6-0.5-1.3
	c-0.4-0.4-0.9,0-1.5-0.4C13.8,201.4,13.8,201.1,13.8,200.8z"/>
<path class="st1" d="M339.3,76.8c-0.4,1.1-1.2,0.3-1.8,0.4c-1.1-0.6-0.7-1.6-0.7-2.4c0.6,0.1,1,0.6,1.3,1.1
	C338.4,76.4,339.3,75.9,339.3,76.8z"/>
<path class="st1" d="M408.3,199.8c-0.4,0-0.8,0-1.2,0c-0.6-0.7-0.3-1.3,0.5-2c0.5,0,1.1,0,1.7,0C409,198.4,408.7,199.1,408.3,199.8z
	"/>
<path class="st1" d="M37.3,238.8c0.4,0,0.8,0,1.3,0c0.5,0.9,1.8,1.1,1.7,2.5c-0.3-0.1-0.7,0.2-0.9-0.2
	C38.8,240.3,37.8,239.8,37.3,238.8z"/>
<path class="st1" d="M17.8,209.3c0.2,0,0.5,0,0.8,0c0.3,0.6,0.2,1.5,0.9,2c0.4,0.3,0.7,1.1-0.2,1.5
	C18.3,211.8,18.1,210.5,17.8,209.3z"/>
<path class="st1" d="M122.3,48.8c0,0.4,0,0.8,0,1.2c-0.2,0.4-0.5,0.3-0.9,0.4c-0.2,0.9-0.1,2.1-1.6,2
	C120.3,50.8,120.9,49.5,122.3,48.8z"/>
<path class="st1" d="M341.8,258.3c0-0.2,0-0.5,0-0.9c1-0.4,2.2,0.2,3.1-0.6c0.1-0.1,0.4,0.2,0.4,0.5
	C344.4,258.3,343.1,258.3,341.8,258.3z"/>
<path class="st1" d="M103.3,328.3c0,0.2,0,0.5,0,0.9c-1.2-0.2-2.2,0.7-3.5,0.6C100.6,328.3,101.9,328.2,103.3,328.3z"/>
<path class="st1" d="M316.8,328.3c0,0.2,0,0.5,0,0.9c-1.2-0.2-2.2,0.7-3.5,0.6C314.1,328.3,315.4,328.2,316.8,328.3z"/>
<path class="st1" d="M413.3,155.3c-0.6,0-1.1,0-1.7,0c-0.9-1.1-0.9-1.1-0.3-2C412.2,153.7,412.8,154.4,413.3,155.3z"/>
<path class="st1" d="M136.3,32.8c-0.3,1.4-1.1,2.2-2.5,2.5C134.2,33.9,135,33.1,136.3,32.8z"/>
<path class="st1" d="M133.8,35.3c-0.3,1.4-1.1,2.2-2.5,2.5C131.7,36.4,132.5,35.6,133.8,35.3z"/>
<path class="st1" d="M255.8,255.8c1.4,0.3,2.2,1.1,2.5,2.5C257,257.9,256.2,257.1,255.8,255.8z"/>
<path class="st1" d="M332.3,372.3c-0.3,0.1-0.5-0.1-0.5-0.4c0-0.8,0-1.6,0-2.3c0.3-0.4,0.7-0.2,1-0.3c0,0.8,0,1.6,0,2.4
	C332.8,372,332.8,372.3,332.3,372.3z"/>
<path class="st1" d="M74.3,258.8c0.7-1,1.3-0.5,2,0.3c0,0.5,0,1.1,0,1.7c-0.2-0.1-0.5-0.2-0.6-0.3C75.4,259.7,74.9,259.2,74.3,258.8
	z"/>
<path class="st1" d="M335.3,75.3c0,0.2,0,0.5,0,0.9c-0.9,0-1.9,0-2.9,0c-0.3-0.2,0-0.6-0.1-0.9C333.3,75.3,334.3,75.3,335.3,75.3z"
	/>
<path class="st1" d="M45.8,245.8c0.6,0.1,1.3-0.2,1.7,0.5c0.3,0.5,0.8,0.7,1.3,0.7c0,0.4,0,0.6,0,0.9
	C47.5,247.6,46.5,247,45.8,245.8z"/>
<path class="st1" d="M291.8,78.8c0,0.2,0,0.5,0,0.7c-0.5,0.5-1.2,0.1-1.8,0.3c-0.7-0.9-0.7-0.9-0.2-1.5
	C290.4,78.7,291.1,78.8,291.8,78.8z"/>
<path class="st1" d="M350.3,255.8c0-0.2,0-0.5,0-0.8c0.5-0.5,1.4,0,1.9-0.7c0.1-0.1,1-0.4,1.1,0.5
	C352.3,255.1,351.5,256,350.3,255.8z"/>
<path class="st1" d="M32.3,233.3c1.3,0.3,1.7,0.7,2,2C33,235,32.6,234.5,32.3,233.3z"/>
<path class="st1" d="M160.3,261.3c0-0.4,0-0.8,0-1.3c0.5-0.2,1.1-0.6,1.5,0.3c0,0.3,0,0.7,0,1C161.3,261.3,160.8,261.3,160.3,261.3z
	"/>
<path class="st1" d="M178.3,9.8c0.1,0.7-0.2,1.3-0.9,1.5c-0.3,0.1-1,0.4-1.1-0.5C176.8,10.1,177.5,9.7,178.3,9.8z"/>
<path class="st1" d="M43.8,244.3c1.7,0,1.8,0.1,2,1.5C44.7,245.8,44.3,245.1,43.8,244.3z"/>
<path class="st1" d="M40.8,241.8c1.7,0,1.8,0.1,2,1.5C41.7,243.3,41.3,242.6,40.8,241.8z"/>
<path class="st1" d="M309.8,332.3c0,1.7-0.1,1.8-1.5,2C308.2,333.2,309,332.7,309.8,332.3z"/>
<path class="st1" d="M25.8,224.8c1.4,0.2,1.5,0.3,1.5,2C26.5,226.3,25.7,225.9,25.8,224.8z"/>
<path class="st1" d="M329.8,75.3c-0.3,1-1.1,0.3-1.6,0.5c-0.1,0-0.1,0-0.2-0.1c-0.3-0.3-0.1-0.6-0.2-0.9c0.5,0,0.9,0,1.4,0
	C329.6,74.8,329.9,74.8,329.8,75.3z"/>
<path class="st1" d="M96.3,332.3c0,1.7-0.1,1.8-1.5,2C94.7,333.2,95.5,332.7,96.3,332.3z"/>
<path class="st1" d="M124.8,45.3c0,1.7-0.1,1.8-1.5,2C123.2,46.2,124,45.7,124.8,45.3z"/>
<path class="st1" d="M28.3,228.3c1.4,0.2,1.5,0.3,1.5,2C29,229.8,28.2,229.4,28.3,228.3z"/>
<path class="st1" d="M346.8,257.3c-0.2-0.7,0.2-1.1,0.7-1.4c0.3-0.2,0.8-0.2,0.8,0.4C348.1,257,347.6,257.3,346.8,257.3z"/>
<path class="st1" d="M353.8,254.8c-0.2-0.7,0.2-1.1,0.7-1.4c0.3-0.2,0.8-0.2,0.8,0.4C355.1,254.5,354.6,254.8,353.8,254.8z"/>
<path class="st1" d="M332.8,339.8c-0.3,0-0.6,0-0.8,0c-0.6-0.9,0.1-1.4,0.3-2c0.4,0,0.5,0.2,0.5,0.6
	C332.8,338.8,332.8,339.3,332.8,339.8z"/>
<path class="st1" d="M119.3,339.8c-0.3,0-0.6,0-0.8,0c-0.6-0.9,0.1-1.4,0.3-2c0.4,0,0.5,0.2,0.5,0.6
	C119.3,338.8,119.3,339.3,119.3,339.8z"/>
<path class="st1" d="M253.3,251.8c0.7-0.2,1.1,0.2,1.4,0.7c0.2,0.3,0.2,0.8-0.4,0.8C253.5,253.1,253.2,252.5,253.3,251.8z"/>
<path class="st1" d="M131.3,37.8c-0.1,1.1-0.4,1.4-1.5,1.5C129.9,38.1,130.2,37.9,131.3,37.8z"/>
<path class="st1" d="M252.8,249.3c0.2,0,0.5,0,0.7,0c0.5,0.4,0.1,0.9,0.3,1.2c-0.4,0.4-0.7,0.2-1,0.3
	C252.8,250.3,252.8,249.8,252.8,249.3z"/>
<path class="st1" d="M174.3,11.3c0,0.2,0,0.5,0,0.8c-0.5,0.2-1.1,0.6-1.5-0.3C173.1,10.8,173.8,11.4,174.3,11.3z"/>
<path class="st1" d="M258.3,258.3c0.5,0,0.9,0,1.5,0c0,0.6,0,1,0,1.5C259.1,259.5,258.6,259,258.3,258.3z"/>
<path class="st1" d="M168.3,257.3c0-0.5,0-0.9,0-1.5c0.6,0,1,0,1.5,0C169.5,256.5,169,257,168.3,257.3z"/>
<path class="st1" d="M321.3,261.3c0-0.5,0-1,0-1.5c0.4,0,0.6,0,0.8,0c0.3,0.5,0.1,1,0.2,1.5C322,261.3,321.7,261.3,321.3,261.3z"/>
<path class="st1" d="M16.3,204.8c0.2,0,0.5,0,0.8,0c0.2,0.5,0.6,1.1-0.3,1.5C15.9,206,16.5,205.2,16.3,204.8z"/>
<path class="st1" d="M337.8,259.3c0-0.2,0-0.5,0-0.8c0.5-0.2,1.1-0.6,1.5,0.3C339.1,259.7,338.3,259.1,337.8,259.3z"/>
<path class="st1" d="M29.8,230.8c0.5,0,0.9,0,1.5,0c0,0.6,0,1,0,1.5C30.6,232,30.1,231.5,29.8,230.8z"/>
<path class="st1" d="M381.8,236.8c0-0.3,0-0.6,0-1c0.6,0,1,0,1.5,0C383.1,236.5,382.6,236.8,381.8,236.8z"/>
<path class="st1" d="M140.8,28.8c0,0.3,0,0.6,0,1c-0.6,0-1,0-1.5,0C139.5,29,140,28.7,140.8,28.8z"/>
<path class="st1" d="M300.8,378.8c0,0.3,0,0.6,0,1c-0.6,0-1,0-1.5,0C299.5,379,300,378.7,300.8,378.8z"/>
<path class="st1" d="M121.8,375.8c-0.3,0-0.6,0-1,0c0-0.6,0-1,0-1.5C121.6,374.5,121.9,375,121.8,375.8z"/>
<path class="st1" d="M162.8,15.3c0,0.3,0,0.6,0,1c-0.6,0-1,0-1.5,0C161.5,15.5,162,15.2,162.8,15.3z"/>
<path class="st1" d="M312.3,330.3c0,0.3,0,0.6,0,1c-0.6,0-1,0-1.5,0C311,330.5,311.5,330.2,312.3,330.3z"/>
<path class="st1" d="M98.8,330.3c0,0.3,0,0.6,0,1c-0.6,0-1,0-1.5,0C97.5,330.5,98,330.2,98.8,330.3z"/>
<path class="st1" d="M123.3,47.3c0,0.5,0,0.9,0,1.5c-0.4,0-0.7,0-1,0C122.2,48,122.5,47.5,123.3,47.3z"/>
<path class="st1" d="M278.3,51.3c-0.3,0-0.6,0-1,0c0-0.6,0-1,0-1.5C278.1,50,278.4,50.5,278.3,51.3z"/>
<path class="st1" d="M151.3,21.3c0,0.3,0,0.6,0,1c-0.6,0-1,0-1.5,0C150,21.5,150.5,21.2,151.3,21.3z"/>
<path class="st1" d="M281.8,57.3c-0.3,0-0.6,0-1,0c0-0.6,0-1,0-1.5C281.6,56,281.9,56.5,281.8,57.3z"/>
<path class="st1" d="M249.3,22.3c-0.5,0-0.9,0-1.5,0c0-0.4,0-0.7,0-1C248.6,21.2,249.1,21.5,249.3,22.3z"/>
<path class="st1" d="M148.8,22.8c0,0.3,0,0.6,0,1c-0.6,0-1,0-1.5,0C147.5,23,148,22.7,148.8,22.8z"/>
<path class="st1" d="M283.3,60.3c-0.3,0-0.6,0-1,0c0-0.6,0-1,0-1.5C283.1,59,283.4,59.5,283.3,60.3z"/>
<path class="st1" d="M284.3,62.3c-0.3,0-0.6,0-1,0c0-0.6,0-1,0-1.5C284.1,61,284.4,61.5,284.3,62.3z"/>
<path class="st1" d="M355.8,82.3c-0.5,0-0.9,0-1.5,0c0-0.4,0-0.7,0-1C355.1,81.2,355.6,81.5,355.8,82.3z"/>
<path class="st1" d="M169.8,255.8c0-0.5,0-0.9,0-1.5c0.4,0,0.7,0,1,0C170.9,255,170.6,255.6,169.8,255.8z"/>
<path class="st1" d="M169.3,12.8c0,0.3,0,0.6,0,1c-0.6,0-1,0-1.5,0C168,13,168.5,12.7,169.3,12.8z"/>
<path class="st1" d="M24.8,223.3c0.3,0,0.6,0,1,0c0,0.6,0,1,0,1.5C25,224.6,24.7,224,24.8,223.3z"/>
<path class="st1" d="M363.3,85.8c-0.5,0-0.9,0-1.5,0c0-0.4,0-0.7,0-1C362.6,84.7,363.1,85,363.3,85.8z"/>
<path class="st1" d="M56.8,252.3c0.5,0,0.9,0,1.5,0c0,0.4,0,0.7,0,1C57.5,253.3,57,253,56.8,252.3z"/>
<path class="st1" d="M107.3,86.8c0.9,0.2,0.4,0.8,0.4,1.3c-0.3,0.3-0.6,0.1-0.9,0.2C106.6,87.6,107.3,87.3,107.3,86.8z"/>
<path class="st1" d="M53.8,250.8c0.5,0,0.9,0,1.5,0c0,0.4,0,0.7,0,1C54.5,251.8,54,251.5,53.8,250.8z"/>
<path class="st1" d="M145.3,25.3c0,0.3,0,0.6,0,1c-0.6,0-1,0-1.5,0C144,25.5,144.5,25.2,145.3,25.3z"/>
<path class="st1" d="M407.8,137.3c-0.3,0-0.6,0-1,0c0-0.6,0-1,0-1.5C407.6,136,407.9,136.5,407.8,137.3z"/>
<path class="st1" d="M377.8,240.3c0-0.3,0-0.6,0-1c0.6,0,1,0,1.5,0C379.1,240,378.6,240.3,377.8,240.3z"/>
<path class="st1" d="M34.3,235.3c0.3,0,0.6,0,1,0c0,0.6,0,1,0,1.5C34.5,236.6,34.2,236,34.3,235.3z"/>
<path class="st1" d="M160.8,16.3c-0.1,0.3,0.1,0.7-0.2,0.9c-0.4,0.1-0.8,0.2-0.8-0.4C159.9,16,160.4,16.3,160.8,16.3z"/>
<path class="st1" d="M406.8,134.8c-0.3,0-0.6,0-0.9,0c-0.1-0.6-0.2-1,0.4-1C407.1,133.8,406.7,134.4,406.8,134.8z"/>
<path class="st1" d="M369.8,89.3c0,0.7-0.5,0.4-0.7,0.5c-0.4-0.4-0.2-0.7-0.3-1C369.2,88.8,369.8,88.5,369.8,89.3z"/>
<path class="st1" d="M129.8,381.3c0,0.7-0.5,0.4-0.7,0.5c-0.4-0.4-0.2-0.7-0.3-1c0.3,0,0.7,0,1,0
	C129.8,380.9,129.8,381.1,129.8,381.3z"/>
<path class="st1" d="M366.3,248.3c0-0.3,0-0.6,0-0.9c0.6-0.1,1-0.2,1,0.4C367.3,248.5,366.7,248.2,366.3,248.3z"/>
<path class="st1" d="M361.8,250.8c0-0.3,0-0.6,0-0.9c0.6-0.1,1-0.2,1,0.4C362.8,251,362.2,250.7,361.8,250.8z"/>
<path class="st1" d="M409.3,142.8c-0.3,0-0.6,0-0.9,0c-0.1-0.6-0.2-1,0.4-1C409.6,141.8,409.2,142.4,409.3,142.8z"/>
<path class="st1" d="M120.8,374.3c-0.3,0-0.6,0-0.9,0c-0.1-0.6-0.2-1,0.4-1C121.1,373.3,120.7,373.9,120.8,374.3z"/>
<path class="st1" d="M137.3,31.8c0,0.3,0,0.6,0,1c-0.4,0-0.7,0-1,0c0-0.3,0-0.6,0-1C136.7,31.8,137,31.8,137.3,31.8z"/>
<path class="st2" d="M225.3,344.3c0-0.3,0-0.6,0-1c0.4,0,0.7,0,1,0c0,0.3,0,0.6,0,1C225.9,344.3,225.6,344.3,225.3,344.3z"/>
<path class="st1" d="M166.8,13.8c-0.1,0.3,0.1,0.7-0.2,0.9c-0.4,0.1-0.8,0.2-0.8-0.4C165.9,13.5,166.4,13.8,166.8,13.8z"/>
<path class="st2" d="M199.3,343.3c0.3,0,0.6,0,1,0c0,0.4,0,0.7,0,1c-0.3,0-0.6,0-1,0C199.3,343.8,199.3,343.5,199.3,343.3z"/>
<path class="st1" d="M65.8,255.8c0.3,0,0.6,0,1,0c0,0.4,0,0.7,0,1c-0.3,0-0.6,0-1,0C65.8,256.3,65.8,256,65.8,255.8z"/>
<path class="st1" d="M351.3,80.3c0,0.7-0.5,0.4-0.7,0.5c-0.4-0.4-0.2-0.7-0.3-1C350.7,79.8,351.3,79.5,351.3,80.3z"/>
<path class="st1" d="M343.3,77.8c0,0.7-0.5,0.4-0.7,0.5c-0.4-0.4-0.2-0.7-0.3-1C342.7,77.3,343.3,77,343.3,77.8z"/>
<path class="st1" d="M288.3,72.8c-0.3,0-0.6,0-0.9,0c-0.1-0.6-0.2-1,0.4-1C288.6,71.8,288.2,72.4,288.3,72.8z"/>
<path class="st1" d="M116.8,57.8c0.7,0,0.4,0.5,0.5,0.7c-0.4,0.4-0.7,0.2-1,0.3C116.4,58.4,116.1,57.8,116.8,57.8z"/>
<path class="st1" d="M380.8,237.8c0-0.3,0-0.6,0-1c0.4,0,0.7,0,1,0c0,0.3,0,0.6,0,1C381.4,237.8,381.1,237.8,380.8,237.8z"/>
<path class="st2" d="M161.8,261.3c0-0.3,0-0.7,0-1c0.3,0,0.7,0,1,0c0,0.3,0,0.6,0,1C162.4,261.3,162.1,261.3,161.8,261.3z"/>
<path class="st2" d="M262.8,260.3c0.3,0,0.6,0,1,0c0,0.4,0,0.7,0,1c-0.3,0-0.6,0-1,0C262.8,260.8,262.8,260.5,262.8,260.3z"/>
<path class="st1" d="M109.8,328.8c0,0.7-0.5,0.4-0.7,0.5c-0.4-0.4-0.2-0.7-0.3-1C109.2,328.3,109.8,328,109.8,328.8z"/>
<path class="st1" d="M323.3,328.8c-0.3,0-0.5-0.2-0.5-0.5C323.2,328.2,323.3,328.4,323.3,328.8z"/>
<path class="st3" d="M411.8,192.3c-0.3,0-0.5-0.2-0.5-0.5C411.7,191.7,411.8,191.9,411.8,192.3z"/>
<path class="st1" d="M163.3,14.8c0,0.3-0.2,0.5-0.5,0.5C162.8,14.9,163,14.7,163.3,14.8z"/>
<path class="st1" d="M239.3,16.8c-0.3,0-0.5-0.2-0.5-0.5C239.2,16.2,239.3,16.4,239.3,16.8z"/>
<path class="st1" d="M157.3,17.8c0,0.3-0.2,0.5-0.5,0.5C156.8,17.9,157,17.7,157.3,17.8z"/>
<path class="st3" d="M224.3,9.8c-0.3,0-0.5-0.2-0.5-0.5C224.2,9.2,224.3,9.4,224.3,9.8z"/>
<path class="st1" d="M250.3,22.8c-0.3,0-0.5-0.2-0.5-0.5C250.2,22.2,250.3,22.4,250.3,22.8z"/>
<path class="st1" d="M252.3,24.3c-0.3,0-0.5-0.2-0.5-0.5C252.2,23.7,252.3,23.9,252.3,24.3z"/>
<path class="st1" d="M263.3,32.8c-0.3,0-0.5-0.2-0.5-0.5C263.2,32.2,263.3,32.4,263.3,32.8z"/>
<path class="st1" d="M357.3,82.8c-0.3,0-0.5-0.2-0.5-0.5C357.2,82.2,357.3,82.4,357.3,82.8z"/>
<path class="st1" d="M119.8,370.8c-0.3,0-0.5-0.2-0.5-0.5C119.7,370.2,119.8,370.4,119.8,370.8z"/>
<path class="st1" d="M392.8,225.3c0-0.3,0.2-0.5,0.5-0.5C393.3,225.1,393.2,225.3,392.8,225.3z"/>
<path class="st1" d="M145.8,24.8c0,0.3-0.2,0.5-0.5,0.5C145.3,24.9,145.5,24.7,145.8,24.8z"/>
<path class="st1" d="M257.3,27.8c-0.3,0-0.5-0.2-0.5-0.5C257.2,27.2,257.3,27.4,257.3,27.8z"/>
<path class="st1" d="M371.3,90.3c-0.3,0-0.5-0.2-0.5-0.5C371.2,89.7,371.3,89.9,371.3,90.3z"/>
<path class="st4" d="M129.8,381.3c0-0.2,0-0.3,0-0.5c0.3,0,0.5,0.2,0.5,0.5C130.2,381.3,130,381.3,129.8,381.3z"/>
<path class="st1" d="M374.8,92.8c-0.3,0-0.5-0.2-0.5-0.5C374.7,92.2,374.8,92.4,374.8,92.8z"/>
<path class="st1" d="M368.8,88.8c-0.3,0-0.5-0.2-0.5-0.5C368.7,88.2,368.8,88.4,368.8,88.8z"/>
<path class="st1" d="M367.3,87.8c-0.3,0-0.5-0.2-0.5-0.5C367.2,87.2,367.3,87.4,367.3,87.8z"/>
<path class="st1" d="M385.3,157.8c0.2,0,0.5,0,0.6,0c1.7,1.4,0.2,3.5,1.4,5c-0.4,0.6-0.6,1.2-0.5,2c0,2.9,0,5.8,0,8.7
	c0,0.8,0.3,1.8-0.1,2.4c-0.4,0.7-0.2,1.4-0.7,2c-0.3,0-0.5,0-0.8,0c0.9-5.1,0.3-10.3,0.5-15.5C386,160.7,385.1,159.3,385.3,157.8z"
	/>
<path class="st1" d="M190.8,34.8c0-0.2,0-0.5,0-0.7c0.1-0.1,0.3-0.2,0.4-0.2c5.3,0,10.6,0,15.9,0c1,0,1.8,0.3,2.7,0.8
	c0,0.3,0,0.5,0,0.8c-1.5-0.1-2.9-0.6-4.4-0.6c-1.6,0.1-3.2,0.1-4.8,0.1C197.4,34.7,194.1,34.8,190.8,34.8z"/>
<path class="st1" d="M247.3,219.8c-0.1-0.3,0.2-0.6,0.4-0.5c1.3,0.7,2.7,0.4,4,0.5c1.3,0,2.6,0,4,0c0.3,0,0.7,0,0.6,0.5
	c0,0.1,0,0.2,0,0.2c-1.7,0.2-3.4,0.9-5.1,0.7c-1.2-0.1-2.4-0.6-3.5-1C247.5,220.2,247.3,220.1,247.3,219.8z"/>
<path class="st1" d="M160.3,203.3c0.7,1.2,0.7,1.4-0.1,3c0.7,0.9,0.9,1.9,0.1,2.9c0.4,1.1,1.2,2.1,0,3.1c-1-0.2-0.5-0.9-0.5-1.4
	c0-0.5-0.5-0.7-0.6-1.3c-0.1-1.5,0.2-4.4,0.8-6.4C160.1,203.2,160.2,203.3,160.3,203.3z"/>
<path class="st1" d="M168.3,220.3c-0.1-0.3,0.1-0.5,0.4-0.5c2.6,0,5.1,0,7.7,0c0.3,0,0.4,0.2,0.4,0.5c-0.1,0.1-0.1,0.4-0.2,0.4
	c-0.8,0.1-1.6,0.1-2.4,0.1c-0.8-0.1-1.2,0.7-2,0.6C171.2,221.2,169.3,220.8,168.3,220.3z"/>
<path class="st1" d="M381.8,144.3c0.7-0.2,1.1,0.2,1.5,0.8c-0.2,0.8,0.1,1.6,0.5,2.3c0.6,1,0.5,2.2,1,3.3c0.1,0.3,0,0.7-0.5,0.6
	c-1.1-0.1,0-1.5-0.9-1.7c0-1.8-0.8-3.3-1.5-4.8C381.8,144.6,381.8,144.4,381.8,144.3z"/>
<path class="st1" d="M275.8,110.8c1.1-0.4,2.1,0.6,3.2,0.5c0.9-0.1,1.9,0.3,2.7-0.5c0.2-0.2,0.6,0,0.6,0.5c0,0.5-0.5,0.6-0.7,0.9
	c-2,0.2-4,0.2-5.8-0.7C275.8,111.2,275.8,111,275.8,110.8z"/>
<path class="st1" d="M327.3,101.3c0.2-1,1.1-0.6,1.3-0.5c1.1,0.7,2.3,0.3,3.4,0.5c0.4,0.3,0.2,0.7,0.2,1c-1.7,0.3-3.2-0.5-4.8-0.6
	C327.4,101.6,327.4,101.4,327.3,101.3z"/>
<path class="st1" d="M339.3,103.8c0-0.5,0.4-0.6,0.6-0.5c0.6,0.7,1.6,0.4,2.3,0.9c0.6,0.4,1.4,0.5,2.1,0.8c0,0.3,0,0.5,0,0.8
	c-1.5-0.1-2.7-1.2-4.3-1.1C339.8,104.7,339.3,104.3,339.3,103.8z"/>
<path class="st1" d="M379.3,138.3c0.8-0.1,1.4,0.3,1.4,0.9c0,0.9,0.6,1.3,1.1,1.8c0,0.7,0,1.5,0,2.2c-0.6-0.2-0.9-0.5-1-1.2
	c-0.3-1.1-0.4-2.3-1.5-3.1C379.2,138.9,379.3,138.5,379.3,138.3z"/>
<path class="st1" d="M258.3,237.3c-0.1,0.3,0.1,0.6-0.2,0.9c-0.8,0.8-1.6,1.6-2.4,2.4c-0.3,0.3-0.6,0.1-0.9,0.2
	c0.1-0.3-0.1-0.6,0.2-0.9c0.8-0.8,1.6-1.6,2.4-2.4C257.7,237.1,258,237.3,258.3,237.3z"/>
<path class="st1" d="M265.8,98.3c0.2,0,0.5,0,0.9,0c0.1,1.1,0.2,2.3,0.6,3.4c0.1,0.3,0.4,1-0.5,1.1
	C265.9,101.4,265.7,99.9,265.8,98.3z"/>
<path class="st1" d="M264.3,86.8c0.7-0.2,1.1,0.2,1.5,0.8c0,1.1,0,2.2,0,3.4c0,0.3-0.2,0.4-0.5,0.4C265,89.8,264.7,88.3,264.3,86.8z
	"/>
<path class="st1" d="M329.8,233.3c0.1,0.6-0.1,1.1-1.1,1.5c-0.5,0-1.5,0-2.4,0c0-0.3,0-0.7,0-1C327.5,234,328.6,232.9,329.8,233.3z"
	/>
<path class="st1" d="M381.8,192.3c0,0.7,0,1.4,0,2.2c-0.4,0.6-1.2,0.9-1.1,1.8c-0.4,0-0.7,0-0.9,0
	C380.4,194.9,380.5,193.2,381.8,192.3z"/>
<path class="st1" d="M229.8,41.3c1.5-0.1,2.6,0.8,3.8,1.6c0.4,0.2,0.1,0.6,0.2,0.9C232.7,43.4,230.6,42.1,229.8,41.3z"/>
<path class="st1" d="M345.8,105.8c0.2,0,0.4-0.1,0.5,0c1.1,0.8,2.3,1.2,3.5,1.6c0,0.4,0,0.6,0,0.9c-1.3,0-2.2-1.1-3.5-1.3
	C345.8,106.9,345.7,106.3,345.8,105.8z"/>
<path class="st1" d="M306.8,102.3c0-0.2,0-0.5,0-0.8c0.7-0.4,1.4-0.3,2.1-0.2c0.7,0.1,1-0.9,1.7-0.5c0.1,0.1,0.1,0.3,0.2,0.4
	C309.7,102.4,308.2,102.2,306.8,102.3z"/>
<path class="st1" d="M385.3,179.3c1,0.6,0.2,1.6,0.5,2.2c-0.5,0.6-0.9,1-1.5,0.8c0-1,0.7-1.8,0.6-2.8
	C384.9,179.4,385.2,179.3,385.3,179.3z"/>
<path class="st1" d="M384.3,184.3c0.3-0.1,0.6,0.2,0.5,0.4c-0.6,0.9-0.5,2-0.5,2.9c-0.3,0.4-0.7,0.2-1,0.3
	C383.3,186.5,383.3,185.2,384.3,184.3z"/>
<path class="st1" d="M384.3,153.3c0.6-0.1,1.1,0.1,1.5,0.9c-0.3,0.5,0.5,1.5-0.5,2.1c-0.1-0.1-0.4-0.1-0.4-0.2
	C385,155.1,384.3,154.3,384.3,153.3z"/>
<path class="st1" d="M334.8,102.8c0.6-1.1,1.6-0.1,2.2-0.5c0.6,0.5,1,0.9,0.8,1.5c-1,0-1.8-0.7-2.8-0.6
	C334.9,103.2,334.9,102.9,334.8,102.8z"/>
<path class="st2" d="M326.3,233.8c0,0.3,0,0.7,0,1c-0.8,0-1.6,0-2.4,0c-0.3,0-0.6,0-0.6-0.5c0-0.5,0.3-0.5,0.6-0.5
	C324.7,233.8,325.5,233.8,326.3,233.8z"/>
<path class="st1" d="M255.8,65.8c0.4,0,0.8,0,1.4,0c-0.2,1,0.9,1.3,1.1,2c-0.1,0.4-0.2,0.6-0.5,0.5
	C256.7,67.8,256.6,66.5,255.8,65.8z"/>
<path class="st1" d="M132.8,94.3c-0.7-0.9-0.5-1.9-0.5-2.7c0.4-0.4,0.7-0.2,1-0.3c0,0.8,0,1.6,0,2.4C133.3,94,133.3,94.3,132.8,94.3
	z"/>
<path class="st1" d="M263.3,82.3c0.2,0,0.5,0,0.8,0c0.2,0.5,1.4,2.5,0.2,2.5C263.4,84.2,263.3,83.2,263.3,82.3z"/>
<path class="st1" d="M211.8,35.3c0.4-1.1,1.2-0.3,1.8-0.5c0.5,0.4,0.9,0.8,0.7,1.5C213.6,36.2,212.1,35.6,211.8,35.3z"/>
<path class="st1" d="M261.8,77.8c0.6-0.1,1.1,0.1,1.4,0.8c-0.2,0.5,0.6,1.3-0.4,1.7c-0.1,0-0.2,0-0.2,0
	C262.5,79.4,261.8,78.7,261.8,77.8z"/>
<path class="st2" d="M263.8,235.3c-0.8,0-1.7,0-2.5,0c0-0.2,0-0.5,0-0.8c0.8-0.4,1.7-0.1,2.5-0.2
	C263.8,234.6,263.8,234.9,263.8,235.3z"/>
<path class="st1" d="M39.8,189.3c-0.2,0-0.5,0-0.8,0c-0.4-0.7-0.2-1.4-0.2-2.1c0-0.2,0.2-0.4,0.5-0.4c0.4,0,0.5,0.3,0.5,0.6
	C39.8,188,39.8,188.6,39.8,189.3z"/>
<path class="st1" d="M39.3,175.3c-1.1-0.5-0.3-1.4-0.5-2.1c0-0.1,0-0.1,0.1-0.2c0.3-0.3,0.6-0.1,0.9-0.2c0,0.6,0,1.3,0,1.9
	C39.8,175,39.8,175.3,39.3,175.3z"/>
<path class="st1" d="M242.8,216.3c1.3,0.3,1.7,0.7,2,2C243.5,218,243.1,217.5,242.8,216.3z"/>
<path class="st1" d="M83.8,128.3c0-0.2,0-0.5,0-0.9c0.8-0.3,1.5-0.1,2.3-0.1c0.4,0.3,0.2,0.7,0.2,1
	C85.5,128.3,84.7,128.3,83.8,128.3z"/>
<path class="st1" d="M375.8,131.8c0.6-0.1,1,0.2,1.5,0.8c0,0.5,0,1.1,0,1.7C376.8,133.5,375.8,132.9,375.8,131.8z"/>
<path class="st1" d="M383.3,189.3c0,1.7-0.1,1.8-1.5,2c-0.2-0.8,0.6-1.2,0.6-2C382.7,189.3,383,189.3,383.3,189.3z"/>
<path class="st1" d="M258.3,69.8c0.6-0.1,1.1,0.1,1.5,1.1c0,0.2,0,0.8,0,1.4C259.3,71.5,258.3,70.9,258.3,69.8z"/>
<path class="st1" d="M173.3,188.8c-0.1,1.9-0.1,1.9-2,2C171.8,189.9,172.5,189.2,173.3,188.8z"/>
<path class="st1" d="M180.8,181.3c-0.1,1.9-0.1,1.9-2,2C179.3,182.4,180,181.7,180.8,181.3z"/>
<path class="st1" d="M178.8,37.8c-0.1-0.7,0.2-1.3,0.9-1.5c0.3-0.1,1-0.4,1.1,0.5C180.3,37.4,179.7,37.8,178.8,37.8z"/>
<path class="st1" d="M161.8,235.3c-0.2,1-0.9,0.1-1.2,0.6c-0.4-0.6-0.2-1.1-0.3-1.6c0.5,0,1,0,1.5,0
	C161.8,234.6,161.8,234.9,161.8,235.3z"/>
<path class="st1" d="M253.3,244.3c1,0.3,0.3,1.1,0.5,1.6c0,0.1,0,0.1-0.1,0.2c-0.3,0.3-0.6,0.1-0.9,0.2c0-0.5,0-0.9,0-1.4
	C252.8,244.5,252.9,244.2,253.3,244.3z"/>
<path class="st1" d="M249.8,56.8c1.4,0.2,1.5,0.3,1.5,2C250.5,58.3,249.7,57.9,249.8,56.8z"/>
<path class="st1" d="M265.8,208.8c-0.2,0-0.5,0-0.8,0c-0.4-0.6-0.2-1.2-0.2-1.8c0.3-0.3,0.6-0.1,0.9-0.2
	C265.8,207.4,265.8,208.1,265.8,208.8z"/>
<path class="st1" d="M251.8,59.3c1.4,0.2,1.5,0.3,1.5,2C252.5,60.8,251.7,60.4,251.8,59.3z"/>
<path class="st1" d="M254.3,241.8c1.2-0.1-0.1,1.7-0.3,2c-0.2,0-0.5,0-0.7,0C253.3,242.9,253.7,242.3,254.3,241.8z"/>
<path class="st1" d="M155.8,50.3c0.2-1.4,0.3-1.5,2-1.5C157.4,49.6,156.9,50.3,155.8,50.3z"/>
<path class="st1" d="M239.3,47.3c1.7,0,1.8,0.1,2,1.5C240.2,48.8,239.8,48.1,239.3,47.3z"/>
<path class="st1" d="M213.8,154.8c0,0.2,0,0.5,0,0.8c-0.6,0.6-1.2,0-1.7,0.3c-0.4-0.4-0.2-0.7-0.3-1
	C212.5,154.8,213.2,154.8,213.8,154.8z"/>
<path class="st1" d="M210.8,154.8c0,0.2,0,0.5,0,0.9c-0.7,0-1.4,0.5-2-0.4c0-0.4,0.2-0.5,0.6-0.5
	C209.9,154.8,210.4,154.8,210.8,154.8z"/>
<path class="st1" d="M268.3,105.8c1.4,0.2,1.5,0.3,1.5,2C269,107.3,268.2,106.9,268.3,105.8z"/>
<path class="st1" d="M260.8,75.3c0.7-0.1,1.3,0.2,1.5,0.9c0.1,0.3,0.4,1-0.5,1.1c0-0.5-0.4-0.7-0.7-0.9
	C260.8,76,260.8,75.6,260.8,75.3z"/>
<path class="st1" d="M79.8,129.3c0-0.2,0-0.5,0-0.9c0.7,0,1.4-0.5,2,0.4c0,0.4-0.2,0.5-0.6,0.5C80.8,129.3,80.3,129.3,79.8,129.3z"
	/>
<path class="st1" d="M265.3,91.8c0.2,0,0.5,0,0.9,0c0,0.7,0.5,1.4-0.4,2c-0.4,0-0.5-0.2-0.5-0.6C265.3,92.7,265.3,92.2,265.3,91.8z"
	/>
<path class="st1" d="M237.8,46.3c0-0.6,0.5-0.6,0.8-0.4c0.5,0.3,0.8,0.7,0.7,1.4C238.5,47.3,238,47,237.8,46.3z"/>
<path class="st1" d="M336.8,232.3c0,0.3,0,0.6,0,1c-0.8,0-1.4,0-2,0C335.1,232.2,336,232.2,336.8,232.3z"/>
<path class="st1" d="M378.3,135.8c0.3,0,0.6,0,1,0c0,0.8,0,1.4,0,2C378.2,137.5,378.3,136.6,378.3,135.8z"/>
<path class="st1" d="M266.8,103.3c0.7-0.2,1.1,0.2,1.4,0.7c0.2,0.3,0.2,0.8-0.4,0.8C267,104.6,266.7,104,266.8,103.3z"/>
<path class="st1" d="M259.8,72.3c0.3,0,0.6,0,1,0c0,0.8,0,1.4,0,2C259.7,74,259.8,73.1,259.8,72.3z"/>
<path class="st1" d="M350.8,108.8c0-0.6,0.5-0.6,0.8-0.4c0.5,0.3,0.8,0.7,0.7,1.4C351.5,109.8,351,109.5,350.8,108.8z"/>
<path class="st1" d="M184.8,36.3c-0.2-0.7,0.2-1.1,0.7-1.4c0.3-0.2,0.8-0.2,0.8,0.4C186.1,36,185.6,36.3,184.8,36.3z"/>
<path class="st1" d="M175.8,38.8c-0.2-0.7,0.2-1.1,0.7-1.4c0.3-0.2,0.8-0.2,0.8,0.4C177.1,38.5,176.6,38.8,175.8,38.8z"/>
<path class="st1" d="M235.8,44.8c0.5,0,0.9,0,1.5,0c0,0.6,0,1,0,1.5C236.6,46,236.1,45.5,235.8,44.8z"/>
<path class="st1" d="M244.8,218.3c0.5,0,0.9,0,1.5,0c0,0.6,0,1,0,1.5C245.6,219.5,245.1,219,244.8,218.3z"/>
<path class="st1" d="M164.8,218.3c0.5,0,0.9,0,1.5,0c0,0.6,0,1,0,1.5C165.6,219.5,165.1,219,164.8,218.3z"/>
<path class="st1" d="M368.3,213.3c0,0.5,0,0.9,0,1.5c-0.6,0-1,0-1.5,0C367.1,214.1,367.6,213.6,368.3,213.3z"/>
<path class="st1" d="M265.3,211.3c-0.9-0.2-0.4-0.8-0.4-1.3c0.3-0.3,0.6-0.1,0.9-0.2C265.6,210.2,266.3,211,265.3,211.3z"/>
<path class="st1" d="M41.8,164.3c-0.9-0.2-0.4-0.8-0.4-1.3c0.3-0.3,0.6-0.1,0.9-0.2C42.1,163.2,42.8,164,41.8,164.3z"/>
<path class="st1" d="M40.3,169.8c-0.9-0.2-0.4-0.8-0.4-1.3c0.3-0.3,0.6-0.1,0.9-0.2C40.6,168.7,41.3,169.5,40.3,169.8z"/>
<path class="st1" d="M193.3,168.8c0,0.5,0,0.9,0,1.5c-0.6,0-1,0-1.5,0C192.1,169.6,192.6,169.1,193.3,168.8z"/>
<path class="st1" d="M358.3,113.3c0.5,0,0.9,0,1.5,0c0,0.6,0,1,0,1.5C359.1,114.5,358.6,114,358.3,113.3z"/>
<path class="st1" d="M364.3,118.3c0.5,0,0.9,0,1.5,0c0,0.6,0,1,0,1.5C365.1,119.5,364.6,119,364.3,118.3z"/>
<path class="st1" d="M352.8,109.8c0-0.2,0.2-0.5,0.3-0.4c0.3,0.5,1,0.2,1.2,0.7c0,0.2,0,0.5,0,0.7
	C353.5,110.8,353,110.5,352.8,109.8z"/>
<path class="st1" d="M224.8,38.8c0.5,0,0.9,0,1.5,0c0,0.4,0,0.7,0,1c-0.5,0-0.9,0-1.5,0C224.8,39.3,224.8,39.1,224.8,38.8z"/>
<path class="st1" d="M259.8,235.8c0,0.5,0,0.9,0,1.5c-0.6,0-1,0-1.5,0C258.6,236.6,259.1,236.1,259.8,235.8z"/>
<path class="st1" d="M263.8,235.3c0-0.3,0-0.7,0-1c0.3,0,0.7,0,1,0c-0.1,0.5,0.1,1-0.2,1.4C264.3,235.8,263.9,235.9,263.8,235.3z"/>
<path class="st1" d="M170.3,191.8c0,0.5,0,0.9,0,1.5c-0.6,0-1,0-1.5,0C169.1,192.6,169.6,192.1,170.3,191.8z"/>
<path class="st1" d="M40.8,193.8c-0.2,0-0.5,0-0.8,0c-0.2-0.5-0.6-1.1,0.3-1.5C41.3,192.5,40.6,193.3,40.8,193.8z"/>
<path class="st2" d="M87.8,234.3c-0.2,0.9-0.8,0.4-1.3,0.4c-0.3-0.3-0.1-0.6-0.2-0.9C86.8,233.9,87.6,233.3,87.8,234.3z"/>
<path class="st1" d="M265.8,205.8c-0.2,0-0.5,0-0.8,0c-0.2-0.5-0.6-1.1,0.3-1.5C266.3,204.5,265.6,205.3,265.8,205.8z"/>
<path class="st1" d="M216.3,155.3c-0.2,0.9-0.8,0.4-1.3,0.4c-0.3-0.3-0.1-0.6-0.2-0.9C215.3,154.9,216.1,154.3,216.3,155.3z"/>
<path class="st1" d="M365.8,119.8c0.5,0,0.9,0,1.5,0c0,0.4,0,0.7,0,1C366.5,120.8,366,120.5,365.8,119.8z"/>
<path class="st1" d="M376.8,202.3c0,0.5,0,0.9,0,1.5c-0.4,0-0.7,0-1,0C375.7,203,376,202.5,376.8,202.3z"/>
<path class="st1" d="M375.8,203.8c0,0.5,0,0.9,0,1.5c-0.4,0-0.7,0-1,0C374.7,204.5,375,204,375.8,203.8z"/>
<path class="st1" d="M165.8,43.3c0-0.3,0-0.6,0-1c0.6,0,1,0,1.5,0C167.1,43,166.6,43.3,165.8,43.3z"/>
<path class="st1" d="M234.3,43.8c0.5,0,0.9,0,1.5,0c0,0.4,0,0.7,0,1C235,44.8,234.5,44.5,234.3,43.8z"/>
<path class="st1" d="M374.3,205.8c0,0.5,0,0.9,0,1.5c-0.4,0-0.7,0-1,0C373.2,206.5,373.5,206,374.3,205.8z"/>
<path class="st1" d="M241.8,49.3c0.5,0,0.9,0,1.5,0c0,0.4,0,0.7,0,1C242.5,50.3,242,50,241.8,49.3z"/>
<path class="st1" d="M139.8,70.3c0-0.5,0-0.9,0-1.5c0.4,0,0.7,0,1,0C140.9,69.5,140.6,70.1,139.8,70.3z"/>
<path class="st1" d="M44.8,156.8c0-0.5,0-0.9,0-1.5c0.4,0,0.7,0,1,0C45.9,156,45.6,156.6,44.8,156.8z"/>
<path class="st1" d="M46.3,154.3c0-0.5,0-0.9,0-1.5c0.4,0,0.7,0,1,0C47.4,153.5,47.1,154.1,46.3,154.3z"/>
<path class="st1" d="M362.8,218.8c0,0.3,0,0.6,0,1c-0.6,0-1,0-1.5,0C361.5,219,362,218.7,362.8,218.8z"/>
<path class="st1" d="M358.3,222.3c0,0.3,0,0.6,0,1c-0.6,0-1,0-1.5,0C357,222.5,357.5,222.2,358.3,222.3z"/>
<path class="st1" d="M351.8,226.3c0,0.3,0,0.6,0,1c-0.6,0-1,0-1.5,0C350.5,226.5,351,226.2,351.8,226.3z"/>
<path class="st1" d="M346.8,228.8c0,0.3,0,0.6,0,1c-0.6,0-1,0-1.5,0C345.5,229,346,228.7,346.8,228.8z"/>
<path class="st1" d="M71.8,230.8c-0.5,0-0.9,0-1.5,0c0-0.4,0-0.7,0-1C71.1,229.7,71.6,230,71.8,230.8z"/>
<path class="st1" d="M340.3,231.3c0,0.3,0,0.6,0,1c-0.6,0-1,0-1.5,0C339,231.5,339.5,231.2,340.3,231.3z"/>
<path class="st1" d="M170.8,241.8c-0.3,0-0.6,0-1,0c0-0.6,0-1,0-1.5C170.6,240.5,170.9,241,170.8,241.8z"/>
<path class="st1" d="M377.3,134.3c0.3,0,0.6,0,1,0c0,0.6,0,1,0,1.5C377.5,135.6,377.2,135,377.3,134.3z"/>
<path class="st1" d="M42.3,162.3c0-0.5,0-0.9,0-1.5c0.4,0,0.7,0,1,0C43.4,161.5,43.1,162.1,42.3,162.3z"/>
<path class="st1" d="M71.3,132.3c0-0.3,0-0.6,0-1c0.6,0,1,0,1.5,0C72.6,132,72.1,132.3,71.3,132.3z"/>
<path class="st1" d="M73.8,131.3c0-0.3,0-0.6,0-1c0.6,0,1,0,1.5,0C75.1,131,74.6,131.3,73.8,131.3z"/>
<path class="st1" d="M372.8,127.3c0.3,0,0.6,0,1,0c0,0.6,0,1,0,1.5C373,128.6,372.7,128,372.8,127.3z"/>
<path class="st1" d="M370.8,124.8c0.3,0,0.6,0,1,0c0,0.6,0,1,0,1.5C371,126.1,370.7,125.5,370.8,124.8z"/>
<path class="st1" d="M356.8,112.3c0.5,0,0.9,0,1.5,0c0,0.4,0,0.7,0,1C357.5,113.3,357,113,356.8,112.3z"/>
<path class="st1" d="M367.3,120.8c0.3,0,0.6,0,1,0c0,0.6,0,1,0,1.5C367.5,122.1,367.2,121.5,367.3,120.8z"/>
<path class="st1" d="M378.8,198.8c0.7,0,0.4,0.5,0.5,0.7c-0.4,0.4-0.7,0.2-1,0.3C378.4,199.4,378.1,198.8,378.8,198.8z"/>
<path class="st1" d="M284.3,110.8c0-0.3,0-0.6,0-0.9c0.6-0.1,1-0.2,1,0.4C285.3,111,284.7,110.7,284.3,110.8z"/>
<path class="st1" d="M273.3,110.3c0-0.7,0.5-0.4,0.7-0.5c0.4,0.4,0.2,0.7,0.3,1C273.9,110.7,273.4,111,273.3,110.3z"/>
<path class="st1" d="M271.3,108.8c0.3,0,0.6,0,1,0c0,0.4,0,0.7,0,1c-0.3,0-0.6,0-1,0C271.3,109.3,271.3,109,271.3,108.8z"/>
<path class="st1" d="M287.3,109.3c0-0.3,0-0.6,0-1c0.4,0,0.7,0,1,0c0,0.3,0,0.6,0,1C287.9,109.3,287.6,109.3,287.3,109.3z"/>
<path class="st2" d="M81.8,233.8c-0.3,0-0.6,0-1,0c0-0.4,0-0.7,0-1c0.3,0,0.6,0,1,0C81.8,233.2,81.8,233.5,81.8,233.8z"/>
<path class="st1" d="M78.3,232.8c0,0.7-0.5,0.4-0.7,0.5c-0.4-0.4-0.2-0.7-0.3-1C77.7,232.3,78.3,232,78.3,232.8z"/>
<path class="st1" d="M297.8,104.8c0-0.3,0-0.6,0-0.9c0.6-0.1,1-0.2,1,0.4C298.8,105,298.2,104.7,297.8,104.8z"/>
<path class="st1" d="M302.3,103.3c0-0.3,0-0.6,0-0.9c0.6-0.1,1-0.2,1,0.4C303.3,103.5,302.7,103.2,302.3,103.3z"/>
<path class="st1" d="M171.8,243.8c-0.3,0-0.6,0-0.9,0c-0.1-0.6-0.2-1,0.4-1C172.1,242.8,171.7,243.4,171.8,243.8z"/>
<path class="st1" d="M163.3,198.8c0,0.3,0,0.6,0,1c-0.4,0-0.7,0-1,0c0-0.3,0-0.6,0-1C162.7,198.8,163,198.8,163.3,198.8z"/>
<path class="st1" d="M344.3,229.8c0,0.3,0,0.6,0,0.9c-0.6,0.1-1,0.2-1-0.4C343.4,229.5,343.9,229.8,344.3,229.8z"/>
<path class="st1" d="M42.3,199.3c-0.3,0-0.6,0-0.9,0c-0.1-0.6-0.2-1,0.4-1C42.6,198.3,42.2,198.9,42.3,199.3z"/>
<path class="st1" d="M171.3,252.8c-0.7,0-0.4-0.5-0.5-0.7c0.4-0.4,0.7-0.2,1-0.3C171.7,252.1,172.1,252.7,171.3,252.8z"/>
<path class="st1" d="M349.8,227.3c0,0.3,0,0.6,0,0.9c-0.6,0.1-1,0.2-1-0.4C348.9,227,349.4,227.3,349.8,227.3z"/>
<path class="st1" d="M135.3,81.8c-0.7,0-0.4-0.5-0.5-0.7c0.4-0.4,0.7-0.2,1-0.3C135.7,81.1,136.1,81.7,135.3,81.8z"/>
<path class="st1" d="M163.8,217.3c0.3,0,0.6,0,1,0c0,0.4,0,0.7,0,1c-0.3,0-0.6,0-1,0C163.8,217.8,163.8,217.5,163.8,217.3z"/>
<path class="st1" d="M216.3,36.3c0-0.7,0.5-0.4,0.7-0.5c0.4,0.4,0.2,0.7,0.3,1C216.9,36.7,216.4,37,216.3,36.3z"/>
<path class="st1" d="M162.3,215.8c0.3,0,0.6,0,1,0c0,0.4,0,0.7,0,1c-0.3,0-0.6,0-1,0C162.3,216.3,162.3,216,162.3,215.8z"/>
<path class="st2" d="M161.8,235.3c0-0.3,0-0.7,0-1c0.3,0,0.6,0,1,0c0,0.4,0,0.7,0,1C162.5,235.3,162.2,235.3,161.8,235.3z"/>
<path class="st1" d="M370.3,211.3c0,0.3,0,0.6,0,1c-0.4,0-0.7,0-1,0c0-0.3,0-0.6,0-1C369.7,211.3,370,211.3,370.3,211.3z"/>
<path class="st1" d="M172.8,39.8c0-0.3,0-0.6,0-0.9c0.6-0.1,1-0.2,1,0.4C173.8,40,173.2,39.7,172.8,39.8z"/>
<path class="st1" d="M232.3,205.8c0.3,0,0.6,0,1,0c0,0.4,0,0.7,0,1c-0.3,0-0.6,0-1,0C232.3,206.3,232.3,206,232.3,205.8z"/>
<path class="st1" d="M227.3,40.3c0-0.7,0.5-0.4,0.7-0.5c0.4,0.4,0.2,0.7,0.3,1C227.9,40.7,227.4,41,227.3,40.3z"/>
<path class="st1" d="M167.3,42.3c0-0.3,0-0.6,0-0.9c0.6-0.1,1-0.2,1,0.4C168.3,42.5,167.7,42.2,167.3,42.3z"/>
<path class="st1" d="M44.3,157.8c0-0.3,0.2-0.5,0.5-0.5C44.8,157.6,44.7,157.8,44.3,157.8z"/>
<path class="st1" d="M48.3,151.3c0-0.3,0.2-0.5,0.5-0.5C48.8,151.1,48.7,151.3,48.3,151.3z"/>
<path class="st1" d="M49.3,149.8c0-0.3,0.2-0.5,0.5-0.5C49.8,149.6,49.7,149.8,49.3,149.8z"/>
<path class="st2" d="M198.8,200.8c0-0.2,0-0.5,0.3-0.4c0.1,0,0.1,0.3,0.2,0.4C199.2,200.8,199,200.8,198.8,200.8z"/>
</svg>
