<?xml version="1.0" encoding="utf-8"?>
<!-- Generator: Adobe Illustrator 27.5.0, SVG Export Plug-In . SVG Version: 6.00 Build 0)  -->
<svg version="1.1" id="Layer_1" xmlns="http://www.w3.org/2000/svg" xmlns:xlink="http://www.w3.org/1999/xlink" x="0px" y="0px"
	 width="190.1px" height="174.5px" viewBox="0 0 190.1 174.5" style="enable-background:new 0 0 190.1 174.5;" xml:space="preserve"
	>
<style type="text/css">
	.st0{fill:#FFFFFF;}
	.st1{fill:#00B200;stroke:#00B200;stroke-width:10;stroke-miterlimit:10;}
</style>
<circle class="st0" cx="95.1" cy="87.2" r="83.7"/>
<path class="st1" d="M93.3,65c1.2-7.2,3.9-13.5,8.6-19c3.5-4.1,7.6-7,11.9-9.9c0.8-0.5,1.4-0.6,2.4,0.1c5.7,4.5,8.2,10.7,9.6,17.4
	c0.8,4,0.1,8.2-1.2,12.1c-1.3,3.6-3.1,6.9-5.3,10c-0.3,0.4-0.7,0.7-0.4,1.2c0.2,0.3,0.7,0.1,1.1,0.1c3.5-0.3,6.9-0.8,10.4-0.4
	c3.2,0.3,6.5,0.6,9.6,1.5c5.5,1.5,10.5,4.1,15,7.6c2.2,1.8,2.1,2,0.7,4.4c-3.2,5.2-7.9,8.7-12.9,11.9c-4.6,3-9.5,5-15.2,4.4
	c-3.1-0.3-6.2-0.6-9.2-1.8c-0.3-0.1-0.6-0.3-1-0.1c2,3.3,3.7,6.8,4.5,10.6c0.6,3,1,5.9,0.7,9c-0.4,3.3-0.5,6.7-1.2,10.1
	c-0.1,0.3,0,0.5-0.1,0.8c-1.2,4.3-1.2,4.1-5.8,3.5c-3.9-0.5-7.7-0.9-11.1-2.8c-4.5-2.4-7.8-6-10.6-10.2c-3.1-4.7-3.8-10.1-4.8-15.6
	c-1.9,1.8-3.7,3.6-5.6,5.3c-4.1,3.5-8.9,5.5-14.1,6.8c-2.8,0.7-5.7,0.9-8.5,1.2c-2.3,0.2-4.6-0.3-6.9-0.6c-0.7-0.1-1-0.9-1.1-1.4
	c-0.2-2.2-0.7-4.5-0.1-6.8c0.4-1.6,0.3-3.3,0.3-5c0.3-4.8,2.2-8.9,5-12.7c3.6-4.8,8.4-8,13.9-10.1c1.3-0.5,2.6-1.1,4.3-1
	c-0.7-1.2-1.9-1.3-2.8-1.6c-5-2-9.5-4.8-13.5-8.3c-2.1-1.8-3.7-4.2-4.9-6.6c-2-3.9-4.2-7.7-5.4-12c-0.3-1-0.1-1.4,0.7-1.9
	c6.1-3.5,12.6-5.7,19.7-4.9c5.5,0.5,10.6,2.4,15.2,6c2.5,2,4.1,4.6,6.2,6.9C91.9,63.7,92.4,64.3,93.3,65z M82.3,85.2
	c-4.4,2-8.2,4.6-11.3,8.1c-2.9,3.2-4.5,7.2-5.9,11.2c-0.6,1.7-1,3.5-0.8,5.4c0.1,0.9,0.4,1.5,1.4,1.6c3.6,0.1,7.1,0,10.6-0.9
	c5.4-1.4,10.5-3.2,14.7-7.4c0.4,3.9,1.4,7.3,3,10.5c3.2,6.5,9,10,15.8,12c2.6,0.7,3.4,0.1,4.2-2.4c0.6-1.9,1.1-3.8,1.4-5.8
	c0.4-2.5,0.8-5.1,0.7-7.6c-0.1-3-0.4-6-2-8.9c0.5,0.1,0.7,0.1,1.1,0.1c3.5,1.2,7.2,1.8,10.8,1.1c7.2-1.5,13-5.3,16.6-11.9
	c1.2-2.2,1.2-2.2-0.5-3.7c-6.6-5.6-14.4-7.4-22.8-7.2c-1.2,0.1-2.4,0.3-3.7,0.3c-0.9,0-1.2-0.3-0.6-1.1c3.2-5.5,5.3-11.3,4.5-17.8
	c-0.4-3.2-1.4-6.2-3-9c-0.8-1.3-2-1.8-3.5-1.5c-4.5,1.2-8.4,3.5-11.7,6.6c-3.5,3.3-5.3,7.8-6.8,12.2c-0.1,0.3,0.2,0.9-0.3,1
	c-0.4,0.1-0.5-0.4-0.8-0.7c-3.2-3.9-6.6-7.5-11.4-9.5c-5.3-2.1-10.4-2.6-15.7-0.3c-4.1,1.8-3.5,0.9-2.8,4.9c1,5.9,3.6,10.9,8.3,14.7
	C74.9,81.8,78.6,83.4,82.3,85.2z"/>
</svg>
