<?xml version="1.0" encoding="utf-8"?>
<!-- Generator: Adobe Illustrator 27.5.0, SVG Export Plug-In . SVG Version: 6.00 Build 0)  -->
<svg version="1.1" id="Layer_1" xmlns="http://www.w3.org/2000/svg" xmlns:xlink="http://www.w3.org/1999/xlink" x="0px" y="0px"
	 width="896px" height="174.5px" viewBox="0 0 896 174.5" style="enable-background:new 0 0 896 174.5;" xml:space="preserve">
<style type="text/css">
	.st0{fill:#192752;}
	.st1{fill:#2B6FC9;}
</style>
<path class="st0" d="M84.6,54.4c1.8-10.7,5.8-20,12.7-28.1c5.1-6,11.3-10.3,17.6-14.7c1.2-0.8,2.1-0.9,3.5,0.2
	c8.4,6.6,12.1,15.8,14.2,25.7c1.2,5.9,0.2,12.1-1.8,17.9c-1.9,5.3-4.6,10.2-7.8,14.8c-0.4,0.6-1,1.1-0.6,1.7
	c0.3,0.5,1.1,0.2,1.6,0.2c5.1-0.5,10.2-1.2,15.4-0.6c4.8,0.5,9.6,0.9,14.2,2.2c8.2,2.2,15.5,6,22.1,11.3c3.2,2.6,3.1,3,1,6.5
	c-4.7,7.7-11.7,12.8-19,17.6c-6.8,4.5-14.1,7.4-22.4,6.5c-4.6-0.5-9.2-0.9-13.6-2.6c-0.5-0.2-0.9-0.5-1.5-0.1c3,4.9,5.5,10,6.7,15.7
	c0.9,4.4,1.5,8.7,1,13.3c-0.6,4.9-0.8,9.9-1.7,14.9c-0.1,0.4,0,0.8-0.2,1.2c-1.7,6.3-1.7,6-8.5,5.2c-5.7-0.7-11.4-1.4-16.4-4.2
	c-6.6-3.5-11.6-8.9-15.7-15.1c-4.6-7-5.6-15-7.1-23.1c-2.8,2.6-5.5,5.3-8.3,7.8c-6,5.2-13.2,8.1-20.8,10.1
	c-4.2,1.1-8.4,1.4-12.6,1.7c-3.4,0.3-6.8-0.5-10.2-0.9c-1.1-0.1-1.5-1.3-1.6-2c-0.3-3.3-1.1-6.6-0.2-10c0.6-2.3,0.4-4.9,0.5-7.4
	c0.4-7.1,3.2-13.1,7.4-18.7c5.3-7.1,12.4-11.8,20.6-15c1.9-0.8,3.9-1.6,6.3-1.5c-1-1.7-2.8-1.9-4.1-2.4c-7.4-2.9-14-7.1-20-12.3
	c-3.1-2.7-5.4-6.2-7.2-9.8c-3-5.7-6.2-11.4-8-17.7c-0.4-1.5-0.1-2.1,1-2.8c9-5.1,18.6-8.4,29.1-7.3c8.2,0.8,15.7,3.5,22.4,8.8
	c3.7,2.9,6.1,6.8,9.2,10.2C82.6,52.5,83.3,53.4,84.6,54.4z M68.4,84.3c-6.5,3-12.1,6.8-16.7,11.9c-4.3,4.8-6.6,10.7-8.7,16.5
	c-0.9,2.5-1.5,5.2-1.2,8c0.2,1.3,0.6,2.2,2.1,2.3c5.3,0.1,10.5,0,15.7-1.3c8-2,15.5-4.7,21.7-10.9c0.6,5.7,2,10.8,4.4,15.5
	c4.8,9.6,13.3,14.8,23.3,17.7c3.9,1.1,5,0.2,6.2-3.6c0.9-2.8,1.6-5.6,2-8.5c0.6-3.7,1.2-7.5,1-11.2c-0.2-4.4-0.6-8.9-2.9-13.1
	c0.8,0.1,1.1,0.1,1.6,0.2c5.2,1.8,10.7,2.7,16,1.6c10.6-2.2,19.2-7.9,24.6-17.6c1.8-3.2,1.8-3.3-0.8-5.5c-9.7-8.3-21.3-11-33.7-10.6
	c-1.8,0.1-3.6,0.4-5.4,0.4c-1.3,0-1.7-0.4-0.9-1.6c4.7-8.1,7.8-16.7,6.6-26.3c-0.6-4.7-2-9.2-4.5-13.3c-1.2-1.9-2.9-2.7-5.1-2.2
	c-6.7,1.7-12.4,5.1-17.3,9.8c-5.2,4.9-7.8,11.5-10,18.1c-0.2,0.5,0.3,1.3-0.5,1.5c-0.6,0.1-0.8-0.6-1.2-1.1C80,55.2,75,49.9,67.8,47
	c-7.8-3.1-15.3-3.9-23.2-0.5c-6,2.6-5.2,1.4-4.2,7.2c1.5,8.7,5.3,16.1,12.3,21.8C57.5,79.3,62.9,81.6,68.4,84.3z"/>
<g>
	<path class="st1" d="M644.9,89.4c0-20,0-40,0-60c0-4.8,0.7-5.5,5.6-5.5c18.6,0,37.2-0.4,55.8,0.1c17.5,0.5,31.1,8.6,38.8,24.8
		c9.1,19.3,2.2,42.5-15.9,53.2c-1.9,1.1-2.1,1.8-0.8,4c4.4,7.7,8.2,15.7,12.4,23.5c3.4,6.5,7.1,12.9,10.6,19.4c2.2,4,1,5.8-3.7,5.8
		c-9.2,0-18.5,0-27.7,0c-2.6,0-4.2-0.9-5.4-3.4c-6.5-12.6-13.4-25-19.9-37.6c-1-1.9-2-2.5-4.1-2.6c-11.5-0.2-11.5-0.2-11.5,11.1
		c0,8.9,0,17.9,0,26.8c0,4.3-1.3,5.6-5.7,5.6c-7.8,0.1-15.7-0.1-23.5,0.1c-3.6,0.1-4.9-1.4-4.9-5C645,129.6,644.9,109.5,644.9,89.4z
		 M678.9,67c0,4.5,0,9,0,13.4c0,1.4-0.1,2.9,2.1,2.8c6.9-0.4,13.9,0.8,20.7-0.7c7-1.5,11.7-6.7,11.9-14.4c0.2-6.7-2.5-13.3-9.9-15.6
		c-7.5-2.3-15.4-1.8-23.1-1.7c-1.9,0-1.6,1.5-1.7,2.8C678.9,58,678.9,62.5,678.9,67z"/>
	<path class="st1" d="M607.9,129.5c-5.4,4.4-9.7,10-15.7,13.8c-8.2,5.1-16.8,9.3-26.5,10.5c-18.5,2.1-37.1,0.4-55.6,0.9
		c-2.9,0.1-3-1.8-3-3.9c0-7.4,0-14.8,0-22.2c-0.1-16.2-0.1-32.4-0.2-48.6c0.1-16.6,0.1-33.3,0.2-49.9c0-5.7,0.6-6.3,6.2-6.3
		c13,0,26-0.3,39,0.1c16.3,0.5,31.4,4.6,44.5,15.1c13.2,10.5,21,23.9,23.6,40.2c2.9,17.9-0.8,34.6-12.2,49.2
		C608,128.6,608,129.1,607.9,129.5z M550.6,123c1.8-0.1,3.6-0.2,5.4-0.2c7.8-0.3,14.7-3.3,20.3-8.4c8.3-7.5,11.6-16.9,10.7-28.2
		c-1-11.9-6.6-20.5-16.9-26.3c-8.2-4.7-17.3-4.4-26.3-4.5c-2.8,0-3.1,1-3.1,3.4c0.1,18.4,0.2,36.9,0.2,55.3
		C541,123.8,541,123.8,550.6,123z"/>
	<path class="st1" d="M816.6,72c5-10.7,9.8-20.9,14.6-31.1c2.2-4.7,4.5-9.4,6.6-14.2c0.9-2.2,2.5-2.8,4.6-2.8
		c10.4,0,20.7,0.1,31.1,0c3.1,0,3,1.6,2,3.4c-7.2,12.5-14.5,25-21.7,37.5c-5.3,9.2-9.7,19-15.7,27.7c-4.5,6.6-4.4,13.4-4.4,20.5
		c0,12,0,24.1,0,36.1c0,4.7-1,5.7-5.6,5.7c-7.8,0-15.7-0.1-23.5,0.1c-3.8,0.1-5.2-1.4-5.2-5.2c0.1-15,0-29.9,0.1-44.9
		c0-2.1-0.4-3.9-1.5-5.8c-13.5-23.7-26.9-47.4-40.3-71.2c-1.4-2.5-1.2-3.8,2.1-3.8c10.4,0.1,20.7,0.1,31.1,0c1.8,0,2.9,0.7,3.6,2.2
		c5.1,10.1,10.1,20.2,14.5,30.6C810.9,61.8,813.8,66.6,816.6,72z"/>
	<path class="st1" d="M211.7,89.2c0-20,0.1-40-0.1-60c0-4.1,1.6-5.4,5.4-5.4c18.7,0.1,37.5-0.4,56.2,0.1c20.1,0.6,36.8,13.2,41.5,33
		c4.3,18.3-3.7,35.7-18.8,45.1c-2.2,1.4-1.6,2.2-0.8,3.6c7.6,14.3,15.2,28.6,22.7,42.9c2.5,4.8,1.8,6-3.7,6c-9,0-17.9-0.2-26.9,0.1
		c-3.5,0.1-5.2-1.2-6.7-4.1c-6.6-12.7-13.4-25.2-20-37.9c-0.7-1.3-1.2-1.6-2.4-1.6c-0.1,0-0.3,0-0.4,0c-11.7-0.6-11.7-0.6-11.7,11.1
		c0,8.1,0,16.2,0,24.3c0,7.2-0.8,8-7.8,8c-7.1,0-14.3-0.1-21.4,0.1c-3.8,0.1-5.2-1.3-5.2-5.1C211.8,129.5,211.7,109.4,211.7,89.2z
		 M246,66.8c0,4.5,0.1,8.9,0,13.4c-0.1,2.4,0.8,3.1,3.1,3c5.2-0.1,10.3,0.2,15.5-0.1c9.1-0.5,14.4-4.5,15.9-14.5
		c0.8-5.7-2.5-14.3-10.5-16.3c-7.3-1.9-14.8-1.6-22.3-1.5c-2,0-1.7,1.5-1.7,2.7C246,57.9,246,62.4,246,66.8z"/>
	<path class="st1" d="M335.6,89.2c0-20,0-40,0-60c0-5.1,0.2-5.3,5.4-5.3c14.5,0,29.1,0,43.6,0c13.4,0,26.9,0,40.3,0
		c5.1,0,6,0.9,6.1,6.1c0,6.2,0.1,12.3,0,18.5c-0.1,4.6-1.2,5.6-5.8,5.6c-17.2,0-34.4,0.1-51.6-0.1c-3.2,0-4.1,0.9-3.9,4
		c0.3,4.9,0.2,9.8,0,14.7c-0.1,2.6,0.8,3.3,3.3,3.3c12.9-0.1,25.7-0.1,38.6-0.1c5.6,0,6,0.4,6,5.9c0,4.9-0.2,9.8,0.1,14.7
		c0.2,4-1.5,5.5-5.4,5.5c-12.9-0.1-25.7,0.1-38.6-0.1c-3.2,0-4.1,0.9-3.9,4c0.3,4.7,0.3,9.5,0,14.3c-0.2,3.4,0.7,4.5,4.3,4.4
		c17.6-0.2,35.2-0.1,52.9-0.1c5,0,6.1,1.1,6.2,6.1c0.1,5.9,0.1,11.7,0,17.6c0,5.2-1.3,6.5-6.3,6.5c-28.5,0-57.1,0-85.6,0
		c-5.2,0-5.4-0.2-5.4-5.5C335.5,129.2,335.6,109.2,335.6,89.2z"/>
	<path class="st1" d="M467.8,154.7c-3.8,0-7.6-0.1-11.3,0.1c-2.7,0.1-4-0.9-4.1-3.5c-0.2-7.7-0.4-15.4,0.1-23
		c0.1-2.1,1.2-2.8,3.2-2.8c7.5,0.1,15.1,0,22.6,0c3.3,0,5.2,1.6,5.2,5.1c0,6.3,0,12.6,0,18.9c0,3.6-1.6,5.4-5.3,5.3
		C474.8,154.6,471.3,154.7,467.8,154.7z"/>
	<path class="st1" d="M467.8,55.5c3.5,0,7,0.1,10.5,0c3.6-0.1,5.4,1.5,5.4,5.3c-0.1,6.1,0,12.3,0,18.4c0,3.8-1.6,5.6-5.6,5.5
		c-6.8-0.2-13.7-0.2-20.5,0c-3.5,0.1-5.2-1.4-5.2-4.9c0-6.4,0-12.9,0-19.3c0-3.7,1.7-5.3,5.5-5C461.1,55.7,464.4,55.5,467.8,55.5z"
		/>
</g>
</svg>
