<?xml version="1.0" encoding="utf-8"?>
<!-- Generator: Adobe Illustrator 27.6.1, SVG Export Plug-In . SVG Version: 6.00 Build 0)  -->
<svg version="1.1" id="Layer_1" xmlns="http://www.w3.org/2000/svg" xmlns:xlink="http://www.w3.org/1999/xlink" x="0px" y="0px"
	 width="775.2px" height="174.5px" viewBox="0 0 775.2 174.5" style="enable-background:new 0 0 775.2 174.5;" xml:space="preserve"
	>
<style type="text/css">
	.st0{fill:#00B200;stroke:#00B200;stroke-width:10;stroke-miterlimit:10;}
</style>
<path class="st0" d="M83,60.8c1.4-8.6,4.7-16.1,10.2-22.6c4.1-4.8,9.1-8.3,14.2-11.8c1-0.6,1.7-0.7,2.8,0.2
	c6.8,5.3,9.7,12.7,11.4,20.7c1,4.8,0.2,9.7-1.4,14.4c-1.5,4.3-3.7,8.2-6.3,11.9c-0.3,0.5-0.8,0.9-0.5,1.4c0.2,0.4,0.9,0.2,1.3,0.2
	c4.1-0.4,8.2-1,12.4-0.5c3.9,0.4,7.7,0.7,11.4,1.8c6.6,1.8,12.5,4.8,17.8,9.1c2.6,2.1,2.5,2.4,0.8,5.2c-3.8,6.2-9.4,10.3-15.3,14.2
	c-5.5,3.6-11.4,6-18,5.2c-3.7-0.4-7.4-0.7-11-2.1c-0.4-0.2-0.7-0.4-1.2-0.1c2.4,3.9,4.4,8.1,5.4,12.6c0.7,3.5,1.2,7,0.8,10.7
	c-0.5,3.9-0.6,8-1.4,12c-0.1,0.3,0,0.6-0.2,1c-1.4,5.1-1.4,4.8-6.8,4.2c-4.6-0.6-9.2-1.1-13.2-3.4c-5.3-2.8-9.3-7.2-12.6-12.2
	c-3.7-5.6-4.5-12.1-5.7-18.6c-2.3,2.1-4.4,4.3-6.7,6.3c-4.8,4.2-10.6,6.5-16.8,8.1c-3.4,0.9-6.8,1.1-10.1,1.4
	c-2.7,0.2-5.5-0.4-8.2-0.7c-0.9-0.1-1.2-1-1.3-1.6c-0.2-2.7-0.9-5.3-0.2-8.1c0.5-1.9,0.3-3.9,0.4-6c0.3-5.7,2.6-10.6,6-15.1
	c4.3-5.7,10-9.5,16.6-12.1c1.5-0.6,3.1-1.3,5.1-1.2c-0.8-1.4-2.3-1.5-3.3-1.9c-6-2.3-11.3-5.7-16.1-9.9c-2.5-2.2-4.3-5-5.8-7.9
	c-2.4-4.6-5-9.2-6.4-14.3c-0.3-1.2-0.1-1.7,0.8-2.3c7.2-4.1,15-6.8,23.4-5.9c6.6,0.6,12.6,2.8,18,7.1c3,2.3,4.9,5.5,7.4,8.2
	C81.3,59.2,81.9,59.9,83,60.8z M69.9,84.8c-5.2,2.4-9.7,5.5-13.4,9.6c-3.5,3.9-5.3,8.6-7,13.3c-0.7,2-1.2,4.2-1,6.4
	c0.2,1,0.5,1.8,1.7,1.9c4.3,0.1,8.5,0,12.6-1c6.4-1.6,12.5-3.8,17.5-8.8c0.5,4.6,1.6,8.7,3.5,12.5c3.9,7.7,10.7,11.9,18.8,14.3
	c3.1,0.9,4,0.2,5-2.9c0.7-2.3,1.3-4.5,1.6-6.8c0.5-3,1-6,0.8-9c-0.2-3.5-0.5-7.2-2.3-10.6c0.6,0.1,0.9,0.1,1.3,0.2
	c4.2,1.4,8.6,2.2,12.9,1.3c8.5-1.8,15.5-6.4,19.8-14.2c1.4-2.6,1.4-2.7-0.6-4.4c-7.8-6.7-17.2-8.9-27.1-8.5
	c-1.4,0.1-2.9,0.3-4.3,0.3c-1,0-1.4-0.3-0.7-1.3c3.8-6.5,6.3-13.4,5.3-21.2c-0.5-3.8-1.6-7.4-3.6-10.7c-1-1.5-2.3-2.2-4.1-1.8
	c-5.4,1.4-10,4.1-13.9,7.9c-4.2,3.9-6.3,9.3-8.1,14.6c-0.2,0.4,0.2,1-0.4,1.2c-0.5,0.1-0.6-0.5-1-0.9c-3.8-4.7-7.8-8.9-13.6-11.3
	c-6.3-2.5-12.3-3.1-18.7-0.4c-4.8,2.1-4.2,1.1-3.4,5.8c1.2,7,4.3,13,9.9,17.6C61.1,80.8,65.5,82.7,69.9,84.8z"/>
<g>
	<path d="M273.6,143.6l-24.8-43.8h-10.6v43.8h-22.6V31.2h42.2c8.7,0,16.1,1.5,22.2,4.6c6.1,3.1,10.7,7.2,13.8,12.4
		c3.1,5.2,4.6,11,4.6,17.5c0,7.4-2.2,14.1-6.4,20.1S281.3,95.8,272.8,98l26.9,45.6H273.6z M238.2,82.9h18.8c6.1,0,10.7-1.4,13.7-4.4
		c3-3,4.5-7.1,4.5-12.3c0-5.2-1.5-9.2-4.5-12c-3-2.8-7.6-4.3-13.7-4.3h-18.8V82.9z"/>
	<path d="M341.5,49.4v28.2h37.9v17.9h-37.9v29.8h42.7v18.4h-65.2V31h65.2v18.4H341.5z"/>
	<path d="M404.5,74.3c-2.7-2.5-3.9-5.6-3.9-9.4c0-3.8,1.3-6.9,3.9-9.4s6-3.8,10.1-3.8c3.9,0,7.2,1.3,9.8,3.8
		c2.6,2.5,3.9,5.6,3.9,9.4c0,3.8-1.3,6.9-3.9,9.4c-2.6,2.5-5.9,3.8-9.8,3.8C410.5,78.1,407.2,76.8,404.5,74.3z M404.5,141
		c-2.7-2.5-3.9-5.6-3.9-9.4s1.3-6.9,3.9-9.4s6-3.8,10.1-3.8c3.9,0,7.2,1.3,9.8,3.8c2.6,2.5,3.9,5.6,3.9,9.4s-1.3,6.9-3.9,9.4
		c-2.6,2.5-5.9,3.8-9.8,3.8C410.5,144.7,407.2,143.5,404.5,141z"/>
	<path d="M517.4,38.1c8.9,4.6,15.9,11.2,20.8,19.7s7.3,18.4,7.3,29.7s-2.4,21.1-7.3,29.6s-11.8,15-20.8,19.6
		c-8.9,4.6-19.3,6.9-31.2,6.9H447V31.2h39.3C498.1,31.2,508.5,33.5,517.4,38.1z M512.8,114.8c6.4-6.4,9.7-15.5,9.7-27.2
		s-3.2-20.9-9.7-27.5c-6.4-6.6-15.5-9.9-27.4-9.9h-15.9v74.3h15.9C497.3,124.5,506.4,121.2,512.8,114.8z"/>
	<path d="M620.4,143.6l-24.8-43.8H585v43.8h-22.6V31.2h42.2c8.7,0,16.1,1.5,22.2,4.6s10.7,7.2,13.8,12.4s4.6,11,4.6,17.5
		c0,7.4-2.2,14.1-6.4,20.1c-4.3,6-10.7,10.1-19.2,12.3l26.9,45.6H620.4z M585,82.9h18.8c6.1,0,10.7-1.4,13.7-4.4
		c3-3,4.5-7.1,4.5-12.3c0-5.2-1.5-9.2-4.5-12c-3-2.8-7.6-4.3-13.7-4.3H585V82.9z"/>
	<path d="M755.1,31.2l-38,73.3v39.1h-22.6v-39.1l-38.2-73.3h25.4L706,82.6l24-51.4H755.1z"/>
</g>
</svg>
