<?xml version="1.0" encoding="utf-8"?>
<!-- Generator: Adobe Illustrator 27.5.0, SVG Export Plug-In . SVG Version: 6.00 Build 0)  -->
<svg version="1.1" id="Layer_1" xmlns="http://www.w3.org/2000/svg" xmlns:xlink="http://www.w3.org/1999/xlink" x="0px" y="0px"
	 width="896px" height="246px" viewBox="0 0 896 246" style="enable-background:new 0 0 896 246;" xml:space="preserve">
<style type="text/css">
	.st0{fill:#00B200;stroke:#00B200;stroke-width:10;stroke-miterlimit:10;}
	.st1{fill:#00B200;}
</style>
<path class="st0" d="M88.2,55.4c1.8-10.7,5.8-20,12.7-28.1c5.1-6,11.3-10.3,17.6-14.7c1.2-0.8,2.1-0.9,3.5,0.2
	c8.4,6.6,12.1,15.8,14.2,25.7c1.2,5.9,0.2,12.1-1.8,17.9c-1.9,5.3-4.6,10.2-7.8,14.8c-0.4,0.6-1,1.1-0.6,1.7
	c0.3,0.5,1.1,0.2,1.6,0.2c5.1-0.5,10.2-1.2,15.4-0.6c4.8,0.5,9.6,0.9,14.2,2.2c8.2,2.2,15.5,6,22.1,11.3c3.2,2.6,3.1,3,1,6.5
	c-4.7,7.7-11.7,12.8-19,17.6c-6.8,4.5-14.1,7.4-22.4,6.5c-4.6-0.5-9.2-0.9-13.6-2.6c-0.5-0.2-0.9-0.5-1.5-0.1c3,4.9,5.5,10,6.7,15.7
	c0.9,4.4,1.5,8.7,1,13.3c-0.6,4.9-0.8,9.9-1.7,14.9c-0.1,0.4,0,0.8-0.2,1.2c-1.7,6.3-1.7,6-8.5,5.2c-5.7-0.7-11.4-1.4-16.4-4.2
	c-6.6-3.5-11.6-8.9-15.7-15.1c-4.6-7-5.6-15-7.1-23.1c-2.8,2.6-5.5,5.3-8.3,7.8c-6,5.2-13.2,8.1-20.8,10.1
	c-4.2,1.1-8.4,1.4-12.6,1.7c-3.4,0.3-6.8-0.5-10.2-0.9c-1.1-0.1-1.5-1.3-1.6-2c-0.3-3.3-1.1-6.6-0.2-10c0.6-2.3,0.4-4.9,0.5-7.4
	c0.4-7.1,3.2-13.1,7.4-18.7c5.3-7.1,12.4-11.8,20.6-15c1.9-0.8,3.9-1.6,6.3-1.5c-1-1.7-2.8-1.9-4.1-2.4c-7.4-2.9-14-7.1-20-12.3
	c-3.1-2.7-5.4-6.2-7.2-9.8c-3-5.7-6.2-11.4-8-17.7c-0.4-1.5-0.1-2.1,1-2.8c9-5.1,18.6-8.4,29.1-7.3c8.2,0.8,15.7,3.5,22.4,8.8
	c3.7,2.9,6.1,6.8,9.2,10.2C86.2,53.5,86.9,54.4,88.2,55.4z M72,85.3c-6.5,3-12.1,6.8-16.7,11.9c-4.3,4.8-6.6,10.7-8.7,16.5
	c-0.9,2.5-1.5,5.2-1.2,8c0.2,1.3,0.6,2.2,2.1,2.3c5.3,0.1,10.5,0,15.7-1.3c8-2,15.5-4.7,21.7-10.9c0.6,5.7,2,10.8,4.4,15.5
	c4.8,9.6,13.3,14.8,23.3,17.7c3.9,1.1,5,0.2,6.2-3.6c0.9-2.8,1.6-5.6,2-8.5c0.6-3.7,1.2-7.5,1-11.2c-0.2-4.4-0.6-8.9-2.9-13.1
	c0.8,0.1,1.1,0.1,1.6,0.2c5.2,1.8,10.7,2.7,16,1.6c10.6-2.2,19.2-7.9,24.6-17.6c1.8-3.2,1.8-3.3-0.8-5.5c-9.7-8.3-21.3-11-33.7-10.6
	c-1.8,0.1-3.6,0.4-5.4,0.4c-1.3,0-1.7-0.4-0.9-1.6c4.7-8.1,7.8-16.7,6.6-26.3c-0.6-4.7-2-9.2-4.5-13.3c-1.2-1.9-2.9-2.7-5.1-2.2
	c-6.7,1.7-12.4,5.1-17.3,9.8c-5.2,4.9-7.8,11.5-10,18.1c-0.2,0.5,0.3,1.3-0.5,1.5c-0.6,0.1-0.8-0.6-1.2-1.1
	c-4.7-5.8-9.7-11.1-16.9-14c-7.8-3.1-15.3-3.9-23.2-0.5c-6,2.6-5.2,1.4-4.2,7.2c1.5,8.7,5.3,16.1,12.3,21.8
	C61.1,80.3,66.5,82.6,72,85.3z"/>
<g>
	<path d="M284,158.3l-30.8-54.4H240v54.4h-28V18.7h52.4c10.8,0,20,1.9,27.6,5.7s13.3,8.9,17.1,15.4c3.8,6.5,5.7,13.7,5.7,21.7
		c0,9.2-2.7,17.5-8,24.9s-13.3,12.5-23.8,15.3l33.4,56.6H284z M240,82.9h23.4c7.6,0,13.3-1.8,17-5.5s5.6-8.8,5.6-15.3
		c0-6.4-1.9-11.4-5.6-14.9s-9.4-5.3-17-5.3H240V82.9z"/>
	<path d="M368.2,41.3v35h47v22.2h-47v37h53v22.8h-81V18.5h81v22.8H368.2z"/>
	<path d="M446.5,72.2c-3.3-3.1-4.9-7-4.9-11.7s1.6-8.6,4.9-11.7s7.4-4.7,12.5-4.7c4.9,0,9,1.6,12.2,4.7c3.2,3.1,4.8,7,4.8,11.7
		s-1.6,8.6-4.8,11.7c-3.2,3.1-7.3,4.7-12.2,4.7C453.9,76.9,449.8,75.3,446.5,72.2z M446.5,155c-3.3-3.1-4.9-7-4.9-11.7
		s1.6-8.6,4.9-11.7c3.3-3.1,7.4-4.7,12.5-4.7c4.9,0,9,1.6,12.2,4.7s4.8,7,4.8,11.7s-1.6,8.6-4.8,11.7c-3.2,3.1-7.3,4.7-12.2,4.7
		C453.9,159.7,449.8,158.1,446.5,155z"/>
	<path d="M586.7,27.3c11.1,5.7,19.7,13.9,25.8,24.5s9.1,22.9,9.1,36.9s-3,26.2-9.1,36.7s-14.7,18.6-25.8,24.3s-24,8.6-38.7,8.6
		h-48.8V18.7H548C562.7,18.7,575.6,21.6,586.7,27.3z M581,122.5c8-8,12-19.3,12-33.8s-4-25.9-12-34.1s-19.3-12.3-34-12.3h-19.8v92.2
		H547C561.7,134.5,573,130.5,581,122.5z"/>
	<path d="M714.6,158.3l-30.8-54.4h-13.2v54.4h-28V18.7H695c10.8,0,20,1.9,27.6,5.7s13.3,8.9,17.1,15.4c3.8,6.5,5.7,13.7,5.7,21.7
		c0,9.2-2.7,17.5-8,24.9c-5.3,7.4-13.3,12.5-23.8,15.3l33.4,56.6H714.6z M670.6,82.9H694c7.6,0,13.3-1.8,17-5.5
		c3.7-3.7,5.6-8.8,5.6-15.3c0-6.4-1.9-11.4-5.6-14.9c-3.7-3.5-9.4-5.3-17-5.3h-23.4V82.9z"/>
	<path d="M881.8,18.7l-47.2,91v48.6h-28v-48.6l-47.4-91h31.6l30,63.8l29.8-63.8H881.8z"/>
</g>
<g>
	<path class="st1" d="M18.6,193.9c1.6-2.8,3.9-5,6.7-6.6c2.8-1.6,5.9-2.4,9.3-2.4c3.8,0,7.3,0.9,10.3,2.8c3,1.9,5.2,4.6,6.5,8h-7.1
		c-0.9-1.9-2.2-3.3-3.9-4.3c-1.7-0.9-3.6-1.4-5.8-1.4c-2.4,0-4.5,0.5-6.4,1.6c-1.9,1.1-3.3,2.6-4.4,4.6c-1.1,2-1.6,4.4-1.6,7
		c0,2.7,0.5,5,1.6,7c1.1,2,2.5,3.6,4.4,4.7c1.9,1.1,4,1.6,6.4,1.6c2.2,0,4.1-0.5,5.8-1.4c1.7-0.9,3-2.4,3.9-4.3h7.1
		c-1.4,3.5-3.5,6.1-6.5,8s-6.4,2.8-10.3,2.8c-3.4,0-6.5-0.8-9.3-2.4c-2.8-1.6-5-3.8-6.7-6.6c-1.6-2.8-2.5-6-2.5-9.5
		C16.1,199.9,16.9,196.7,18.6,193.9z"/>
	<path class="st1" d="M58.1,199.5c1.2-2.2,2.8-3.9,4.9-5.2c2.1-1.2,4.3-1.8,6.8-1.8c2.3,0,4.2,0.4,5.9,1.3c1.7,0.9,3,2,4,3.3v-4.2h6
		v28.7h-6v-4.3c-1,1.4-2.4,2.5-4.1,3.4c-1.7,0.9-3.7,1.4-5.9,1.4c-2.5,0-4.7-0.6-6.8-1.9c-2-1.3-3.7-3-4.9-5.3
		c-1.2-2.3-1.8-4.8-1.8-7.7C56.3,204.2,56.9,201.7,58.1,199.5z M78.6,202.1c-0.8-1.5-1.9-2.6-3.2-3.3c-1.3-0.8-2.7-1.1-4.3-1.1
		c-1.5,0-2.9,0.4-4.3,1.1c-1.3,0.7-2.4,1.8-3.2,3.3c-0.8,1.4-1.2,3.1-1.2,5.1s0.4,3.7,1.2,5.2c0.8,1.5,1.9,2.6,3.2,3.4
		c1.3,0.8,2.7,1.2,4.2,1.2c1.5,0,2.9-0.4,4.3-1.1c1.3-0.8,2.4-1.9,3.2-3.4c0.8-1.5,1.2-3.2,1.2-5.2
		C79.8,205.3,79.4,203.5,78.6,202.1z"/>
	<path class="st1" d="M103.6,193.8c1.7-0.9,3.7-1.4,5.9-1.4c2.5,0,4.8,0.6,6.8,1.8c2.1,1.2,3.7,3,4.9,5.2c1.2,2.2,1.8,4.8,1.8,7.6
		c0,2.9-0.6,5.5-1.8,7.7c-1.2,2.3-2.8,4-4.9,5.3c-2.1,1.3-4.3,1.9-6.8,1.9c-2.2,0-4.1-0.4-5.8-1.3c-1.7-0.9-3.1-2-4.2-3.3v17.8h-5.9
		v-42.3h5.9v4.2C100.5,195.8,101.9,194.7,103.6,193.8z M115.7,202c-0.8-1.4-1.9-2.5-3.2-3.3s-2.8-1.1-4.3-1.1
		c-1.5,0-2.9,0.4-4.2,1.1c-1.3,0.8-2.4,1.9-3.2,3.3c-0.8,1.5-1.2,3.2-1.2,5.1c0,2,0.4,3.7,1.2,5.2c0.8,1.5,1.9,2.6,3.2,3.4
		c1.3,0.8,2.7,1.1,4.2,1.1c1.5,0,3-0.4,4.3-1.2c1.3-0.8,2.4-1.9,3.2-3.4c0.8-1.5,1.2-3.2,1.2-5.2S116.5,203.4,115.7,202z"/>
	<path class="st1" d="M135.7,197.8v15.9c0,1.1,0.3,1.8,0.8,2.3c0.5,0.5,1.4,0.7,2.6,0.7h3.6v4.9H138c-2.7,0-4.7-0.6-6.1-1.9
		c-1.4-1.2-2.1-3.3-2.1-6.1v-15.9h-3.4v-4.8h3.4v-7.1h6v7.1h7v4.8H135.7z"/>
	<path class="st1" d="M174.1,192.9v28.7h-5.9v-3.4c-0.9,1.2-2.2,2.1-3.7,2.8c-1.5,0.7-3.1,1-4.8,1c-2.3,0-4.3-0.5-6.1-1.4
		c-1.8-0.9-3.2-2.3-4.2-4.2c-1-1.8-1.5-4.1-1.5-6.7v-16.8h5.9v16c0,2.6,0.6,4.5,1.9,5.9c1.3,1.4,3,2.1,5.3,2.1c2.2,0,4-0.7,5.3-2.1
		c1.3-1.4,1.9-3.3,1.9-5.9v-16H174.1z"/>
	<path class="st1" d="M191.3,193.7c1.4-0.8,3.1-1.2,5.1-1.2v6.1h-1.5c-2.3,0-4.1,0.6-5.3,1.8c-1.2,1.2-1.8,3.2-1.8,6.1v15.1h-5.9
		v-28.7h5.9v4.2C188.7,195.6,189.8,194.5,191.3,193.7z"/>
	<path class="st1" d="M227.9,209.5H206c0.2,2.3,1,4.1,2.5,5.5c1.5,1.4,3.4,2.1,5.6,2.1c3.2,0,5.4-1.3,6.8-4h6.4
		c-0.9,2.6-2.4,4.8-4.7,6.5c-2.3,1.7-5.1,2.5-8.4,2.5c-2.7,0-5.2-0.6-7.4-1.8c-2.2-1.2-3.9-3-5.1-5.2c-1.2-2.2-1.8-4.8-1.8-7.8
		s0.6-5.5,1.8-7.8c1.2-2.2,2.9-4,5-5.2c2.2-1.2,4.7-1.8,7.5-1.8c2.7,0,5.1,0.6,7.2,1.8c2.1,1.2,3.8,2.8,4.9,5
		c1.2,2.1,1.8,4.6,1.8,7.4C228.1,207.6,228.1,208.6,227.9,209.5z M221.9,204.7c0-2.2-0.8-3.9-2.3-5.3c-1.5-1.3-3.4-2-5.7-2
		c-2,0-3.8,0.7-5.3,2s-2.3,3.1-2.6,5.3H221.9z"/>
	<path class="st1" d="M270.8,185.4v4.8h-9.6v31.3h-5.9v-31.3h-9.7v-4.8H270.8z"/>
	<path class="st1" d="M297.5,193.9c1.7,0.9,3.1,2.3,4.1,4.2c1,1.8,1.5,4.1,1.5,6.7v16.9h-5.9v-16c0-2.6-0.6-4.5-1.9-5.9
		c-1.3-1.4-3-2.1-5.3-2.1c-2.2,0-4,0.7-5.3,2.1c-1.3,1.4-1.9,3.3-1.9,5.9v16h-5.9v-38.5h5.9v13.2c1-1.2,2.3-2.1,3.8-2.8
		c1.5-0.7,3.2-1,5.1-1C293.8,192.5,295.8,192.9,297.5,193.9z"/>
	<path class="st1" d="M336.6,209.5h-21.9c0.2,2.3,1,4.1,2.5,5.5c1.5,1.4,3.4,2.1,5.6,2.1c3.2,0,5.4-1.3,6.8-4h6.4
		c-0.9,2.6-2.4,4.8-4.7,6.5c-2.3,1.7-5.1,2.5-8.4,2.5c-2.7,0-5.2-0.6-7.4-1.8c-2.2-1.2-3.9-3-5.1-5.2c-1.2-2.2-1.8-4.8-1.8-7.8
		s0.6-5.5,1.8-7.8c1.2-2.2,2.9-4,5-5.2c2.2-1.2,4.7-1.8,7.5-1.8c2.7,0,5.1,0.6,7.2,1.8c2.1,1.2,3.8,2.8,4.9,5
		c1.2,2.1,1.8,4.6,1.8,7.4C336.8,207.6,336.7,208.6,336.6,209.5z M330.6,204.7c0-2.2-0.8-3.9-2.3-5.3c-1.5-1.3-3.4-2-5.7-2
		c-2,0-3.8,0.7-5.3,2s-2.3,3.1-2.6,5.3H330.6z"/>
	<path class="st1" d="M403.2,185.4l-10.7,36.1h-6.7l-7.6-27.4l-8.1,27.4l-6.7,0.1l-10.2-36.2h6.3l7.5,29.4l8.1-29.4h6.7l7.5,29.3
		l7.5-29.3H403.2z"/>
	<path class="st1" d="M413.2,220.2c-2.2-1.2-3.9-3-5.1-5.2s-1.9-4.8-1.9-7.8c0-2.9,0.6-5.5,1.9-7.7c1.3-2.3,3-4,5.3-5.2
		c2.2-1.2,4.7-1.8,7.4-1.8c2.7,0,5.2,0.6,7.4,1.8c2.2,1.2,4,2.9,5.3,5.2c1.3,2.3,1.9,4.8,1.9,7.7c0,2.9-0.7,5.5-2,7.7
		c-1.3,2.3-3.1,4-5.4,5.2s-4.8,1.8-7.5,1.8C417.8,222.1,415.4,221.4,413.2,220.2z M424.8,215.8c1.3-0.7,2.4-1.8,3.2-3.3
		s1.2-3.2,1.2-5.3c0-2.1-0.4-3.8-1.2-5.3c-0.8-1.4-1.9-2.5-3.2-3.2c-1.3-0.7-2.7-1.1-4.3-1.1c-1.5,0-2.9,0.4-4.2,1.1
		c-1.3,0.7-2.3,1.8-3.1,3.2c-0.8,1.4-1.1,3.2-1.1,5.3c0,3.1,0.8,5.5,2.4,7.1c1.6,1.7,3.6,2.5,6,2.5
		C422,216.9,423.5,216.5,424.8,215.8z"/>
	<path class="st1" d="M450.7,193.7c1.4-0.8,3.1-1.2,5.1-1.2v6.1h-1.5c-2.3,0-4.1,0.6-5.3,1.8s-1.8,3.2-1.8,6.1v15.1h-5.9v-28.7h5.9
		v4.2C448.1,195.6,449.2,194.5,450.7,193.7z"/>
	<path class="st1" d="M467.2,183.1v38.5h-5.9v-38.5H467.2z"/>
	<path class="st1" d="M474.8,199.5c1.2-2.2,2.8-3.9,4.9-5.2c2.1-1.2,4.4-1.8,6.9-1.8c1.9,0,3.7,0.4,5.5,1.2c1.8,0.8,3.3,1.9,4.3,3.2
		v-13.8h6v38.5h-6v-4.3c-1,1.4-2.3,2.5-4,3.4c-1.7,0.9-3.7,1.4-5.9,1.4c-2.5,0-4.8-0.6-6.8-1.9c-2.1-1.3-3.7-3-4.9-5.3
		c-1.2-2.3-1.8-4.8-1.8-7.7C473,204.2,473.6,201.7,474.8,199.5z M495.2,202.1c-0.8-1.5-1.9-2.6-3.2-3.3c-1.3-0.8-2.7-1.1-4.3-1.1
		c-1.5,0-2.9,0.4-4.3,1.1s-2.4,1.8-3.2,3.3c-0.8,1.4-1.2,3.1-1.2,5.1s0.4,3.7,1.2,5.2c0.8,1.5,1.9,2.6,3.2,3.4
		c1.3,0.8,2.7,1.2,4.2,1.2c1.5,0,2.9-0.4,4.3-1.1c1.3-0.8,2.4-1.9,3.2-3.4c0.8-1.5,1.2-3.2,1.2-5.2
		C496.4,205.3,496,203.5,495.2,202.1z"/>
	<path class="st1" d="M529.7,185.4v36.1h-5.9v-36.1H529.7z"/>
	<path class="st1" d="M558,193.9c1.8,0.9,3.2,2.3,4.2,4.2c1,1.8,1.5,4.1,1.5,6.7v16.9h-5.9v-16c0-2.6-0.6-4.5-1.9-5.9
		c-1.3-1.4-3-2.1-5.3-2.1s-4,0.7-5.3,2.1c-1.3,1.4-2,3.3-2,5.9v16h-5.9v-28.7h5.9v3.3c1-1.2,2.2-2.1,3.7-2.8c1.5-0.7,3.1-1,4.8-1
		C554.2,192.5,556.2,192.9,558,193.9z"/>
	<path class="st1" d="M606.5,214.2h-15.1l-2.6,7.4h-6.2l12.9-36.2h6.9l12.9,36.2h-6.2L606.5,214.2z M604.9,209.4l-5.9-16.8
		l-5.9,16.8H604.9z"/>
	<path class="st1" d="M664.2,221.6h-5.9l-17.8-27v27h-5.9v-36.2h5.9l17.8,26.9v-26.9h5.9V221.6z"/>
	<path class="st1" d="M698,209.5h-21.9c0.2,2.3,1,4.1,2.5,5.5c1.5,1.4,3.4,2.1,5.6,2.1c3.2,0,5.4-1.3,6.8-4h6.4
		c-0.9,2.6-2.4,4.8-4.7,6.5s-5.1,2.5-8.5,2.5c-2.7,0-5.2-0.6-7.4-1.8c-2.2-1.2-3.9-3-5.1-5.2s-1.8-4.8-1.8-7.8s0.6-5.5,1.8-7.8
		c1.2-2.2,2.9-4,5-5.2c2.2-1.2,4.7-1.8,7.5-1.8c2.7,0,5.1,0.6,7.2,1.8c2.1,1.2,3.8,2.8,4.9,5s1.8,4.6,1.8,7.4
		C698.2,207.6,698.2,208.6,698,209.5z M692.1,204.7c0-2.2-0.8-3.9-2.3-5.3c-1.5-1.3-3.4-2-5.7-2c-2,0-3.8,0.7-5.3,2
		s-2.3,3.1-2.6,5.3H692.1z"/>
	<path class="st1" d="M742.6,192.9l-8.9,28.7h-6.2l-5.8-21.2l-5.8,21.2h-6.2l-8.9-28.7h6l6,23l6.1-23h6.2l5.8,22.9l5.9-22.9H742.6z"
		/>
	<path class="st1" d="M766.4,216.8h12.2v4.8h-18.1v-36.1h5.9V216.8z"/>
	<path class="st1" d="M783.9,188c-0.7-0.7-1.1-1.6-1.1-2.7c0-1.1,0.4-2,1.1-2.7c0.7-0.7,1.6-1.1,2.7-1.1c1,0,1.9,0.4,2.7,1.1
		c0.7,0.7,1.1,1.6,1.1,2.7c0,1.1-0.4,2-1.1,2.7c-0.7,0.7-1.6,1.1-2.7,1.1C785.5,189.1,784.6,188.8,783.9,188z M789.5,192.9v28.7
		h-5.9v-28.7H789.5z"/>
	<path class="st1" d="M814.8,193.8c1.7,0.9,3.1,2,4,3.3v-4.2h6v29.1c0,2.6-0.6,5-1.7,7c-1.1,2.1-2.7,3.7-4.8,4.9
		c-2.1,1.2-4.6,1.8-7.5,1.8c-3.9,0-7.1-0.9-9.7-2.7c-2.6-1.8-4-4.3-4.4-7.4h5.9c0.5,1.5,1.4,2.7,2.9,3.6c1.5,0.9,3.2,1.4,5.3,1.4
		c2.4,0,4.3-0.7,5.8-2.2c1.5-1.5,2.2-3.6,2.2-6.3v-4.8c-1,1.4-2.4,2.5-4.1,3.4s-3.7,1.4-5.8,1.4c-2.5,0-4.8-0.6-6.8-1.9
		c-2.1-1.3-3.7-3-4.9-5.3c-1.2-2.3-1.8-4.8-1.8-7.7c0-2.9,0.6-5.4,1.8-7.6c1.2-2.2,2.8-3.9,4.9-5.2c2.1-1.2,4.3-1.8,6.8-1.8
		C811.1,192.5,813,192.9,814.8,193.8z M817.6,202.1c-0.8-1.5-1.9-2.6-3.2-3.3c-1.3-0.8-2.7-1.1-4.3-1.1c-1.5,0-2.9,0.4-4.3,1.1
		s-2.4,1.8-3.2,3.3c-0.8,1.4-1.2,3.1-1.2,5.1s0.4,3.7,1.2,5.2c0.8,1.5,1.9,2.6,3.2,3.4c1.3,0.8,2.7,1.2,4.2,1.2
		c1.5,0,2.9-0.4,4.3-1.1c1.3-0.8,2.4-1.9,3.2-3.4c0.8-1.5,1.2-3.2,1.2-5.2C818.8,205.3,818.4,203.5,817.6,202.1z"/>
	<path class="st1" d="M853.2,193.9c1.7,0.9,3.1,2.3,4.1,4.2c1,1.8,1.5,4.1,1.5,6.7v16.9h-5.9v-16c0-2.6-0.6-4.5-1.9-5.9
		c-1.3-1.4-3-2.1-5.3-2.1s-4,0.7-5.3,2.1c-1.3,1.4-2,3.3-2,5.9v16h-5.9v-38.5h5.9v13.2c1-1.2,2.3-2.1,3.8-2.8c1.5-0.7,3.2-1,5.1-1
		C849.6,192.5,851.5,192.9,853.2,193.9z"/>
	<path class="st1" d="M873.2,197.8v15.9c0,1.1,0.3,1.8,0.8,2.3c0.5,0.5,1.4,0.7,2.6,0.7h3.6v4.9h-4.7c-2.7,0-4.7-0.6-6.1-1.9
		c-1.4-1.2-2.1-3.3-2.1-6.1v-15.9h-3.4v-4.8h3.4v-7.1h6v7.1h7v4.8H873.2z"/>
</g>
</svg>
