<?xml version="1.0" encoding="utf-8"?>
<!-- Generator: Adobe Illustrator 27.6.1, SVG Export Plug-In . SVG Version: 6.00 Build 0)  -->
<svg version="1.1" id="Layer_1" xmlns="http://www.w3.org/2000/svg" xmlns:xlink="http://www.w3.org/1999/xlink" x="0px" y="0px"
	 width="190.1px" height="174.5px" viewBox="0 0 190.1 174.5" style="enable-background:new 0 0 190.1 174.5;" xml:space="preserve"
	>
<style type="text/css">
	.st0{fill:#00B200;stroke:#00B200;stroke-width:10;stroke-miterlimit:10;}
</style>
<path class="st0" d="M80.6,52.4c1.8-10.7,5.8-20,12.7-28.1c5.1-6,11.3-10.3,17.6-14.7c1.2-0.8,2.1-0.9,3.5,0.2
	c8.4,6.6,12.1,15.8,14.2,25.7c1.2,5.9,0.2,12.1-1.8,17.9c-1.9,5.3-4.6,10.2-7.8,14.8c-0.4,0.6-1,1.1-0.6,1.7
	c0.3,0.5,1.1,0.2,1.6,0.2c5.1-0.5,10.2-1.2,15.4-0.6c4.8,0.5,9.6,0.9,14.2,2.2c8.2,2.2,15.5,6,22.1,11.3c3.2,2.6,3.1,3,1,6.5
	c-4.7,7.7-11.7,12.8-19,17.6c-6.8,4.5-14.1,7.4-22.4,6.5c-4.6-0.5-9.2-0.9-13.6-2.6c-0.5-0.2-0.9-0.5-1.5-0.1c3,4.9,5.5,10,6.7,15.7
	c0.9,4.4,1.5,8.7,1,13.3c-0.6,4.9-0.8,9.9-1.7,14.9c-0.1,0.4,0,0.8-0.2,1.2c-1.7,6.3-1.7,6-8.5,5.2c-5.7-0.7-11.4-1.4-16.4-4.2
	c-6.6-3.5-11.6-8.9-15.7-15.1c-4.6-7-5.6-15-7.1-23.1c-2.8,2.6-5.5,5.3-8.3,7.8c-6,5.2-13.2,8.1-20.8,10.1
	c-4.2,1.1-8.4,1.4-12.6,1.7c-3.4,0.3-6.8-0.5-10.2-0.9c-1.1-0.1-1.5-1.3-1.6-2c-0.3-3.3-1.1-6.6-0.2-10c0.6-2.3,0.4-4.9,0.5-7.4
	c0.4-7.1,3.2-13.1,7.4-18.7c5.3-7.1,12.4-11.8,20.6-15c1.9-0.8,3.9-1.6,6.3-1.5c-1-1.7-2.8-1.9-4.1-2.4c-7.4-2.9-14-7.1-20-12.3
	c-3.1-2.7-5.4-6.2-7.2-9.8c-3-5.7-6.2-11.4-8-17.7c-0.4-1.5-0.1-2.1,1-2.8c9-5.1,18.6-8.4,29.1-7.3c8.2,0.8,15.7,3.5,22.4,8.8
	c3.7,2.9,6.1,6.8,9.2,10.2C78.6,50.5,79.3,51.4,80.6,52.4z M64.4,82.3c-6.5,3-12.1,6.8-16.7,11.9c-4.3,4.8-6.6,10.7-8.7,16.5
	c-0.9,2.5-1.5,5.2-1.2,8c0.2,1.3,0.6,2.2,2.1,2.3c5.3,0.1,10.5,0,15.7-1.3c8-2,15.5-4.7,21.7-10.9c0.6,5.7,2,10.8,4.4,15.5
	c4.8,9.6,13.3,14.8,23.3,17.7c3.9,1.1,5,0.2,6.2-3.6c0.9-2.8,1.6-5.6,2-8.5c0.6-3.7,1.2-7.5,1-11.2c-0.2-4.4-0.6-8.9-2.9-13.1
	c0.8,0.1,1.1,0.1,1.6,0.2c5.2,1.8,10.7,2.7,16,1.6c10.6-2.2,19.2-7.9,24.6-17.6c1.8-3.2,1.8-3.3-0.8-5.5c-9.7-8.3-21.3-11-33.7-10.6
	c-1.8,0.1-3.6,0.4-5.4,0.4c-1.3,0-1.7-0.4-0.9-1.6c4.7-8.1,7.8-16.7,6.6-26.3c-0.6-4.7-2-9.2-4.5-13.3c-1.2-1.9-2.9-2.7-5.1-2.2
	c-6.7,1.7-12.4,5.1-17.3,9.8c-5.2,4.9-7.8,11.5-10,18.1c-0.2,0.5,0.3,1.3-0.5,1.5c-0.6,0.1-0.8-0.6-1.2-1.1C76,53.2,71,47.9,63.8,45
	c-7.8-3.1-15.3-3.9-23.2-0.5c-6,2.6-5.2,1.4-4.2,7.2c1.5,8.7,5.3,16.1,12.3,21.8C53.5,77.3,58.9,79.6,64.4,82.3z"/>
</svg>
