<?xml version="1.0" encoding="utf-8"?>
<!-- Generator: Adobe Illustrator 27.6.1, SVG Export Plug-In . SVG Version: 6.00 Build 0)  -->
<svg version="1.1" id="Layer_1" xmlns="http://www.w3.org/2000/svg" xmlns:xlink="http://www.w3.org/1999/xlink" x="0px" y="0px"
	 width="896px" height="174.5px" viewBox="0 0 896 174.5" style="enable-background:new 0 0 896 174.5;" xml:space="preserve">
<style type="text/css">
	.st0{fill:#FFFFFF;stroke:#FFFFFF;stroke-width:10;stroke-miterlimit:10;}
</style>
<path class="st0" d="M84.6,54.4c1.8-10.7,5.8-20,12.7-28.1c5.1-6,11.3-10.3,17.6-14.7c1.2-0.8,2.1-0.9,3.5,0.2
	c8.4,6.6,12.1,15.8,14.2,25.7c1.2,5.9,0.2,12.1-1.8,17.9c-1.9,5.3-4.6,10.2-7.8,14.8c-0.4,0.6-1,1.1-0.6,1.7
	c0.3,0.5,1.1,0.2,1.6,0.2c5.1-0.5,10.2-1.2,15.4-0.6c4.8,0.5,9.6,0.9,14.2,2.2c8.2,2.2,15.5,6,22.1,11.3c3.2,2.6,3.1,3,1,6.5
	c-4.7,7.7-11.7,12.8-19,17.6c-6.8,4.5-14.1,7.4-22.4,6.5c-4.6-0.5-9.2-0.9-13.6-2.6c-0.5-0.2-0.9-0.5-1.5-0.1c3,4.9,5.5,10,6.7,15.7
	c0.9,4.4,1.5,8.7,1,13.3c-0.6,4.9-0.8,9.9-1.7,14.9c-0.1,0.4,0,0.8-0.2,1.2c-1.7,6.3-1.7,6-8.5,5.2c-5.7-0.7-11.4-1.4-16.4-4.2
	c-6.6-3.5-11.6-8.9-15.7-15.1c-4.6-7-5.6-15-7.1-23.1c-2.8,2.6-5.5,5.3-8.3,7.8c-6,5.2-13.2,8.1-20.8,10.1
	c-4.2,1.1-8.4,1.4-12.6,1.7c-3.4,0.3-6.8-0.5-10.2-0.9c-1.1-0.1-1.5-1.3-1.6-2c-0.3-3.3-1.1-6.6-0.2-10c0.6-2.3,0.4-4.9,0.5-7.4
	c0.4-7.1,3.2-13.1,7.4-18.7c5.3-7.1,12.4-11.8,20.6-15c1.9-0.8,3.9-1.6,6.3-1.5c-1-1.7-2.8-1.9-4.1-2.4c-7.4-2.9-14-7.1-20-12.3
	c-3.1-2.7-5.4-6.2-7.2-9.8c-3-5.7-6.2-11.4-8-17.7c-0.4-1.5-0.1-2.1,1-2.8c9-5.1,18.6-8.4,29.1-7.3c8.2,0.8,15.7,3.5,22.4,8.8
	c3.7,2.9,6.1,6.8,9.2,10.2C82.6,52.5,83.3,53.4,84.6,54.4z M68.4,84.3c-6.5,3-12.1,6.8-16.7,11.9c-4.3,4.8-6.6,10.7-8.7,16.5
	c-0.9,2.5-1.5,5.2-1.2,8c0.2,1.3,0.6,2.2,2.1,2.3c5.3,0.1,10.5,0,15.7-1.3c8-2,15.5-4.7,21.7-10.9c0.6,5.7,2,10.8,4.4,15.5
	c4.8,9.6,13.3,14.8,23.3,17.7c3.9,1.1,5,0.2,6.2-3.6c0.9-2.8,1.6-5.6,2-8.5c0.6-3.7,1.2-7.5,1-11.2c-0.2-4.4-0.6-8.9-2.9-13.1
	c0.8,0.1,1.1,0.1,1.6,0.2c5.2,1.8,10.7,2.7,16,1.6c10.6-2.2,19.2-7.9,24.6-17.6c1.8-3.2,1.8-3.3-0.8-5.5c-9.7-8.3-21.3-11-33.7-10.6
	c-1.8,0.1-3.6,0.4-5.4,0.4c-1.3,0-1.7-0.4-0.9-1.6c4.7-8.1,7.8-16.7,6.6-26.3c-0.6-4.7-2-9.2-4.5-13.3c-1.2-1.9-2.9-2.7-5.1-2.2
	c-6.7,1.7-12.4,5.1-17.3,9.8c-5.2,4.9-7.8,11.5-10,18.1c-0.2,0.5,0.3,1.3-0.5,1.5c-0.6,0.1-0.8-0.6-1.2-1.1C80,55.2,75,49.9,67.8,47
	c-7.8-3.1-15.3-3.9-23.2-0.5c-6,2.6-5.2,1.4-4.2,7.2c1.5,8.7,5.3,16.1,12.3,21.8C57.5,79.3,62.9,81.6,68.4,84.3z"/>
<g>
	<path d="M280.4,157.3l-30.8-54.4h-13.2v54.4h-28V17.7h52.4c10.8,0,20,1.9,27.6,5.7s13.3,8.9,17.1,15.4c3.8,6.5,5.7,13.7,5.7,21.7
		c0,9.2-2.7,17.5-8,24.9s-13.3,12.5-23.8,15.3l33.4,56.6H280.4z M236.4,81.9h23.4c7.6,0,13.3-1.8,17-5.5s5.6-8.8,5.6-15.3
		c0-6.4-1.9-11.4-5.6-14.9s-9.4-5.3-17-5.3h-23.4V81.9z"/>
	<path d="M364.6,40.3v35h47v22.2h-47v37h53v22.8h-81V17.5h81v22.8H364.6z"/>
	<path d="M442.9,71.2c-3.3-3.1-4.9-7-4.9-11.7s1.6-8.6,4.9-11.7s7.4-4.7,12.5-4.7c4.9,0,9,1.6,12.2,4.7c3.2,3.1,4.8,7,4.8,11.7
		s-1.6,8.6-4.8,11.7c-3.2,3.1-7.3,4.7-12.2,4.7C450.3,75.9,446.2,74.3,442.9,71.2z M442.9,154c-3.3-3.1-4.9-7-4.9-11.7
		s1.6-8.6,4.9-11.7c3.3-3.1,7.4-4.7,12.5-4.7c4.9,0,9,1.6,12.2,4.7c3.2,3.1,4.8,7,4.8,11.7s-1.6,8.6-4.8,11.7
		c-3.2,3.1-7.3,4.7-12.2,4.7C450.3,158.7,446.2,157.1,442.9,154z"/>
	<path d="M583.1,26.3c11.1,5.7,19.7,13.9,25.8,24.5s9.1,22.9,9.1,36.9s-3,26.2-9.1,36.7s-14.7,18.6-25.8,24.3s-24,8.6-38.7,8.6
		h-48.8V17.7h48.8C559.1,17.7,572,20.6,583.1,26.3z M577.4,121.5c8-8,12-19.3,12-33.8s-4-25.9-12-34.1s-19.3-12.3-34-12.3h-19.8
		v92.2h19.8C558.1,133.5,569.4,129.5,577.4,121.5z"/>
	<path d="M711,157.3l-30.8-54.4H667v54.4h-28V17.7h52.4c10.8,0,20,1.9,27.6,5.7s13.3,8.9,17.1,15.4s5.7,13.7,5.7,21.7
		c0,9.2-2.7,17.5-8,24.9s-13.3,12.5-23.8,15.3l33.4,56.6H711z M667,81.9h23.4c7.6,0,13.3-1.8,17-5.5s5.6-8.8,5.6-15.3
		c0-6.4-1.9-11.4-5.6-14.9c-3.7-3.5-9.4-5.3-17-5.3H667V81.9z"/>
	<path d="M878.2,17.7l-47.2,91v48.6h-28v-48.6l-47.4-91h31.6l30,63.8L847,17.7H878.2z"/>
</g>
</svg>
