<?xml version="1.0" encoding="utf-8"?>
<!-- Generator: Adobe Illustrator 27.6.1, SVG Export Plug-In . SVG Version: 6.00 Build 0)  -->
<svg version="1.1" id="Layer_1" xmlns="http://www.w3.org/2000/svg" xmlns:xlink="http://www.w3.org/1999/xlink" x="0px" y="0px"
	 width="255.1px" height="256.6px" viewBox="0 0 255.1 256.6" style="enable-background:new 0 0 255.1 256.6;" xml:space="preserve"
	>
<style type="text/css">
	.st0{fill:#00B200;}
</style>
<g>
	<path class="st0" d="M31,146.3c0.2,16.7,0.4,33.4,0.5,50.1c0.1,5.9,2.4,11,5.7,15.8c4.8,6.8,11.7,10.3,19.6,12
		c1,0.2,2.2,0.1,3.2,0.1c45.3,0,90.6,0.1,136-0.1c6.3,0,11.9-2.9,16.7-7c3.6-3,6.7-6.6,8.2-11.2c1.3-4,2.4-8.2,2.5-12.3
		c0.3-14.6,0.2-29.2,0.1-43.7c-0.1-6.2,4.1-10.2,9.8-11c4.9-0.7,9.9,3.2,11.2,8.6c0.3,1.2,0.4,2.5,0.4,3.7c0,13.9,0.1,27.8,0,41.7
		c-0.1,13.7-4.3,25.9-13.6,36.1c-7.9,8.7-17.9,13.8-29.4,16.1c-3,0.6-6.2,0.4-9.3,0.4c-43.3,0-86.6-0.1-130,0.1
		c-8.7,0-16.9-1.6-24.5-5.5c-7.9-4-14.5-9.7-19.3-17.2c-4.3-6.7-7.5-13.8-8.1-21.9c-0.2-2.6-0.4-5.3-0.4-7.9c0-15.1-0.1-30.1,0-45.2
		c0-2.5,1.2-4.6,3.3-6.2c0.2-0.1,0.4-0.3,0.6-0.4c5.7-4.4,14-2.2,16.6,4.4C30.8,146,30.9,146.1,31,146.3z"/>
	<path class="st0" d="M138.9,47.9c-0.2,0.8-0.7,1.5-0.7,2.3c0,15.2,0,30.5,0,45.7c0,27.6,0,55.1,0,82.7c0,4.3-0.6,8.3-4,11.3
		c-2.9,2.5-6.6,3.2-10.1,2.1c-4.1-1.3-6.6-4.3-7.1-8.7c-0.1-1.3-0.1-2.7-0.1-4c0-43,0-85.9,0-128.9c0-0.8-0.5-1.6-0.8-2.4
		c-0.7,0.2-1.6,0.2-2.1,0.7c-14.1,14-28.2,28.1-42.2,42.2c-0.6,0.6-0.9,1.7-1.3,2.5c-3.8,4.5-12.1,3.5-15.9-1.8
		c-2.6-3.6-2-10.2,1.3-13.5c21.3-21.1,42.4-42.4,63.6-63.5c5.2-5.2,11.1-4.6,15.8,0.1c21.3,21,42.4,42.2,63.4,63.3
		c3.4,3.4,3.9,7.8,2,12.1c-1.7,3.9-5,5.9-9.3,6.2c-2.6,0.2-5.1-0.3-7.1-2.3c-0.7-1.3-1.1-2.8-2.1-3.8c-10.6-10.6-21.3-21-31.9-31.5
		c-3.1-3.1-6.2-6.3-9.4-9.3C140.5,48.6,139.6,48.3,138.9,47.9z"/>
	<path class="st0" d="M138.9,47.9c0.8,0.4,1.6,0.7,2.3,1.3c3.2,3.1,6.2,6.2,9.4,9.3c10.7,10.5,21.3,21,31.9,31.5
		c1,1,1.4,2.5,2.1,3.8c-3.3-3.2-6.5-6.4-9.8-9.6c-11.4-11.4-22.8-22.8-34.2-34.3C139.9,49.4,139.4,48.6,138.9,47.9z"/>
	<path class="st0" d="M70.6,93.3c0.4-0.9,0.6-1.9,1.3-2.5c14-14.1,28.1-28.2,42.2-42.2c0.5-0.5,1.4-0.5,2.1-0.7
		c-14.9,14.9-29.7,29.7-44.6,44.6C71.2,92.9,70.9,93.1,70.6,93.3z"/>
	<path class="st0" d="M14,141.4c-0.2,0.1-0.4,0.3-0.6,0.4C13.7,141.6,13.9,141.5,14,141.4z"/>
	<path class="st0" d="M31,146.3c-0.1-0.2-0.3-0.4-0.4-0.5C30.8,146,30.9,146.1,31,146.3z"/>
</g>
</svg>
